M48
; DRILL file {KiCad 9.0.4} date 2025-10-29T16:41:19+0100
; FORMAT={-:-/ absolute / metric / decimal}
; #@! TF.CreationDate,2025-10-29T16:41:19+01:00
; #@! TF.GenerationSoftware,Kicad,Pcbnew,9.0.4
; #@! TF.FileFunction,Plated,1,4,PTH
FMAT,2
METRIC
; #@! TA.AperFunction,Plated,PTH,ViaDrill
T1C0.300
; #@! TA.AperFunction,Plated,PTH,ViaDrill
T2C0.500
; #@! TA.AperFunction,Plated,PTH,ComponentDrill
T3C0.800
; #@! TA.AperFunction,Plated,PTH,ComponentDrill
T4C1.000
; #@! TA.AperFunction,Plated,PTH,ComponentDrill
T5C1.500
%
G90
G05
T1
X196.564Y-161.4
X196.614Y-162.7
X196.663Y-164.0
X196.704Y-165.1
X206.225Y-158.1
X206.843Y-157.568
X206.856Y-158.7
X207.429Y-158.034
X217.417Y-144.6
X217.429Y-143.5
X217.443Y-142.2
X217.459Y-140.757
X227.68Y-138.029
X228.316Y-138.6
X228.353Y-137.497
X228.96Y-138.072
X239.919Y-124.9
X239.985Y-123.7
X240.051Y-122.5
X240.116Y-121.2
X250.889Y-118.866
X251.53Y-119.5
X251.612Y-118.419
X252.225Y-118.982
X264.177Y-106.1
X264.294Y-104.9
X264.392Y-103.9
X264.5Y-102.8
X275.805Y-100.93
X276.435Y-101.44
X276.542Y-100.518
X277.162Y-101.049
X286.095Y-112.333
X286.625Y-113.082
X286.812Y-111.959
X287.333Y-112.512
X296.944Y-121.0
X297.126Y-119.9
X297.324Y-118.7
X297.53Y-117.45
X305.028Y-136.112
X305.6Y-136.7
X305.772Y-135.784
X306.345Y-136.372
X315.142Y-145.2
X315.376Y-144.1
X315.652Y-142.8
X315.914Y-141.566
X322.086Y-160.394
X322.625Y-161.0
X322.846Y-160.058
X323.345Y-160.698
X331.367Y-169.7
X331.648Y-168.6
X331.956Y-167.4
X332.281Y-166.131
T2
X109.8Y-193.1
X109.95Y-188.05
X111.85Y-188.1
X111.91Y-193.07
X113.95Y-193.12
X114.0Y-188.1
X116.12Y-193.12
X116.159Y-188.143
X120.3Y-199.3
X128.2Y-194.15
X128.25Y-191.5
X128.39Y-197.21
X131.43Y-197.22
X132.2Y-180.65
X134.65Y-180.6
X135.3Y-194.138
X135.3Y-195.963
X136.4Y-192.3
X137.25Y-180.65
X140.12Y-179.94
X141.1Y-192.3
X143.7Y-192.3
X225.516Y-179.425
X287.38Y-199.48
T3
X173.166Y-179.979
X173.664Y-195.211
X175.704Y-179.896
X176.203Y-195.128
X178.243Y-179.813
X178.742Y-195.045
X180.782Y-179.73
X181.28Y-194.962
X183.32Y-179.647
X183.819Y-194.879
X185.859Y-179.564
X186.358Y-194.796
X188.398Y-179.481
X188.896Y-194.713
X190.936Y-179.398
X191.435Y-194.63
X193.475Y-179.315
X193.974Y-194.546
X196.014Y-179.231
X196.512Y-194.463
X198.552Y-179.148
X199.051Y-194.38
X201.091Y-179.065
X201.59Y-194.297
X203.63Y-178.982
X204.128Y-194.214
X206.168Y-178.899
X206.667Y-194.131
X208.707Y-178.816
X209.205Y-194.048
X211.245Y-178.733
X211.744Y-193.965
X213.784Y-178.65
X214.283Y-193.882
X216.323Y-178.567
X216.821Y-193.798
X218.861Y-178.484
X219.36Y-193.715
X221.4Y-178.4
X221.899Y-193.632
X231.329Y-193.777
X232.822Y-178.611
X233.856Y-194.026
X235.35Y-178.86
X236.384Y-194.275
X237.878Y-179.109
X238.912Y-194.524
X240.406Y-179.358
X241.44Y-194.773
X242.933Y-179.607
X243.967Y-195.022
X245.461Y-179.856
X246.495Y-195.271
X247.989Y-180.105
X249.023Y-195.52
X250.517Y-180.354
X251.551Y-195.769
X253.044Y-180.602
X254.078Y-196.018
X255.572Y-180.851
X256.606Y-196.267
X258.1Y-181.1
X259.134Y-196.516
X260.628Y-181.349
X261.662Y-196.765
X263.156Y-181.598
X264.19Y-197.014
X265.683Y-181.847
X266.717Y-197.263
X268.211Y-182.096
X269.245Y-197.512
X270.739Y-182.345
X271.773Y-197.761
X273.267Y-182.594
X274.301Y-198.01
X275.794Y-182.843
X276.828Y-198.259
X278.322Y-183.092
X279.356Y-198.508
X280.85Y-183.341
T4
X102.325Y-193.009
X102.982Y-195.463
X103.64Y-197.916
X104.297Y-200.37
X104.778Y-192.352
X105.436Y-194.805
X106.093Y-197.259
X106.751Y-199.712
X115.19Y-183.39
X117.73Y-183.39
X120.27Y-183.39
X126.32Y-203.21
X128.86Y-203.21
X141.11Y-195.75
X143.65Y-195.75
X146.19Y-195.75
X148.73Y-195.75
X151.27Y-195.75
X161.21Y-177.88
X163.65Y-194.7
X163.75Y-177.88
X166.19Y-194.7
X166.29Y-177.88
X296.46Y-199.46
X299.0Y-199.46
X301.54Y-199.46
X317.125Y-199.734
X317.728Y-197.267
X318.332Y-194.799
X318.935Y-192.332
X319.592Y-200.337
X320.195Y-197.87
X320.799Y-195.403
X321.403Y-192.936
T5
X76.451Y-120.455
X78.974Y-130.297
X81.496Y-140.139
X82.438Y-115.618
X84.019Y-149.981
X84.96Y-125.46
X86.541Y-159.823
X87.483Y-135.302
X87.707Y-117.617
X89.063Y-169.665
X90.005Y-145.144
X90.014Y-127.512
X91.586Y-179.507
X92.321Y-137.407
X92.527Y-154.985
X93.798Y-112.911
X94.628Y-147.301
X95.05Y-164.827
X96.105Y-122.806
X96.935Y-157.196
X97.572Y-174.669
X98.412Y-132.701
X99.03Y-115.044
X99.243Y-167.09
X100.719Y-142.595
X101.12Y-124.987
X101.55Y-176.985
X103.026Y-152.49
X103.211Y-134.929
X105.221Y-110.472
X105.302Y-144.872
X105.333Y-162.384
X107.312Y-120.415
X107.392Y-154.814
X107.64Y-172.279
X109.403Y-130.357
X109.483Y-164.757
X110.399Y-112.698
X111.493Y-140.3
X111.574Y-174.7
X112.273Y-122.684
X113.584Y-150.243
X114.146Y-132.67
X115.675Y-160.185
X116.019Y-142.656
X116.689Y-108.262
X117.766Y-170.128
X117.893Y-152.641
X118.563Y-118.248
X119.766Y-162.627
X120.436Y-128.234
X121.639Y-172.613
X121.816Y-110.608
X122.309Y-138.22
X123.471Y-120.632
X124.183Y-148.206
X125.126Y-130.656
X126.056Y-158.191
X126.781Y-140.681
X127.929Y-168.177
X128.201Y-106.31
X128.436Y-150.705
X129.856Y-116.335
X130.091Y-160.729
X131.511Y-126.359
X131.746Y-170.754
X133.166Y-136.383
X133.278Y-108.764
X134.714Y-118.822
X134.821Y-146.408
X136.15Y-128.88
X136.476Y-156.432
X137.586Y-138.938
X138.131Y-166.456
X139.022Y-148.996
X139.755Y-104.607
X140.458Y-159.054
X141.191Y-114.665
X141.894Y-169.112
X142.627Y-124.723
X144.063Y-134.781
X144.776Y-107.177
X145.499Y-144.839
X145.992Y-117.264
X146.935Y-154.897
X147.208Y-127.35
X148.371Y-164.955
X148.425Y-137.437
X149.641Y-147.524
X150.857Y-157.611
X151.343Y-103.162
X152.073Y-167.698
X152.559Y-113.249
X153.775Y-123.336
X154.991Y-133.423
X156.207Y-143.509
X156.3Y-105.836
X157.296Y-115.947
X157.424Y-153.596
X158.292Y-126.058
X158.64Y-163.683
X159.288Y-136.169
X160.283Y-146.28
X161.279Y-156.391
X162.275Y-166.502
X162.953Y-101.965
X163.948Y-112.076
X164.944Y-122.187
X165.94Y-132.298
X166.936Y-142.409
X167.859Y-104.752
X167.932Y-152.521
X168.634Y-114.882
X168.928Y-162.632
X169.409Y-125.012
X170.184Y-135.143
X170.959Y-145.273
X171.734Y-155.404
X172.509Y-165.534
X174.594Y-101.027
X175.369Y-111.157
X176.144Y-121.288
X176.919Y-131.418
X177.694Y-141.549
X178.469Y-151.679
X179.244Y-161.809
X179.432Y-103.924
X179.986Y-114.069
X180.54Y-124.214
X181.094Y-134.359
X181.648Y-144.504
X182.201Y-154.649
X182.755Y-164.793
X186.247Y-100.347
X186.801Y-110.492
X187.355Y-120.637
X187.909Y-130.782
X188.463Y-140.927
X189.017Y-151.072
X189.571Y-161.217
X191.02Y-103.344
X191.353Y-113.498
X191.685Y-123.653
X192.017Y-133.807
X192.35Y-143.962
X192.682Y-154.116
X193.015Y-164.271
X197.912Y-99.916
X198.244Y-110.071
X198.577Y-120.225
X198.909Y-130.38
X199.241Y-140.535
X199.574Y-150.689
X199.906Y-160.844
X202.623Y-103.014
X202.734Y-113.173
X202.845Y-123.333
X202.956Y-133.492
X203.066Y-143.651
X203.177Y-153.811
X203.288Y-163.97
X209.588Y-99.738
X209.699Y-109.897
X209.81Y-120.056
X209.92Y-130.216
X210.031Y-140.375
X210.142Y-150.535
X210.253Y-160.694
X213.58Y-163.895
X213.691Y-153.735
X213.802Y-143.576
X213.912Y-133.416
X214.023Y-123.257
X214.134Y-113.098
X214.245Y-102.938
X220.614Y-160.771
X220.725Y-150.612
X220.836Y-140.452
X220.947Y-130.293
X221.058Y-120.134
X221.168Y-109.974
X221.279Y-99.815
X223.85Y-164.042
X224.182Y-153.888
X224.515Y-143.733
X224.847Y-133.579
X225.18Y-123.424
X225.512Y-113.269
X225.845Y-103.115
X230.951Y-161.073
X231.283Y-150.918
X231.616Y-140.764
X231.948Y-130.609
X232.281Y-120.455
X232.613Y-110.3
X232.946Y-100.146
X234.122Y-164.417
X234.675Y-154.272
X235.229Y-144.127
X235.783Y-133.982
X236.337Y-123.837
X236.891Y-113.692
X237.445Y-103.547
X241.286Y-161.603
X241.839Y-151.458
X242.393Y-141.313
X242.947Y-131.168
X243.501Y-121.024
X244.055Y-110.879
X244.382Y-165.012
X244.609Y-100.734
X245.157Y-154.882
X245.932Y-144.752
X246.707Y-134.621
X247.482Y-124.491
X248.257Y-114.36
X249.032Y-104.23
X251.605Y-162.356
X252.38Y-152.225
X253.155Y-142.095
X253.93Y-131.965
X254.631Y-165.835
X254.706Y-121.834
X255.481Y-111.704
X255.627Y-155.724
X256.256Y-101.573
X256.623Y-145.612
X257.619Y-135.501
X258.615Y-125.39
X259.611Y-115.279
X260.606Y-105.168
X261.911Y-163.336
X262.907Y-153.225
X263.903Y-143.114
X264.862Y-166.874
X264.899Y-133.003
X265.895Y-122.892
X266.078Y-156.787
X266.891Y-112.781
X267.294Y-146.7
X267.886Y-102.67
X268.51Y-136.613
X269.727Y-126.526
X270.943Y-116.439
X272.159Y-106.352
X272.195Y-164.535
X273.411Y-154.448
X274.627Y-144.361
X275.067Y-168.142
X275.843Y-134.274
X276.503Y-158.084
X277.059Y-124.187
X277.939Y-148.026
X278.275Y-114.1
X279.375Y-137.968
X279.492Y-104.013
X280.811Y-127.91
X282.247Y-117.852
X282.449Y-165.964
X283.683Y-107.794
X283.885Y-155.906
X285.24Y-169.627
X285.321Y-145.848
X286.757Y-135.79
X286.895Y-159.603
X288.193Y-125.731
X288.55Y-149.579
X289.629Y-115.673
X290.205Y-139.554
X291.065Y-105.615
X291.86Y-129.53
X292.668Y-167.61
X293.515Y-119.506
X294.323Y-157.586
X295.17Y-109.481
X295.375Y-171.342
X295.978Y-147.562
X297.248Y-161.356
X297.633Y-137.537
X299.122Y-151.37
X299.288Y-127.513
X300.943Y-117.489
X300.995Y-141.385
X302.598Y-107.465
X302.845Y-169.487
X302.868Y-131.399
X304.718Y-159.502
X304.741Y-121.413
X305.472Y-173.273
X306.592Y-149.516
X306.615Y-111.427
X307.562Y-163.331
X308.465Y-139.53
X309.653Y-153.388
X310.338Y-129.544
X311.744Y-143.446
X312.211Y-119.558
X312.98Y-171.582
X313.834Y-133.503
X314.085Y-109.573
X315.071Y-161.64
X315.517Y-175.428
X315.925Y-123.56
X317.162Y-151.697
X317.824Y-165.533
X318.016Y-113.618
X319.252Y-141.755
X320.132Y-155.639
X321.343Y-131.812
X322.439Y-145.744
X323.061Y-173.901
X323.434Y-121.869
X324.746Y-135.849
X325.368Y-164.006
X325.518Y-177.799
X325.525Y-111.927
X327.053Y-125.955
X327.675Y-154.112
X328.041Y-167.957
X329.36Y-116.06
X329.982Y-144.217
X330.563Y-158.115
X332.289Y-134.323
X333.086Y-148.273
X333.094Y-176.437
X334.597Y-124.428
X335.608Y-138.431
X335.616Y-166.595
X336.904Y-114.533
X338.13Y-128.589
X338.138Y-156.753
X340.653Y-118.748
X340.661Y-146.911
X343.183Y-137.069
X345.706Y-127.227
X348.228Y-117.386
M30
