%TF.GenerationSoftware,KiCad,Pcbnew,9.0.4*%
%TF.CreationDate,2025-10-29T16:41:19+01:00*%
%TF.ProjectId,flipclock,666c6970-636c-46f6-936b-2e6b69636164,rev?*%
%TF.SameCoordinates,Original*%
%TF.FileFunction,Drillmap*%
%TF.FilePolarity,Positive*%
%FSLAX45Y45*%
G04 Gerber Fmt 4.5, Leading zero omitted, Abs format (unit mm)*
G04 Created by KiCad (PCBNEW 9.0.4) date 2025-10-29 16:41:19*
%MOMM*%
%LPD*%
G01*
G04 APERTURE LIST*
%ADD10C,0.050000*%
%ADD11C,0.200000*%
%ADD12C,0.100000*%
%ADD13C,0.150000*%
G04 APERTURE END LIST*
D10*
X6933000Y-10300000D02*
X9971474Y-21649646D01*
X9971474Y-21649646D02*
G75*
G02*
X32408619Y-21649671I11218526J-41870394D01*
G01*
X6933000Y-10300000D02*
G75*
G02*
X35449599Y-10300697I14257000J-53219990D01*
G01*
X32408619Y-21649671D02*
X35449599Y-10300697D01*
D11*
D12*
X19641445Y-16125041D02*
X19671445Y-16155041D01*
X19671445Y-16125041D02*
X19641445Y-16155041D01*
X19646356Y-16255041D02*
X19676356Y-16285041D01*
X19676356Y-16255041D02*
X19646356Y-16285041D01*
X19651268Y-16385041D02*
X19681268Y-16415041D01*
X19681268Y-16385041D02*
X19651268Y-16415041D01*
X19655423Y-16495041D02*
X19685423Y-16525041D01*
X19685423Y-16495041D02*
X19655423Y-16525041D01*
X20607479Y-15794961D02*
X20637479Y-15824961D01*
X20637479Y-15794961D02*
X20607479Y-15824961D01*
X20669341Y-15741781D02*
X20699341Y-15771781D01*
X20699341Y-15741781D02*
X20669341Y-15771781D01*
X20670595Y-15855041D02*
X20700595Y-15885041D01*
X20700595Y-15855041D02*
X20670595Y-15885041D01*
X20727948Y-15788449D02*
X20757948Y-15818449D01*
X20757948Y-15788449D02*
X20727948Y-15818449D01*
X21726687Y-14445041D02*
X21756687Y-14475041D01*
X21756687Y-14445041D02*
X21726687Y-14475041D01*
X21727890Y-14335041D02*
X21757890Y-14365041D01*
X21757890Y-14335041D02*
X21727890Y-14365041D01*
X21729312Y-14205041D02*
X21759312Y-14235041D01*
X21759312Y-14205041D02*
X21729312Y-14235041D01*
X21730891Y-14060692D02*
X21760891Y-14090692D01*
X21760891Y-14060692D02*
X21730891Y-14090692D01*
X22752982Y-13787908D02*
X22782982Y-13817908D01*
X22782982Y-13787908D02*
X22752982Y-13817908D01*
X22816594Y-13845041D02*
X22846594Y-13875041D01*
X22846594Y-13845041D02*
X22816594Y-13875041D01*
X22820270Y-13734729D02*
X22850270Y-13764729D01*
X22850270Y-13734729D02*
X22820270Y-13764729D01*
X22881047Y-13792250D02*
X22911047Y-13822250D01*
X22911047Y-13792250D02*
X22881047Y-13822250D01*
X23976949Y-12475041D02*
X24006949Y-12505041D01*
X24006949Y-12475041D02*
X23976949Y-12505041D01*
X23983510Y-12355041D02*
X24013510Y-12385041D01*
X24013510Y-12355041D02*
X23983510Y-12385041D01*
X23990071Y-12235041D02*
X24020071Y-12265041D01*
X24020071Y-12235041D02*
X23990071Y-12265041D01*
X23996631Y-12105041D02*
X24026631Y-12135041D01*
X24026631Y-12105041D02*
X23996631Y-12135041D01*
X25073893Y-11871606D02*
X25103893Y-11901606D01*
X25103893Y-11871606D02*
X25073893Y-11901606D01*
X25138002Y-11935041D02*
X25168002Y-11965041D01*
X25168002Y-11935041D02*
X25138002Y-11965041D01*
X25146161Y-11826905D02*
X25176161Y-11856905D01*
X25176161Y-11826905D02*
X25146161Y-11856905D01*
X25207506Y-11883183D02*
X25237506Y-11913183D01*
X25237506Y-11883183D02*
X25207506Y-11913183D01*
X26402657Y-10595041D02*
X26432657Y-10625041D01*
X26432657Y-10595041D02*
X26402657Y-10625041D01*
X26414418Y-10475041D02*
X26444418Y-10505041D01*
X26444418Y-10475041D02*
X26414418Y-10505041D01*
X26424219Y-10375041D02*
X26454219Y-10405041D01*
X26454219Y-10375041D02*
X26424219Y-10405041D01*
X26435000Y-10265041D02*
X26465000Y-10295041D01*
X26465000Y-10265041D02*
X26435000Y-10295041D01*
X27565545Y-10077992D02*
X27595545Y-10107992D01*
X27595545Y-10077992D02*
X27565545Y-10107992D01*
X27628492Y-10129002D02*
X27658492Y-10159002D01*
X27658492Y-10129002D02*
X27628492Y-10159002D01*
X27639212Y-10036770D02*
X27669212Y-10066770D01*
X27669212Y-10036770D02*
X27639212Y-10066770D01*
X27701207Y-10089931D02*
X27731207Y-10119931D01*
X27731207Y-10089931D02*
X27701207Y-10119931D01*
X28594530Y-11218297D02*
X28624530Y-11248297D01*
X28624530Y-11218297D02*
X28594530Y-11248297D01*
X28647506Y-11293241D02*
X28677506Y-11323241D01*
X28677506Y-11293241D02*
X28647506Y-11323241D01*
X28666160Y-11180854D02*
X28696160Y-11210854D01*
X28696160Y-11180854D02*
X28666160Y-11210854D01*
X28718254Y-11236204D02*
X28748254Y-11266204D01*
X28748254Y-11236204D02*
X28718254Y-11266204D01*
X29679394Y-12085041D02*
X29709394Y-12115041D01*
X29709394Y-12085041D02*
X29679394Y-12115041D01*
X29697558Y-11975041D02*
X29727558Y-12005041D01*
X29727558Y-11975041D02*
X29697558Y-12005041D01*
X29717374Y-11855041D02*
X29747374Y-11885041D01*
X29747374Y-11855041D02*
X29717374Y-11885041D01*
X29738024Y-11729995D02*
X29768024Y-11759995D01*
X29768024Y-11729995D02*
X29738024Y-11759995D01*
X30487841Y-13596176D02*
X30517841Y-13626176D01*
X30517841Y-13596176D02*
X30487841Y-13626176D01*
X30544997Y-13655041D02*
X30574997Y-13685041D01*
X30574997Y-13655041D02*
X30544997Y-13685041D01*
X30562209Y-13563407D02*
X30592209Y-13593407D01*
X30592209Y-13563407D02*
X30562209Y-13593407D01*
X30619524Y-13622223D02*
X30649524Y-13652223D01*
X30649524Y-13622223D02*
X30619524Y-13652223D01*
X31499242Y-14505041D02*
X31529242Y-14535041D01*
X31529242Y-14505041D02*
X31499242Y-14535041D01*
X31522590Y-14395041D02*
X31552590Y-14425041D01*
X31552590Y-14395041D02*
X31522590Y-14425041D01*
X31550183Y-14265041D02*
X31580183Y-14295041D01*
X31580183Y-14265041D02*
X31550183Y-14295041D01*
X31576394Y-14141553D02*
X31606394Y-14171553D01*
X31606394Y-14141553D02*
X31576394Y-14171553D01*
X32193602Y-16024420D02*
X32223602Y-16054420D01*
X32223602Y-16024420D02*
X32193602Y-16054420D01*
X32247470Y-16085041D02*
X32277470Y-16115041D01*
X32277470Y-16085041D02*
X32247470Y-16115041D01*
X32269573Y-15990776D02*
X32299573Y-16020776D01*
X32299573Y-15990776D02*
X32269573Y-16020776D01*
X32319497Y-16054809D02*
X32349497Y-16084809D01*
X32349497Y-16054809D02*
X32319497Y-16084809D01*
X33121683Y-16955041D02*
X33151683Y-16985041D01*
X33151683Y-16955041D02*
X33121683Y-16985041D01*
X33149841Y-16845041D02*
X33179841Y-16875041D01*
X33179841Y-16845041D02*
X33149841Y-16875041D01*
X33180558Y-16725041D02*
X33210558Y-16755041D01*
X33210558Y-16725041D02*
X33180558Y-16755041D01*
X33213062Y-16598065D02*
X33243062Y-16628065D01*
X33243062Y-16598065D02*
X33213062Y-16628065D01*
X11005000Y-19310041D02*
G75*
G02*
X10955000Y-19310041I-25000J0D01*
G01*
X10955000Y-19310041D02*
G75*
G02*
X11005000Y-19310041I25000J0D01*
G01*
X11020000Y-18805041D02*
G75*
G02*
X10970000Y-18805041I-25000J0D01*
G01*
X10970000Y-18805041D02*
G75*
G02*
X11020000Y-18805041I25000J0D01*
G01*
X11210000Y-18810041D02*
G75*
G02*
X11160000Y-18810041I-25000J0D01*
G01*
X11160000Y-18810041D02*
G75*
G02*
X11210000Y-18810041I25000J0D01*
G01*
X11216000Y-19307000D02*
G75*
G02*
X11166000Y-19307000I-25000J0D01*
G01*
X11166000Y-19307000D02*
G75*
G02*
X11216000Y-19307000I25000J0D01*
G01*
X11420000Y-19312000D02*
G75*
G02*
X11370000Y-19312000I-25000J0D01*
G01*
X11370000Y-19312000D02*
G75*
G02*
X11420000Y-19312000I25000J0D01*
G01*
X11425000Y-18810041D02*
G75*
G02*
X11375000Y-18810041I-25000J0D01*
G01*
X11375000Y-18810041D02*
G75*
G02*
X11425000Y-18810041I25000J0D01*
G01*
X11637000Y-19312000D02*
G75*
G02*
X11587000Y-19312000I-25000J0D01*
G01*
X11587000Y-19312000D02*
G75*
G02*
X11637000Y-19312000I25000J0D01*
G01*
X11640855Y-18814304D02*
G75*
G02*
X11590855Y-18814304I-25000J0D01*
G01*
X11590855Y-18814304D02*
G75*
G02*
X11640855Y-18814304I25000J0D01*
G01*
X12055000Y-19930000D02*
G75*
G02*
X12005000Y-19930000I-25000J0D01*
G01*
X12005000Y-19930000D02*
G75*
G02*
X12055000Y-19930000I25000J0D01*
G01*
X12845000Y-19415041D02*
G75*
G02*
X12795000Y-19415041I-25000J0D01*
G01*
X12795000Y-19415041D02*
G75*
G02*
X12845000Y-19415041I25000J0D01*
G01*
X12850000Y-19150041D02*
G75*
G02*
X12800000Y-19150041I-25000J0D01*
G01*
X12800000Y-19150041D02*
G75*
G02*
X12850000Y-19150041I25000J0D01*
G01*
X12864000Y-19721000D02*
G75*
G02*
X12814000Y-19721000I-25000J0D01*
G01*
X12814000Y-19721000D02*
G75*
G02*
X12864000Y-19721000I25000J0D01*
G01*
X13168000Y-19722000D02*
G75*
G02*
X13118000Y-19722000I-25000J0D01*
G01*
X13118000Y-19722000D02*
G75*
G02*
X13168000Y-19722000I25000J0D01*
G01*
X13245000Y-18065041D02*
G75*
G02*
X13195000Y-18065041I-25000J0D01*
G01*
X13195000Y-18065041D02*
G75*
G02*
X13245000Y-18065041I25000J0D01*
G01*
X13490000Y-18060041D02*
G75*
G02*
X13440000Y-18060041I-25000J0D01*
G01*
X13440000Y-18060041D02*
G75*
G02*
X13490000Y-18060041I25000J0D01*
G01*
X13555000Y-19413791D02*
G75*
G02*
X13505000Y-19413791I-25000J0D01*
G01*
X13505000Y-19413791D02*
G75*
G02*
X13555000Y-19413791I25000J0D01*
G01*
X13555000Y-19596291D02*
G75*
G02*
X13505000Y-19596291I-25000J0D01*
G01*
X13505000Y-19596291D02*
G75*
G02*
X13555000Y-19596291I25000J0D01*
G01*
X13665000Y-19230041D02*
G75*
G02*
X13615000Y-19230041I-25000J0D01*
G01*
X13615000Y-19230041D02*
G75*
G02*
X13665000Y-19230041I25000J0D01*
G01*
X13750000Y-18065041D02*
G75*
G02*
X13700000Y-18065041I-25000J0D01*
G01*
X13700000Y-18065041D02*
G75*
G02*
X13750000Y-18065041I25000J0D01*
G01*
X14037000Y-17994000D02*
G75*
G02*
X13987000Y-17994000I-25000J0D01*
G01*
X13987000Y-17994000D02*
G75*
G02*
X14037000Y-17994000I25000J0D01*
G01*
X14135000Y-19230041D02*
G75*
G02*
X14085000Y-19230041I-25000J0D01*
G01*
X14085000Y-19230041D02*
G75*
G02*
X14135000Y-19230041I25000J0D01*
G01*
X14395000Y-19230041D02*
G75*
G02*
X14345000Y-19230041I-25000J0D01*
G01*
X14345000Y-19230041D02*
G75*
G02*
X14395000Y-19230041I25000J0D01*
G01*
X22576618Y-17942500D02*
G75*
G02*
X22526618Y-17942500I-25000J0D01*
G01*
X22526618Y-17942500D02*
G75*
G02*
X22576618Y-17942500I25000J0D01*
G01*
X28763000Y-19948000D02*
G75*
G02*
X28713000Y-19948000I-25000J0D01*
G01*
X28713000Y-19948000D02*
G75*
G02*
X28763000Y-19948000I25000J0D01*
G01*
X17316584Y-17957943D02*
X17316584Y-18037943D01*
X17276584Y-17997943D02*
X17356584Y-17997943D01*
X17366448Y-19481127D02*
X17366448Y-19561127D01*
X17326448Y-19521127D02*
X17406448Y-19521127D01*
X17570448Y-17949633D02*
X17570448Y-18029633D01*
X17530448Y-17989633D02*
X17610448Y-17989633D01*
X17620312Y-19472817D02*
X17620312Y-19552817D01*
X17580312Y-19512817D02*
X17660312Y-19512817D01*
X17824312Y-17941322D02*
X17824312Y-18021322D01*
X17784312Y-17981322D02*
X17864312Y-17981322D01*
X17874176Y-19464506D02*
X17874176Y-19544506D01*
X17834176Y-19504506D02*
X17914176Y-19504506D01*
X18078176Y-17933012D02*
X18078176Y-18013012D01*
X18038176Y-17973012D02*
X18118176Y-17973012D01*
X18128040Y-19456196D02*
X18128040Y-19536196D01*
X18088040Y-19496196D02*
X18168040Y-19496196D01*
X18332040Y-17924701D02*
X18332040Y-18004701D01*
X18292040Y-17964701D02*
X18372040Y-17964701D01*
X18381904Y-19447885D02*
X18381904Y-19527885D01*
X18341904Y-19487885D02*
X18421904Y-19487885D01*
X18585904Y-17916390D02*
X18585904Y-17996390D01*
X18545904Y-17956390D02*
X18625904Y-17956390D01*
X18635768Y-19439574D02*
X18635768Y-19519574D01*
X18595768Y-19479574D02*
X18675768Y-19479574D01*
X18839768Y-17908080D02*
X18839768Y-17988080D01*
X18799768Y-17948080D02*
X18879768Y-17948080D01*
X18889632Y-19431264D02*
X18889632Y-19511264D01*
X18849632Y-19471264D02*
X18929632Y-19471264D01*
X19093632Y-17899769D02*
X19093632Y-17979769D01*
X19053632Y-17939769D02*
X19133632Y-17939769D01*
X19143496Y-19422953D02*
X19143496Y-19502953D01*
X19103496Y-19462953D02*
X19183496Y-19462953D01*
X19347496Y-17891458D02*
X19347496Y-17971458D01*
X19307496Y-17931458D02*
X19387496Y-17931458D01*
X19397360Y-19414642D02*
X19397360Y-19494642D01*
X19357360Y-19454642D02*
X19437360Y-19454642D01*
X19601360Y-17883148D02*
X19601360Y-17963148D01*
X19561360Y-17923148D02*
X19641360Y-17923148D01*
X19651224Y-19406332D02*
X19651224Y-19486332D01*
X19611224Y-19446332D02*
X19691224Y-19446332D01*
X19855224Y-17874837D02*
X19855224Y-17954837D01*
X19815224Y-17914837D02*
X19895224Y-17914837D01*
X19905088Y-19398021D02*
X19905088Y-19478021D01*
X19865088Y-19438021D02*
X19945088Y-19438021D01*
X20109088Y-17866526D02*
X20109088Y-17946526D01*
X20069088Y-17906526D02*
X20149088Y-17906526D01*
X20158952Y-19389710D02*
X20158952Y-19469710D01*
X20118952Y-19429710D02*
X20198952Y-19429710D01*
X20362952Y-17858216D02*
X20362952Y-17938216D01*
X20322952Y-17898216D02*
X20402952Y-17898216D01*
X20412816Y-19381400D02*
X20412816Y-19461400D01*
X20372816Y-19421400D02*
X20452816Y-19421400D01*
X20616816Y-17849905D02*
X20616816Y-17929905D01*
X20576816Y-17889905D02*
X20656816Y-17889905D01*
X20666680Y-19373089D02*
X20666680Y-19453089D01*
X20626680Y-19413089D02*
X20706680Y-19413089D01*
X20870680Y-17841594D02*
X20870680Y-17921594D01*
X20830680Y-17881594D02*
X20910680Y-17881594D01*
X20920544Y-19364778D02*
X20920544Y-19444778D01*
X20880544Y-19404778D02*
X20960544Y-19404778D01*
X21124544Y-17833284D02*
X21124544Y-17913284D01*
X21084544Y-17873284D02*
X21164544Y-17873284D01*
X21174408Y-19356468D02*
X21174408Y-19436468D01*
X21134408Y-19396468D02*
X21214408Y-19396468D01*
X21378408Y-17824973D02*
X21378408Y-17904973D01*
X21338408Y-17864973D02*
X21418408Y-17864973D01*
X21428272Y-19348157D02*
X21428272Y-19428157D01*
X21388272Y-19388157D02*
X21468272Y-19388157D01*
X21632272Y-17816662D02*
X21632272Y-17896662D01*
X21592272Y-17856662D02*
X21672272Y-17856662D01*
X21682136Y-19339846D02*
X21682136Y-19419846D01*
X21642136Y-19379846D02*
X21722136Y-19379846D01*
X21886136Y-17808352D02*
X21886136Y-17888352D01*
X21846136Y-17848352D02*
X21926136Y-17848352D01*
X21936000Y-19331536D02*
X21936000Y-19411536D01*
X21896000Y-19371536D02*
X21976000Y-19371536D01*
X22140000Y-17800041D02*
X22140000Y-17880041D01*
X22100000Y-17840041D02*
X22180000Y-17840041D01*
X22189864Y-19323225D02*
X22189864Y-19403225D01*
X22149864Y-19363225D02*
X22229864Y-19363225D01*
X23132853Y-19337739D02*
X23132853Y-19417739D01*
X23092853Y-19377739D02*
X23172853Y-19377739D01*
X23282231Y-17821078D02*
X23282231Y-17901078D01*
X23242231Y-17861078D02*
X23322231Y-17861078D01*
X23385630Y-19362636D02*
X23385630Y-19442636D01*
X23345630Y-19402636D02*
X23425630Y-19402636D01*
X23535008Y-17845974D02*
X23535008Y-17925974D01*
X23495008Y-17885974D02*
X23575008Y-17885974D01*
X23638407Y-19387532D02*
X23638407Y-19467532D01*
X23598407Y-19427532D02*
X23678407Y-19427532D01*
X23787785Y-17870870D02*
X23787785Y-17950870D01*
X23747785Y-17910870D02*
X23827785Y-17910870D01*
X23891183Y-19412428D02*
X23891183Y-19492428D01*
X23851183Y-19452428D02*
X23931183Y-19452428D01*
X24040562Y-17895767D02*
X24040562Y-17975767D01*
X24000562Y-17935767D02*
X24080562Y-17935767D01*
X24143960Y-19437325D02*
X24143960Y-19517325D01*
X24103960Y-19477325D02*
X24183960Y-19477325D01*
X24293339Y-17920663D02*
X24293339Y-18000663D01*
X24253339Y-17960663D02*
X24333339Y-17960663D01*
X24396737Y-19462221D02*
X24396737Y-19542221D01*
X24356737Y-19502221D02*
X24436737Y-19502221D01*
X24546115Y-17945559D02*
X24546115Y-18025559D01*
X24506115Y-17985559D02*
X24586115Y-17985559D01*
X24649514Y-19487117D02*
X24649514Y-19567117D01*
X24609514Y-19527117D02*
X24689514Y-19527117D01*
X24798892Y-17970456D02*
X24798892Y-18050456D01*
X24758892Y-18010456D02*
X24838892Y-18010456D01*
X24902291Y-19512014D02*
X24902291Y-19592014D01*
X24862291Y-19552014D02*
X24942291Y-19552014D01*
X25051670Y-17995352D02*
X25051670Y-18075352D01*
X25011670Y-18035352D02*
X25091670Y-18035352D01*
X25155068Y-19536910D02*
X25155068Y-19616910D01*
X25115068Y-19576910D02*
X25195068Y-19576910D01*
X25304446Y-18020248D02*
X25304446Y-18100248D01*
X25264446Y-18060248D02*
X25344446Y-18060248D01*
X25407845Y-19561806D02*
X25407845Y-19641806D01*
X25367845Y-19601806D02*
X25447845Y-19601806D01*
X25557223Y-18045145D02*
X25557223Y-18125145D01*
X25517223Y-18085145D02*
X25597223Y-18085145D01*
X25660622Y-19586703D02*
X25660622Y-19666703D01*
X25620622Y-19626703D02*
X25700622Y-19626703D01*
X25810000Y-18070041D02*
X25810000Y-18150041D01*
X25770000Y-18110041D02*
X25850000Y-18110041D01*
X25913399Y-19611599D02*
X25913399Y-19691599D01*
X25873399Y-19651599D02*
X25953399Y-19651599D01*
X26062777Y-18094938D02*
X26062777Y-18174938D01*
X26022777Y-18134938D02*
X26102777Y-18134938D01*
X26166176Y-19636495D02*
X26166176Y-19716495D01*
X26126176Y-19676495D02*
X26206176Y-19676495D01*
X26315554Y-18119834D02*
X26315554Y-18199834D01*
X26275554Y-18159834D02*
X26355554Y-18159834D01*
X26418953Y-19661392D02*
X26418953Y-19741392D01*
X26378953Y-19701392D02*
X26458953Y-19701392D01*
X26568331Y-18144730D02*
X26568331Y-18224730D01*
X26528331Y-18184730D02*
X26608331Y-18184730D01*
X26671730Y-19686288D02*
X26671730Y-19766288D01*
X26631730Y-19726288D02*
X26711730Y-19726288D01*
X26821108Y-18169627D02*
X26821108Y-18249627D01*
X26781108Y-18209627D02*
X26861108Y-18209627D01*
X26924507Y-19711184D02*
X26924507Y-19791184D01*
X26884507Y-19751184D02*
X26964507Y-19751184D01*
X27073885Y-18194523D02*
X27073885Y-18274523D01*
X27033885Y-18234523D02*
X27113885Y-18234523D01*
X27177283Y-19736081D02*
X27177283Y-19816081D01*
X27137283Y-19776081D02*
X27217283Y-19776081D01*
X27326662Y-18219419D02*
X27326662Y-18299419D01*
X27286662Y-18259419D02*
X27366662Y-18259419D01*
X27430060Y-19760977D02*
X27430060Y-19840977D01*
X27390060Y-19800977D02*
X27470060Y-19800977D01*
X27579439Y-18244316D02*
X27579439Y-18324316D01*
X27539439Y-18284316D02*
X27619439Y-18284316D01*
X27682837Y-19785874D02*
X27682837Y-19865874D01*
X27642837Y-19825874D02*
X27722837Y-19825874D01*
X27832215Y-18269212D02*
X27832215Y-18349212D01*
X27792215Y-18309212D02*
X27872215Y-18309212D01*
X27935614Y-19810770D02*
X27935614Y-19890770D01*
X27895614Y-19850770D02*
X27975614Y-19850770D01*
X28084992Y-18294108D02*
X28084992Y-18374108D01*
X28044992Y-18334108D02*
X28124992Y-18334108D01*
X10267856Y-19336295D02*
X10267856Y-19265584D01*
X10197145Y-19265584D01*
X10197145Y-19336295D01*
X10267856Y-19336295D01*
X10333596Y-19581640D02*
X10333596Y-19510929D01*
X10262885Y-19510929D01*
X10262885Y-19581640D01*
X10333596Y-19581640D01*
X10399336Y-19826985D02*
X10399336Y-19756274D01*
X10328625Y-19756274D01*
X10328625Y-19826985D01*
X10399336Y-19826985D01*
X10465076Y-20072331D02*
X10465076Y-20001619D01*
X10394365Y-20001619D01*
X10394365Y-20072331D01*
X10465076Y-20072331D01*
X10513202Y-19270555D02*
X10513202Y-19199844D01*
X10442490Y-19199844D01*
X10442490Y-19270555D01*
X10513202Y-19270555D01*
X10578942Y-19515900D02*
X10578942Y-19445189D01*
X10508230Y-19445189D01*
X10508230Y-19515900D01*
X10578942Y-19515900D01*
X10644682Y-19761245D02*
X10644682Y-19690534D01*
X10573970Y-19690534D01*
X10573970Y-19761245D01*
X10644682Y-19761245D01*
X10710422Y-20006591D02*
X10710422Y-19935879D01*
X10639710Y-19935879D01*
X10639710Y-20006591D01*
X10710422Y-20006591D01*
X11554356Y-18374356D02*
X11554356Y-18303644D01*
X11483644Y-18303644D01*
X11483644Y-18374356D01*
X11554356Y-18374356D01*
X11808356Y-18374356D02*
X11808356Y-18303644D01*
X11737644Y-18303644D01*
X11737644Y-18374356D01*
X11808356Y-18374356D01*
X12062356Y-18374356D02*
X12062356Y-18303644D01*
X11991644Y-18303644D01*
X11991644Y-18374356D01*
X12062356Y-18374356D01*
X12667356Y-20356356D02*
X12667356Y-20285644D01*
X12596644Y-20285644D01*
X12596644Y-20356356D01*
X12667356Y-20356356D01*
X12921356Y-20356356D02*
X12921356Y-20285644D01*
X12850644Y-20285644D01*
X12850644Y-20356356D01*
X12921356Y-20356356D01*
X14146356Y-19610397D02*
X14146356Y-19539685D01*
X14075644Y-19539685D01*
X14075644Y-19610397D01*
X14146356Y-19610397D01*
X14400356Y-19610397D02*
X14400356Y-19539685D01*
X14329644Y-19539685D01*
X14329644Y-19610397D01*
X14400356Y-19610397D01*
X14654356Y-19610397D02*
X14654356Y-19539685D01*
X14583644Y-19539685D01*
X14583644Y-19610397D01*
X14654356Y-19610397D01*
X14908356Y-19610397D02*
X14908356Y-19539685D01*
X14837644Y-19539685D01*
X14837644Y-19610397D01*
X14908356Y-19610397D01*
X15162356Y-19610397D02*
X15162356Y-19539685D01*
X15091644Y-19539685D01*
X15091644Y-19610397D01*
X15162356Y-19610397D01*
X16156356Y-17823356D02*
X16156356Y-17752644D01*
X16085644Y-17752644D01*
X16085644Y-17823356D01*
X16156356Y-17823356D01*
X16400356Y-19505356D02*
X16400356Y-19434644D01*
X16329644Y-19434644D01*
X16329644Y-19505356D01*
X16400356Y-19505356D01*
X16410356Y-17823356D02*
X16410356Y-17752644D01*
X16339644Y-17752644D01*
X16339644Y-17823356D01*
X16410356Y-17823356D01*
X16654356Y-19505356D02*
X16654356Y-19434644D01*
X16583644Y-19434644D01*
X16583644Y-19505356D01*
X16654356Y-19505356D01*
X16664356Y-17823356D02*
X16664356Y-17752644D01*
X16593644Y-17752644D01*
X16593644Y-17823356D01*
X16664356Y-17823356D01*
X29681356Y-19981356D02*
X29681356Y-19910644D01*
X29610644Y-19910644D01*
X29610644Y-19981356D01*
X29681356Y-19981356D01*
X29935356Y-19981356D02*
X29935356Y-19910644D01*
X29864644Y-19910644D01*
X29864644Y-19981356D01*
X29935356Y-19981356D01*
X30189356Y-19981356D02*
X30189356Y-19910644D01*
X30118644Y-19910644D01*
X30118644Y-19981356D01*
X30189356Y-19981356D01*
X31747821Y-20008736D02*
X31747821Y-19938025D01*
X31677109Y-19938025D01*
X31677109Y-20008736D01*
X31747821Y-20008736D01*
X31808176Y-19762011D02*
X31808176Y-19691300D01*
X31737464Y-19691300D01*
X31737464Y-19762011D01*
X31808176Y-19762011D01*
X31868531Y-19515286D02*
X31868531Y-19444574D01*
X31797819Y-19444574D01*
X31797819Y-19515286D01*
X31868531Y-19515286D01*
X31928886Y-19268561D02*
X31928886Y-19197849D01*
X31858174Y-19197849D01*
X31858174Y-19268561D01*
X31928886Y-19268561D01*
X31994546Y-20069091D02*
X31994546Y-19998380D01*
X31923834Y-19998380D01*
X31923834Y-20069091D01*
X31994546Y-20069091D01*
X32054901Y-19822366D02*
X32054901Y-19751655D01*
X31984189Y-19751655D01*
X31984189Y-19822366D01*
X32054901Y-19822366D01*
X32115256Y-19575641D02*
X32115256Y-19504929D01*
X32044544Y-19504929D01*
X32044544Y-19575641D01*
X32115256Y-19575641D01*
X32175611Y-19328916D02*
X32175611Y-19258204D01*
X32104899Y-19258204D01*
X32104899Y-19328916D01*
X32175611Y-19328916D01*
D13*
X7645140Y-12120549D02*
X7720140Y-12045549D01*
X7645140Y-11970549D01*
X7570140Y-12045549D01*
X7645140Y-12120549D01*
X7897379Y-13104739D02*
X7972379Y-13029739D01*
X7897379Y-12954739D01*
X7822379Y-13029739D01*
X7897379Y-13104739D01*
X8149619Y-14088930D02*
X8224619Y-14013930D01*
X8149619Y-13938930D01*
X8074619Y-14013930D01*
X8149619Y-14088930D01*
X8243778Y-11636780D02*
X8318778Y-11561780D01*
X8243778Y-11486780D01*
X8168778Y-11561780D01*
X8243778Y-11636780D01*
X8401858Y-15073121D02*
X8476858Y-14998121D01*
X8401858Y-14923121D01*
X8326858Y-14998121D01*
X8401858Y-15073121D01*
X8496018Y-12620971D02*
X8571018Y-12545971D01*
X8496018Y-12470971D01*
X8421018Y-12545971D01*
X8496018Y-12620971D01*
X8654098Y-16057311D02*
X8729098Y-15982311D01*
X8654098Y-15907311D01*
X8579098Y-15982311D01*
X8654098Y-16057311D01*
X8748257Y-13605162D02*
X8823257Y-13530162D01*
X8748257Y-13455162D01*
X8673257Y-13530162D01*
X8748257Y-13605162D01*
X8770709Y-11836733D02*
X8845709Y-11761733D01*
X8770709Y-11686733D01*
X8695709Y-11761733D01*
X8770709Y-11836733D01*
X8906337Y-17041502D02*
X8981337Y-16966502D01*
X8906337Y-16891502D01*
X8831337Y-16966502D01*
X8906337Y-17041502D01*
X9000497Y-14589352D02*
X9075497Y-14514352D01*
X9000497Y-14439352D01*
X8925497Y-14514352D01*
X9000497Y-14589352D01*
X9001418Y-12826192D02*
X9076418Y-12751192D01*
X9001418Y-12676192D01*
X8926418Y-12751192D01*
X9001418Y-12826192D01*
X9158577Y-18025693D02*
X9233577Y-17950693D01*
X9158577Y-17875693D01*
X9083577Y-17950693D01*
X9158577Y-18025693D01*
X9232128Y-13815651D02*
X9307128Y-13740651D01*
X9232128Y-13665651D01*
X9157128Y-13740651D01*
X9232128Y-13815651D01*
X9252736Y-15573543D02*
X9327736Y-15498543D01*
X9252736Y-15423543D01*
X9177736Y-15498543D01*
X9252736Y-15573543D01*
X9379758Y-11366139D02*
X9454758Y-11291139D01*
X9379758Y-11216139D01*
X9304758Y-11291139D01*
X9379758Y-11366139D01*
X9462837Y-14805110D02*
X9537837Y-14730110D01*
X9462837Y-14655110D01*
X9387837Y-14730110D01*
X9462837Y-14805110D01*
X9504976Y-16557734D02*
X9579976Y-16482734D01*
X9504976Y-16407734D01*
X9429976Y-16482734D01*
X9504976Y-16557734D01*
X9610468Y-12355598D02*
X9685468Y-12280598D01*
X9610468Y-12205598D01*
X9535468Y-12280598D01*
X9610468Y-12355598D01*
X9693547Y-15794569D02*
X9768547Y-15719569D01*
X9693547Y-15644569D01*
X9618547Y-15719569D01*
X9693547Y-15794569D01*
X9757215Y-17541924D02*
X9832215Y-17466924D01*
X9757215Y-17391924D01*
X9682215Y-17466924D01*
X9757215Y-17541924D01*
X9841177Y-13345057D02*
X9916177Y-13270057D01*
X9841177Y-13195057D01*
X9766177Y-13270057D01*
X9841177Y-13345057D01*
X9902963Y-11579422D02*
X9977963Y-11504422D01*
X9902963Y-11429422D01*
X9827963Y-11504422D01*
X9902963Y-11579422D01*
X9924256Y-16784028D02*
X9999256Y-16709028D01*
X9924256Y-16634028D01*
X9849256Y-16709028D01*
X9924256Y-16784028D01*
X10071887Y-14334516D02*
X10146887Y-14259516D01*
X10071887Y-14184516D01*
X9996887Y-14259516D01*
X10071887Y-14334516D01*
X10112033Y-12573678D02*
X10187033Y-12498678D01*
X10112033Y-12423678D01*
X10037033Y-12498678D01*
X10112033Y-12573678D01*
X10154966Y-17773487D02*
X10229966Y-17698487D01*
X10154966Y-17623487D01*
X10079966Y-17698487D01*
X10154966Y-17773487D01*
X10302596Y-15323975D02*
X10377596Y-15248975D01*
X10302596Y-15173975D01*
X10227596Y-15248975D01*
X10302596Y-15323975D01*
X10321102Y-13567935D02*
X10396102Y-13492935D01*
X10321102Y-13417935D01*
X10246102Y-13492935D01*
X10321102Y-13567935D01*
X10522134Y-11122226D02*
X10597134Y-11047226D01*
X10522134Y-10972226D01*
X10447134Y-11047226D01*
X10522134Y-11122226D01*
X10530172Y-14562191D02*
X10605172Y-14487191D01*
X10530172Y-14412191D01*
X10455172Y-14487191D01*
X10530172Y-14562191D01*
X10533306Y-16313434D02*
X10608306Y-16238434D01*
X10533306Y-16163434D01*
X10458306Y-16238434D01*
X10533306Y-16313434D01*
X10731203Y-12116483D02*
X10806203Y-12041483D01*
X10731203Y-11966483D01*
X10656203Y-12041483D01*
X10731203Y-12116483D01*
X10739242Y-15556448D02*
X10814242Y-15481448D01*
X10739242Y-15406448D01*
X10664242Y-15481448D01*
X10739242Y-15556448D01*
X10764015Y-17302893D02*
X10839015Y-17227893D01*
X10764015Y-17152893D01*
X10689015Y-17227893D01*
X10764015Y-17302893D01*
X10940273Y-13110739D02*
X11015273Y-13035739D01*
X10940273Y-12960739D01*
X10865273Y-13035739D01*
X10940273Y-13110739D01*
X10948311Y-16550704D02*
X11023311Y-16475704D01*
X10948311Y-16400704D01*
X10873311Y-16475704D01*
X10948311Y-16550704D01*
X11039934Y-11344811D02*
X11114934Y-11269811D01*
X11039934Y-11194811D01*
X10964934Y-11269811D01*
X11039934Y-11344811D01*
X11149343Y-14104996D02*
X11224342Y-14029996D01*
X11149343Y-13954996D01*
X11074343Y-14029996D01*
X11149343Y-14104996D01*
X11157381Y-17544961D02*
X11232381Y-17469961D01*
X11157381Y-17394961D01*
X11082381Y-17469961D01*
X11157381Y-17544961D01*
X11227264Y-12343392D02*
X11302264Y-12268392D01*
X11227264Y-12193392D01*
X11152264Y-12268392D01*
X11227264Y-12343392D01*
X11358412Y-15099252D02*
X11433412Y-15024252D01*
X11358412Y-14949252D01*
X11283412Y-15024252D01*
X11358412Y-15099252D01*
X11414594Y-13341973D02*
X11489594Y-13266973D01*
X11414594Y-13191973D01*
X11339594Y-13266973D01*
X11414594Y-13341973D01*
X11567482Y-16093508D02*
X11642482Y-16018508D01*
X11567482Y-15943508D01*
X11492482Y-16018508D01*
X11567482Y-16093508D01*
X11601925Y-14340553D02*
X11676925Y-14265553D01*
X11601925Y-14190553D01*
X11526925Y-14265553D01*
X11601925Y-14340553D01*
X11668931Y-10901232D02*
X11743931Y-10826232D01*
X11668931Y-10751232D01*
X11593931Y-10826232D01*
X11668931Y-10901232D01*
X11776551Y-17087765D02*
X11851551Y-17012765D01*
X11776551Y-16937765D01*
X11701551Y-17012765D01*
X11776551Y-17087765D01*
X11789255Y-15339134D02*
X11864255Y-15264134D01*
X11789255Y-15189134D01*
X11714255Y-15264134D01*
X11789255Y-15339134D01*
X11856261Y-11899812D02*
X11931261Y-11824812D01*
X11856261Y-11749812D01*
X11781261Y-11824812D01*
X11856261Y-11899812D01*
X11976585Y-16337715D02*
X12051585Y-16262715D01*
X11976585Y-16187715D01*
X11901585Y-16262715D01*
X11976585Y-16337715D01*
X12043591Y-12898393D02*
X12118591Y-12823393D01*
X12043591Y-12748393D01*
X11968591Y-12823393D01*
X12043591Y-12898393D01*
X12163916Y-17336295D02*
X12238916Y-17261295D01*
X12163916Y-17186295D01*
X12088916Y-17261295D01*
X12163916Y-17336295D01*
X12181563Y-11135788D02*
X12256563Y-11060788D01*
X12181563Y-10985788D01*
X12106563Y-11060788D01*
X12181563Y-11135788D01*
X12230922Y-13896973D02*
X12305922Y-13821973D01*
X12230922Y-13746973D01*
X12155922Y-13821973D01*
X12230922Y-13896973D01*
X12347065Y-12138217D02*
X12422065Y-12063217D01*
X12347065Y-11988217D01*
X12272065Y-12063217D01*
X12347065Y-12138217D01*
X12418252Y-14895554D02*
X12493252Y-14820554D01*
X12418252Y-14745554D01*
X12343252Y-14820554D01*
X12418252Y-14895554D01*
X12512567Y-13140647D02*
X12587567Y-13065647D01*
X12512567Y-12990647D01*
X12437567Y-13065647D01*
X12512567Y-13140647D01*
X12605582Y-15894135D02*
X12680582Y-15819135D01*
X12605582Y-15744135D01*
X12530582Y-15819135D01*
X12605582Y-15894135D01*
X12678069Y-14143077D02*
X12753069Y-14068077D01*
X12678069Y-13993077D01*
X12603069Y-14068077D01*
X12678069Y-14143077D01*
X12792912Y-16892716D02*
X12867912Y-16817716D01*
X12792912Y-16742715D01*
X12717912Y-16817716D01*
X12792912Y-16892716D01*
X12820087Y-10706035D02*
X12895087Y-10631035D01*
X12820087Y-10556035D01*
X12745087Y-10631035D01*
X12820087Y-10706035D01*
X12843570Y-15145506D02*
X12918570Y-15070506D01*
X12843570Y-14995506D01*
X12768570Y-15070506D01*
X12843570Y-15145506D01*
X12985589Y-11708465D02*
X13060589Y-11633465D01*
X12985589Y-11558465D01*
X12910589Y-11633465D01*
X12985589Y-11708465D01*
X13009072Y-16147936D02*
X13084072Y-16072936D01*
X13009072Y-15997936D01*
X12934072Y-16072936D01*
X13009072Y-16147936D01*
X13151091Y-12710894D02*
X13226091Y-12635894D01*
X13151091Y-12560894D01*
X13076091Y-12635894D01*
X13151091Y-12710894D01*
X13174574Y-17150366D02*
X13249574Y-17075366D01*
X13174574Y-17000366D01*
X13099574Y-17075366D01*
X13174574Y-17150366D01*
X13316592Y-13713324D02*
X13391592Y-13638324D01*
X13316592Y-13563324D01*
X13241592Y-13638324D01*
X13316592Y-13713324D01*
X13327794Y-10951414D02*
X13402794Y-10876414D01*
X13327794Y-10801414D01*
X13252794Y-10876414D01*
X13327794Y-10951414D01*
X13471388Y-11957215D02*
X13546388Y-11882215D01*
X13471388Y-11807215D01*
X13396388Y-11882215D01*
X13471388Y-11957215D01*
X13482094Y-14715754D02*
X13557094Y-14640754D01*
X13482094Y-14565754D01*
X13407094Y-14640754D01*
X13482094Y-14715754D01*
X13614983Y-12963016D02*
X13689983Y-12888016D01*
X13614983Y-12813016D01*
X13539983Y-12888016D01*
X13614983Y-12963016D01*
X13647596Y-15718183D02*
X13722596Y-15643183D01*
X13647596Y-15568183D01*
X13572596Y-15643183D01*
X13647596Y-15718183D01*
X13758577Y-13968818D02*
X13833577Y-13893818D01*
X13758577Y-13818818D01*
X13683577Y-13893818D01*
X13758577Y-13968818D01*
X13813098Y-16720613D02*
X13888098Y-16645613D01*
X13813098Y-16570613D01*
X13738098Y-16645613D01*
X13813098Y-16720613D01*
X13902172Y-14974619D02*
X13977172Y-14899619D01*
X13902172Y-14824619D01*
X13827172Y-14899619D01*
X13902172Y-14974619D01*
X13975541Y-10535692D02*
X14050541Y-10460692D01*
X13975541Y-10385692D01*
X13900541Y-10460692D01*
X13975541Y-10535692D01*
X14045766Y-15980421D02*
X14120766Y-15905421D01*
X14045766Y-15830421D01*
X13970766Y-15905421D01*
X14045766Y-15980421D01*
X14119135Y-11541494D02*
X14194135Y-11466494D01*
X14119135Y-11391494D01*
X14044135Y-11466494D01*
X14119135Y-11541494D01*
X14189361Y-16986222D02*
X14264361Y-16911222D01*
X14189361Y-16836222D01*
X14114361Y-16911222D01*
X14189361Y-16986222D01*
X14262730Y-12547296D02*
X14337730Y-12472296D01*
X14262730Y-12397296D01*
X14187730Y-12472296D01*
X14262730Y-12547296D01*
X14406324Y-13553097D02*
X14481324Y-13478097D01*
X14406324Y-13403097D01*
X14331324Y-13478097D01*
X14406324Y-13553097D01*
X14477611Y-10792661D02*
X14552611Y-10717661D01*
X14477611Y-10642661D01*
X14402611Y-10717661D01*
X14477611Y-10792661D01*
X14549919Y-14558898D02*
X14624919Y-14483898D01*
X14549919Y-14408898D01*
X14474919Y-14483898D01*
X14549919Y-14558898D01*
X14599230Y-11801355D02*
X14674230Y-11726355D01*
X14599230Y-11651355D01*
X14524230Y-11726355D01*
X14599230Y-11801355D01*
X14693513Y-15564700D02*
X14768513Y-15489700D01*
X14693513Y-15414700D01*
X14618513Y-15489700D01*
X14693513Y-15564700D01*
X14720849Y-12810050D02*
X14795849Y-12735050D01*
X14720849Y-12660050D01*
X14645849Y-12735050D01*
X14720849Y-12810050D01*
X14837108Y-16570501D02*
X14912108Y-16495501D01*
X14837108Y-16420501D01*
X14762108Y-16495501D01*
X14837108Y-16570501D01*
X14842468Y-13818744D02*
X14917468Y-13743744D01*
X14842468Y-13668744D01*
X14767468Y-13743744D01*
X14842468Y-13818744D01*
X14964087Y-14827439D02*
X15039087Y-14752439D01*
X14964087Y-14677439D01*
X14889087Y-14752439D01*
X14964087Y-14827439D01*
X15085706Y-15836134D02*
X15160706Y-15761134D01*
X15085706Y-15686134D01*
X15010706Y-15761134D01*
X15085706Y-15836134D01*
X15134273Y-10391169D02*
X15209273Y-10316169D01*
X15134273Y-10241169D01*
X15059273Y-10316169D01*
X15134273Y-10391169D01*
X15207324Y-16844828D02*
X15282324Y-16769828D01*
X15207324Y-16694828D01*
X15132324Y-16769828D01*
X15207324Y-16844828D01*
X15255891Y-11399864D02*
X15330891Y-11324864D01*
X15255891Y-11249864D01*
X15180891Y-11324864D01*
X15255891Y-11399864D01*
X15377510Y-12408558D02*
X15452510Y-12333558D01*
X15377510Y-12258558D01*
X15302510Y-12333558D01*
X15377510Y-12408558D01*
X15499129Y-13417253D02*
X15574129Y-13342253D01*
X15499129Y-13267253D01*
X15424129Y-13342253D01*
X15499129Y-13417253D01*
X15620748Y-14425947D02*
X15695748Y-14350947D01*
X15620748Y-14275947D01*
X15545748Y-14350947D01*
X15620748Y-14425947D01*
X15630000Y-10658588D02*
X15705000Y-10583588D01*
X15630000Y-10508588D01*
X15555000Y-10583588D01*
X15630000Y-10658588D01*
X15729586Y-11669696D02*
X15804586Y-11594696D01*
X15729586Y-11519696D01*
X15654586Y-11594696D01*
X15729586Y-11669696D01*
X15742367Y-15434642D02*
X15817367Y-15359642D01*
X15742367Y-15284642D01*
X15667367Y-15359642D01*
X15742367Y-15434642D01*
X15829171Y-12680803D02*
X15904171Y-12605803D01*
X15829171Y-12530803D01*
X15754171Y-12605803D01*
X15829171Y-12680803D01*
X15863986Y-16443337D02*
X15938986Y-16368337D01*
X15863986Y-16293337D01*
X15788986Y-16368337D01*
X15863986Y-16443337D01*
X15928757Y-13691911D02*
X16003757Y-13616911D01*
X15928757Y-13541911D01*
X15853757Y-13616911D01*
X15928757Y-13691911D01*
X16028342Y-14703019D02*
X16103342Y-14628019D01*
X16028342Y-14553019D01*
X15953342Y-14628019D01*
X16028342Y-14703019D01*
X16127927Y-15714126D02*
X16202927Y-15639126D01*
X16127927Y-15564126D01*
X16052927Y-15639126D01*
X16127927Y-15714126D01*
X16227513Y-16725234D02*
X16302513Y-16650234D01*
X16227513Y-16575234D01*
X16152513Y-16650234D01*
X16227513Y-16725234D01*
X16295264Y-10271517D02*
X16370264Y-10196517D01*
X16295264Y-10121517D01*
X16220264Y-10196517D01*
X16295264Y-10271517D01*
X16394850Y-11282625D02*
X16469850Y-11207625D01*
X16394850Y-11132625D01*
X16319850Y-11207625D01*
X16394850Y-11282625D01*
X16494435Y-12293732D02*
X16569435Y-12218732D01*
X16494435Y-12143732D01*
X16419435Y-12218732D01*
X16494435Y-12293732D01*
X16594020Y-13304840D02*
X16669020Y-13229840D01*
X16594020Y-13154840D01*
X16519020Y-13229840D01*
X16594020Y-13304840D01*
X16693606Y-14315948D02*
X16768606Y-14240948D01*
X16693606Y-14165948D01*
X16618606Y-14240948D01*
X16693606Y-14315948D01*
X16785859Y-10550165D02*
X16860859Y-10475165D01*
X16785859Y-10400165D01*
X16710859Y-10475165D01*
X16785859Y-10550165D01*
X16793191Y-15327055D02*
X16868191Y-15252055D01*
X16793191Y-15177055D01*
X16718191Y-15252055D01*
X16793191Y-15327055D01*
X16863364Y-11563205D02*
X16938364Y-11488205D01*
X16863364Y-11413205D01*
X16788364Y-11488205D01*
X16863364Y-11563205D01*
X16892777Y-16338163D02*
X16967777Y-16263163D01*
X16892777Y-16188163D01*
X16817777Y-16263163D01*
X16892777Y-16338163D01*
X16940868Y-12576244D02*
X17015868Y-12501244D01*
X16940868Y-12426244D01*
X16865868Y-12501244D01*
X16940868Y-12576244D01*
X17018373Y-13589284D02*
X17093373Y-13514284D01*
X17018373Y-13439284D01*
X16943373Y-13514284D01*
X17018373Y-13589284D01*
X17095877Y-14602323D02*
X17170877Y-14527323D01*
X17095877Y-14452323D01*
X17020877Y-14527323D01*
X17095877Y-14602323D01*
X17173382Y-15615363D02*
X17248382Y-15540363D01*
X17173382Y-15465363D01*
X17098382Y-15540363D01*
X17173382Y-15615363D01*
X17250886Y-16628402D02*
X17325886Y-16553402D01*
X17250886Y-16478402D01*
X17175886Y-16553402D01*
X17250886Y-16628402D01*
X17459409Y-10177699D02*
X17534409Y-10102699D01*
X17459409Y-10027699D01*
X17384409Y-10102699D01*
X17459409Y-10177699D01*
X17536913Y-11190739D02*
X17611913Y-11115739D01*
X17536913Y-11040739D01*
X17461913Y-11115739D01*
X17536913Y-11190739D01*
X17614418Y-12203778D02*
X17689418Y-12128778D01*
X17614418Y-12053778D01*
X17539418Y-12128778D01*
X17614418Y-12203778D01*
X17691922Y-13216818D02*
X17766922Y-13141818D01*
X17691922Y-13066818D01*
X17616922Y-13141818D01*
X17691922Y-13216818D01*
X17769427Y-14229857D02*
X17844427Y-14154857D01*
X17769427Y-14079857D01*
X17694427Y-14154857D01*
X17769427Y-14229857D01*
X17846931Y-15242897D02*
X17921931Y-15167897D01*
X17846931Y-15092897D01*
X17771931Y-15167897D01*
X17846931Y-15242897D01*
X17924436Y-16255936D02*
X17999436Y-16180936D01*
X17924436Y-16105936D01*
X17849436Y-16180936D01*
X17924436Y-16255936D01*
X17943216Y-10467406D02*
X18018216Y-10392406D01*
X17943216Y-10317406D01*
X17868216Y-10392406D01*
X17943216Y-10467406D01*
X17998603Y-11481895D02*
X18073603Y-11406895D01*
X17998603Y-11331895D01*
X17923603Y-11406895D01*
X17998603Y-11481895D01*
X18053989Y-12496384D02*
X18128989Y-12421384D01*
X18053989Y-12346384D01*
X17978989Y-12421384D01*
X18053989Y-12496384D01*
X18109376Y-13510873D02*
X18184376Y-13435873D01*
X18109376Y-13360873D01*
X18034376Y-13435873D01*
X18109376Y-13510873D01*
X18164763Y-14525362D02*
X18239763Y-14450362D01*
X18164763Y-14375362D01*
X18089763Y-14450362D01*
X18164763Y-14525362D01*
X18220150Y-15539851D02*
X18295150Y-15464851D01*
X18220150Y-15389851D01*
X18145150Y-15464851D01*
X18220150Y-15539851D01*
X18275536Y-16554341D02*
X18350536Y-16479341D01*
X18275536Y-16404341D01*
X18200536Y-16479341D01*
X18275536Y-16554341D01*
X18624730Y-10109721D02*
X18699730Y-10034721D01*
X18624730Y-9959721D01*
X18549730Y-10034721D01*
X18624730Y-10109721D01*
X18680117Y-11124211D02*
X18755117Y-11049211D01*
X18680117Y-10974211D01*
X18605117Y-11049211D01*
X18680117Y-11124211D01*
X18735504Y-12138700D02*
X18810504Y-12063700D01*
X18735504Y-11988700D01*
X18660504Y-12063700D01*
X18735504Y-12138700D01*
X18790891Y-13153189D02*
X18865891Y-13078189D01*
X18790891Y-13003189D01*
X18715891Y-13078189D01*
X18790891Y-13153189D01*
X18846277Y-14167678D02*
X18921277Y-14092678D01*
X18846277Y-14017678D01*
X18771277Y-14092678D01*
X18846277Y-14167678D01*
X18901664Y-15182167D02*
X18976664Y-15107167D01*
X18901664Y-15032167D01*
X18826664Y-15107167D01*
X18901664Y-15182167D01*
X18957051Y-16196656D02*
X19032051Y-16121656D01*
X18957051Y-16046656D01*
X18882051Y-16121656D01*
X18957051Y-16196656D01*
X19102011Y-10409364D02*
X19177011Y-10334364D01*
X19102011Y-10259364D01*
X19027011Y-10334364D01*
X19102011Y-10409364D01*
X19135254Y-11424819D02*
X19210254Y-11349819D01*
X19135254Y-11274819D01*
X19060254Y-11349819D01*
X19135254Y-11424819D01*
X19168496Y-12440276D02*
X19243496Y-12365276D01*
X19168496Y-12290276D01*
X19093496Y-12365276D01*
X19168496Y-12440276D01*
X19201739Y-13455732D02*
X19276739Y-13380732D01*
X19201739Y-13305732D01*
X19126739Y-13380732D01*
X19201739Y-13455732D01*
X19234982Y-14471188D02*
X19309982Y-14396188D01*
X19234982Y-14321188D01*
X19159982Y-14396188D01*
X19234982Y-14471188D01*
X19268224Y-15486644D02*
X19343224Y-15411644D01*
X19268224Y-15336644D01*
X19193224Y-15411644D01*
X19268224Y-15486644D01*
X19301467Y-16502100D02*
X19376467Y-16427100D01*
X19301467Y-16352100D01*
X19226467Y-16427100D01*
X19301467Y-16502100D01*
X19791166Y-10066632D02*
X19866166Y-9991632D01*
X19791166Y-9916632D01*
X19716166Y-9991632D01*
X19791166Y-10066632D01*
X19824409Y-11082088D02*
X19899409Y-11007088D01*
X19824409Y-10932088D01*
X19749409Y-11007088D01*
X19824409Y-11082088D01*
X19857652Y-12097543D02*
X19932652Y-12022543D01*
X19857652Y-11947543D01*
X19782652Y-12022543D01*
X19857652Y-12097543D01*
X19890894Y-13113000D02*
X19965894Y-13038000D01*
X19890894Y-12963000D01*
X19815894Y-13038000D01*
X19890894Y-13113000D01*
X19924137Y-14128456D02*
X19999137Y-14053456D01*
X19924137Y-13978456D01*
X19849137Y-14053456D01*
X19924137Y-14128456D01*
X19957379Y-15143912D02*
X20032379Y-15068912D01*
X19957379Y-14993912D01*
X19882379Y-15068912D01*
X19957379Y-15143912D01*
X19990622Y-16159368D02*
X20065622Y-16084368D01*
X19990622Y-16009368D01*
X19915622Y-16084368D01*
X19990622Y-16159368D01*
X20262318Y-10376383D02*
X20337318Y-10301383D01*
X20262318Y-10226383D01*
X20187318Y-10301383D01*
X20262318Y-10376383D01*
X20273400Y-11392323D02*
X20348400Y-11317323D01*
X20273400Y-11242323D01*
X20198400Y-11317323D01*
X20273400Y-11392323D01*
X20284483Y-12408262D02*
X20359483Y-12333262D01*
X20284483Y-12258262D01*
X20209483Y-12333262D01*
X20284483Y-12408262D01*
X20295566Y-13424202D02*
X20370566Y-13349202D01*
X20295566Y-13274202D01*
X20220566Y-13349202D01*
X20295566Y-13424202D01*
X20306648Y-14440141D02*
X20381648Y-14365141D01*
X20306648Y-14290141D01*
X20231648Y-14365141D01*
X20306648Y-14440141D01*
X20317731Y-15456081D02*
X20392731Y-15381081D01*
X20317731Y-15306081D01*
X20242731Y-15381081D01*
X20317731Y-15456081D01*
X20328813Y-16472020D02*
X20403813Y-16397020D01*
X20328813Y-16322020D01*
X20253813Y-16397020D01*
X20328813Y-16472020D01*
X20958785Y-10048767D02*
X21033785Y-9973767D01*
X20958785Y-9898767D01*
X20883785Y-9973767D01*
X20958785Y-10048767D01*
X20969868Y-11064706D02*
X21044868Y-10989706D01*
X20969868Y-10914706D01*
X20894868Y-10989706D01*
X20969868Y-11064706D01*
X20980951Y-12080646D02*
X21055951Y-12005646D01*
X20980951Y-11930646D01*
X20905951Y-12005646D01*
X20980951Y-12080646D01*
X20992033Y-13096585D02*
X21067033Y-13021585D01*
X20992033Y-12946585D01*
X20917033Y-13021585D01*
X20992033Y-13096585D01*
X21003116Y-14112525D02*
X21078116Y-14037525D01*
X21003116Y-13962525D01*
X20928116Y-14037525D01*
X21003116Y-14112525D01*
X21014199Y-15128464D02*
X21089199Y-15053464D01*
X21014199Y-14978464D01*
X20939199Y-15053464D01*
X21014199Y-15128464D01*
X21025281Y-16144404D02*
X21100281Y-16069404D01*
X21025281Y-15994404D01*
X20950281Y-16069404D01*
X21025281Y-16144404D01*
X21357987Y-16464460D02*
X21432987Y-16389460D01*
X21357987Y-16314460D01*
X21282987Y-16389460D01*
X21357987Y-16464460D01*
X21369070Y-15448521D02*
X21444070Y-15373521D01*
X21369070Y-15298521D01*
X21294070Y-15373521D01*
X21369070Y-15448521D01*
X21380153Y-14432581D02*
X21455153Y-14357581D01*
X21380153Y-14282581D01*
X21305153Y-14357581D01*
X21380153Y-14432581D01*
X21391235Y-13416642D02*
X21466235Y-13341642D01*
X21391235Y-13266642D01*
X21316235Y-13341642D01*
X21391235Y-13416642D01*
X21402318Y-12400702D02*
X21477318Y-12325702D01*
X21402318Y-12250702D01*
X21327318Y-12325702D01*
X21402318Y-12400702D01*
X21413400Y-11384763D02*
X21488400Y-11309763D01*
X21413400Y-11234763D01*
X21338400Y-11309763D01*
X21413400Y-11384763D01*
X21424483Y-10368823D02*
X21499483Y-10293823D01*
X21424483Y-10218823D01*
X21349483Y-10293823D01*
X21424483Y-10368823D01*
X22061436Y-16152115D02*
X22136436Y-16077115D01*
X22061436Y-16002115D01*
X21986436Y-16077115D01*
X22061436Y-16152115D01*
X22072519Y-15136175D02*
X22147519Y-15061175D01*
X22072519Y-14986175D01*
X21997519Y-15061175D01*
X22072519Y-15136175D01*
X22083601Y-14120236D02*
X22158601Y-14045236D01*
X22083601Y-13970236D01*
X22008601Y-14045236D01*
X22083601Y-14120236D01*
X22094684Y-13104296D02*
X22169684Y-13029296D01*
X22094684Y-12954296D01*
X22019684Y-13029296D01*
X22094684Y-13104296D01*
X22105767Y-12088357D02*
X22180767Y-12013357D01*
X22105767Y-11938357D01*
X22030767Y-12013357D01*
X22105767Y-12088357D01*
X22116849Y-11072417D02*
X22191849Y-10997417D01*
X22116849Y-10922417D01*
X22041849Y-10997417D01*
X22116849Y-11072417D01*
X22127932Y-10056478D02*
X22202932Y-9981478D01*
X22127932Y-9906478D01*
X22052932Y-9981478D01*
X22127932Y-10056478D01*
X22385002Y-16479218D02*
X22460002Y-16404218D01*
X22385002Y-16329218D01*
X22310002Y-16404218D01*
X22385002Y-16479218D01*
X22418244Y-15463762D02*
X22493244Y-15388762D01*
X22418244Y-15313762D01*
X22343244Y-15388762D01*
X22418244Y-15463762D01*
X22451487Y-14448306D02*
X22526487Y-14373306D01*
X22451487Y-14298306D01*
X22376487Y-14373306D01*
X22451487Y-14448306D01*
X22484729Y-13432850D02*
X22559729Y-13357850D01*
X22484729Y-13282850D01*
X22409729Y-13357850D01*
X22484729Y-13432850D01*
X22517972Y-12417394D02*
X22592972Y-12342394D01*
X22517972Y-12267394D01*
X22442972Y-12342394D01*
X22517972Y-12417394D01*
X22551214Y-11401938D02*
X22626214Y-11326938D01*
X22551214Y-11251938D01*
X22476214Y-11326938D01*
X22551214Y-11401938D01*
X22584457Y-10386482D02*
X22659457Y-10311482D01*
X22584457Y-10236482D01*
X22509457Y-10311482D01*
X22584457Y-10386482D01*
X23095097Y-16182293D02*
X23170097Y-16107293D01*
X23095097Y-16032293D01*
X23020097Y-16107293D01*
X23095097Y-16182293D01*
X23128339Y-15166837D02*
X23203339Y-15091837D01*
X23128339Y-15016837D01*
X23053339Y-15091837D01*
X23128339Y-15166837D01*
X23161582Y-14151381D02*
X23236582Y-14076381D01*
X23161582Y-14001381D01*
X23086582Y-14076381D01*
X23161582Y-14151381D01*
X23194825Y-13135925D02*
X23269825Y-13060925D01*
X23194825Y-12985925D01*
X23119825Y-13060925D01*
X23194825Y-13135925D01*
X23228067Y-12120469D02*
X23303067Y-12045469D01*
X23228067Y-11970469D01*
X23153067Y-12045469D01*
X23228067Y-12120469D01*
X23261310Y-11105013D02*
X23336310Y-11030013D01*
X23261310Y-10955013D01*
X23186310Y-11030013D01*
X23261310Y-11105013D01*
X23294552Y-10089557D02*
X23369552Y-10014557D01*
X23294552Y-9939557D01*
X23219552Y-10014557D01*
X23294552Y-10089557D01*
X23412156Y-16516671D02*
X23487156Y-16441671D01*
X23412156Y-16366671D01*
X23337156Y-16441671D01*
X23412156Y-16516671D01*
X23467543Y-15502182D02*
X23542543Y-15427182D01*
X23467543Y-15352182D01*
X23392543Y-15427182D01*
X23467543Y-15502182D01*
X23522929Y-14487693D02*
X23597929Y-14412693D01*
X23522929Y-14337693D01*
X23447929Y-14412693D01*
X23522929Y-14487693D01*
X23578316Y-13473204D02*
X23653316Y-13398204D01*
X23578316Y-13323204D01*
X23503316Y-13398204D01*
X23578316Y-13473204D01*
X23633703Y-12458715D02*
X23708703Y-12383715D01*
X23633703Y-12308715D01*
X23558703Y-12383715D01*
X23633703Y-12458715D01*
X23689090Y-11444225D02*
X23764090Y-11369225D01*
X23689090Y-11294225D01*
X23614090Y-11369225D01*
X23689090Y-11444225D01*
X23744476Y-10429736D02*
X23819476Y-10354736D01*
X23744476Y-10279736D01*
X23669476Y-10354736D01*
X23744476Y-10429736D01*
X24128560Y-16235307D02*
X24203560Y-16160307D01*
X24128560Y-16085307D01*
X24053560Y-16160307D01*
X24128560Y-16235307D01*
X24183946Y-15220818D02*
X24258946Y-15145818D01*
X24183946Y-15070818D01*
X24108946Y-15145818D01*
X24183946Y-15220818D01*
X24239333Y-14206329D02*
X24314333Y-14131329D01*
X24239333Y-14056329D01*
X24164333Y-14131329D01*
X24239333Y-14206329D01*
X24294720Y-13191840D02*
X24369720Y-13116840D01*
X24294720Y-13041840D01*
X24219720Y-13116840D01*
X24294720Y-13191840D01*
X24350107Y-12177351D02*
X24425107Y-12102351D01*
X24350107Y-12027351D01*
X24275107Y-12102351D01*
X24350107Y-12177351D01*
X24405493Y-11162862D02*
X24480493Y-11087862D01*
X24405493Y-11012862D01*
X24330493Y-11087862D01*
X24405493Y-11162862D01*
X24438163Y-16576238D02*
X24513163Y-16501238D01*
X24438163Y-16426238D01*
X24363163Y-16501238D01*
X24438163Y-16576238D01*
X24460880Y-10148372D02*
X24535880Y-10073372D01*
X24460880Y-9998372D01*
X24385880Y-10073372D01*
X24460880Y-10148372D01*
X24515667Y-15563199D02*
X24590667Y-15488199D01*
X24515667Y-15413199D01*
X24440667Y-15488199D01*
X24515667Y-15563199D01*
X24593172Y-14550159D02*
X24668172Y-14475159D01*
X24593172Y-14400159D01*
X24518172Y-14475159D01*
X24593172Y-14550159D01*
X24670676Y-13537120D02*
X24745676Y-13462120D01*
X24670676Y-13387120D01*
X24595676Y-13462120D01*
X24670676Y-13537120D01*
X24748181Y-12524080D02*
X24823181Y-12449080D01*
X24748181Y-12374080D01*
X24673181Y-12449080D01*
X24748181Y-12524080D01*
X24825685Y-11511041D02*
X24900685Y-11436041D01*
X24825685Y-11361041D01*
X24750685Y-11436041D01*
X24825685Y-11511041D01*
X24903190Y-10498001D02*
X24978190Y-10423001D01*
X24903190Y-10348001D01*
X24828190Y-10423001D01*
X24903190Y-10498001D01*
X25160534Y-16310569D02*
X25235534Y-16235569D01*
X25160534Y-16160569D01*
X25085534Y-16235569D01*
X25160534Y-16310569D01*
X25238038Y-15297530D02*
X25313038Y-15222530D01*
X25238038Y-15147530D01*
X25163038Y-15222530D01*
X25238038Y-15297530D01*
X25315543Y-14284490D02*
X25390543Y-14209490D01*
X25315543Y-14134490D01*
X25240543Y-14209490D01*
X25315543Y-14284490D01*
X25393047Y-13271451D02*
X25468047Y-13196451D01*
X25393047Y-13121451D01*
X25318047Y-13196451D01*
X25393047Y-13271451D01*
X25463129Y-16658465D02*
X25538129Y-16583465D01*
X25463129Y-16508465D01*
X25388129Y-16583465D01*
X25463129Y-16658465D01*
X25470552Y-12258411D02*
X25545552Y-12183411D01*
X25470552Y-12108411D01*
X25395552Y-12183411D01*
X25470552Y-12258411D01*
X25548057Y-11245372D02*
X25623057Y-11170372D01*
X25548057Y-11095372D01*
X25473057Y-11170372D01*
X25548057Y-11245372D01*
X25562714Y-15647357D02*
X25637714Y-15572357D01*
X25562714Y-15497357D01*
X25487714Y-15572357D01*
X25562714Y-15647357D01*
X25625561Y-10232332D02*
X25700561Y-10157332D01*
X25625561Y-10082332D01*
X25550561Y-10157332D01*
X25625561Y-10232332D01*
X25662299Y-14636249D02*
X25737299Y-14561249D01*
X25662299Y-14486249D01*
X25587299Y-14561249D01*
X25662299Y-14636249D01*
X25761885Y-13625142D02*
X25836885Y-13550142D01*
X25761885Y-13475142D01*
X25686885Y-13550142D01*
X25761885Y-13625142D01*
X25861470Y-12614034D02*
X25936470Y-12539034D01*
X25861470Y-12464034D01*
X25786470Y-12539034D01*
X25861470Y-12614034D01*
X25961056Y-11602926D02*
X26036056Y-11527926D01*
X25961056Y-11452926D01*
X25886056Y-11527926D01*
X25961056Y-11602926D01*
X26060641Y-10591819D02*
X26135641Y-10516819D01*
X26060641Y-10441819D01*
X25985641Y-10516819D01*
X26060641Y-10591819D01*
X26191124Y-16408618D02*
X26266124Y-16333618D01*
X26191124Y-16258618D01*
X26116124Y-16333618D01*
X26191124Y-16408618D01*
X26290709Y-15397510D02*
X26365709Y-15322510D01*
X26290709Y-15247510D01*
X26215709Y-15322510D01*
X26290709Y-15397510D01*
X26390294Y-14386402D02*
X26465294Y-14311402D01*
X26390294Y-14236402D01*
X26315294Y-14311402D01*
X26390294Y-14386402D01*
X26486183Y-16762364D02*
X26561183Y-16687364D01*
X26486183Y-16612364D01*
X26411183Y-16687364D01*
X26486183Y-16762364D01*
X26489880Y-13375294D02*
X26564880Y-13300294D01*
X26489880Y-13225294D01*
X26414880Y-13300294D01*
X26489880Y-13375294D01*
X26589465Y-12364187D02*
X26664465Y-12289187D01*
X26589465Y-12214187D01*
X26514465Y-12289187D01*
X26589465Y-12364187D01*
X26607802Y-15753669D02*
X26682802Y-15678669D01*
X26607802Y-15603669D01*
X26532802Y-15678669D01*
X26607802Y-15753669D01*
X26689051Y-11353079D02*
X26764051Y-11278079D01*
X26689051Y-11203079D01*
X26614051Y-11278079D01*
X26689051Y-11353079D01*
X26729420Y-14744974D02*
X26804420Y-14669974D01*
X26729420Y-14594974D01*
X26654420Y-14669974D01*
X26729420Y-14744974D01*
X26788636Y-10341972D02*
X26863636Y-10266972D01*
X26788636Y-10191972D01*
X26713636Y-10266972D01*
X26788636Y-10341972D01*
X26851039Y-13736280D02*
X26926039Y-13661280D01*
X26851039Y-13586280D01*
X26776039Y-13661280D01*
X26851039Y-13736280D01*
X26972658Y-12727585D02*
X27047658Y-12652585D01*
X26972658Y-12577585D01*
X26897658Y-12652585D01*
X26972658Y-12727585D01*
X27094277Y-11718891D02*
X27169277Y-11643891D01*
X27094277Y-11568891D01*
X27019277Y-11643891D01*
X27094277Y-11718891D01*
X27215896Y-10710196D02*
X27290896Y-10635196D01*
X27215896Y-10560196D01*
X27140896Y-10635196D01*
X27215896Y-10710196D01*
X27219455Y-16528457D02*
X27294455Y-16453457D01*
X27219455Y-16378457D01*
X27144455Y-16453457D01*
X27219455Y-16528457D01*
X27341073Y-15519763D02*
X27416073Y-15444763D01*
X27341073Y-15369763D01*
X27266073Y-15444763D01*
X27341073Y-15519763D01*
X27462692Y-14511068D02*
X27537692Y-14436068D01*
X27462692Y-14361068D01*
X27387692Y-14436068D01*
X27462692Y-14511068D01*
X27506687Y-16889210D02*
X27581687Y-16814210D01*
X27506687Y-16739210D01*
X27431687Y-16814210D01*
X27506687Y-16889210D01*
X27584311Y-13502373D02*
X27659311Y-13427373D01*
X27584311Y-13352373D01*
X27509311Y-13427373D01*
X27584311Y-13502373D01*
X27650281Y-15883408D02*
X27725281Y-15808408D01*
X27650281Y-15733408D01*
X27575281Y-15808408D01*
X27650281Y-15883408D01*
X27705930Y-12493679D02*
X27780930Y-12418679D01*
X27705930Y-12343679D01*
X27630930Y-12418679D01*
X27705930Y-12493679D01*
X27793876Y-14877607D02*
X27868876Y-14802607D01*
X27793876Y-14727607D01*
X27718876Y-14802607D01*
X27793876Y-14877607D01*
X27827549Y-11484984D02*
X27902549Y-11409984D01*
X27827549Y-11334984D01*
X27752549Y-11409984D01*
X27827549Y-11484984D01*
X27937470Y-13871805D02*
X28012470Y-13796805D01*
X27937470Y-13721805D01*
X27862470Y-13796805D01*
X27937470Y-13871805D01*
X27949168Y-10476290D02*
X28024168Y-10401290D01*
X27949168Y-10326290D01*
X27874168Y-10401290D01*
X27949168Y-10476290D01*
X28081065Y-12866004D02*
X28156065Y-12791004D01*
X28081065Y-12716004D01*
X28006065Y-12791004D01*
X28081065Y-12866004D01*
X28224659Y-11860202D02*
X28299659Y-11785202D01*
X28224659Y-11710202D01*
X28149659Y-11785202D01*
X28224659Y-11860202D01*
X28244887Y-16671355D02*
X28319887Y-16596355D01*
X28244887Y-16521355D01*
X28169887Y-16596355D01*
X28244887Y-16671355D01*
X28368254Y-10854401D02*
X28443254Y-10779401D01*
X28368254Y-10704401D01*
X28293254Y-10779401D01*
X28368254Y-10854401D01*
X28388481Y-15665554D02*
X28463481Y-15590554D01*
X28388481Y-15515554D01*
X28313481Y-15590554D01*
X28388481Y-15665554D01*
X28524004Y-17037728D02*
X28599004Y-16962728D01*
X28524004Y-16887728D01*
X28449004Y-16962728D01*
X28524004Y-17037728D01*
X28532076Y-14659752D02*
X28607076Y-14584752D01*
X28532076Y-14509752D01*
X28457076Y-14584752D01*
X28532076Y-14659752D01*
X28675670Y-13653951D02*
X28750670Y-13578951D01*
X28675670Y-13503951D01*
X28600670Y-13578951D01*
X28675670Y-13653951D01*
X28689506Y-16035298D02*
X28764506Y-15960298D01*
X28689506Y-15885298D01*
X28614506Y-15960298D01*
X28689506Y-16035298D01*
X28819265Y-12648149D02*
X28894265Y-12573149D01*
X28819265Y-12498149D01*
X28744265Y-12573149D01*
X28819265Y-12648149D01*
X28855007Y-15032868D02*
X28930007Y-14957868D01*
X28855007Y-14882868D01*
X28780007Y-14957868D01*
X28855007Y-15032868D01*
X28962860Y-11642348D02*
X29037860Y-11567348D01*
X28962860Y-11492348D01*
X28887860Y-11567348D01*
X28962860Y-11642348D01*
X29020509Y-14030439D02*
X29095509Y-13955439D01*
X29020509Y-13880439D01*
X28945509Y-13955439D01*
X29020509Y-14030439D01*
X29106454Y-10636546D02*
X29181454Y-10561546D01*
X29106454Y-10486546D01*
X29031454Y-10561546D01*
X29106454Y-10636546D01*
X29186011Y-13028009D02*
X29261011Y-12953009D01*
X29186011Y-12878009D01*
X29111011Y-12953009D01*
X29186011Y-13028009D01*
X29266781Y-16836029D02*
X29341781Y-16761029D01*
X29266781Y-16686029D01*
X29191781Y-16761029D01*
X29266781Y-16836029D01*
X29351513Y-12025580D02*
X29426513Y-11950580D01*
X29351513Y-11875580D01*
X29276513Y-11950580D01*
X29351513Y-12025580D01*
X29432282Y-15833599D02*
X29507282Y-15758599D01*
X29432282Y-15683599D01*
X29357282Y-15758599D01*
X29432282Y-15833599D01*
X29517015Y-11023150D02*
X29592015Y-10948150D01*
X29517015Y-10873150D01*
X29442015Y-10948150D01*
X29517015Y-11023150D01*
X29537496Y-17209193D02*
X29612496Y-17134193D01*
X29537496Y-17059193D01*
X29462496Y-17134193D01*
X29537496Y-17209193D01*
X29597784Y-14831169D02*
X29672784Y-14756169D01*
X29597784Y-14681169D01*
X29522784Y-14756169D01*
X29597784Y-14831169D01*
X29724827Y-16210612D02*
X29799827Y-16135612D01*
X29724827Y-16060612D01*
X29649827Y-16135612D01*
X29724827Y-16210612D01*
X29763286Y-13828740D02*
X29838286Y-13753740D01*
X29763286Y-13678740D01*
X29688286Y-13753740D01*
X29763286Y-13828740D01*
X29912157Y-15212031D02*
X29987157Y-15137031D01*
X29912157Y-15062031D01*
X29837157Y-15137031D01*
X29912157Y-15212031D01*
X29928788Y-12826310D02*
X30003788Y-12751310D01*
X29928788Y-12676310D01*
X29853788Y-12751310D01*
X29928788Y-12826310D01*
X30094290Y-11823881D02*
X30169290Y-11748881D01*
X30094290Y-11673881D01*
X30019290Y-11748881D01*
X30094290Y-11823881D01*
X30099487Y-14213451D02*
X30174487Y-14138451D01*
X30099487Y-14063451D01*
X30024487Y-14138451D01*
X30099487Y-14213451D01*
X30259791Y-10821451D02*
X30334791Y-10746451D01*
X30259791Y-10671451D01*
X30184791Y-10746451D01*
X30259791Y-10821451D01*
X30284497Y-17023745D02*
X30359497Y-16948745D01*
X30284497Y-16873745D01*
X30209497Y-16948745D01*
X30284497Y-17023745D01*
X30286818Y-13214870D02*
X30361818Y-13139870D01*
X30286818Y-13064870D01*
X30211818Y-13139870D01*
X30286818Y-13214870D01*
X30471827Y-16025165D02*
X30546827Y-15950165D01*
X30471827Y-15875165D01*
X30396827Y-15950165D01*
X30471827Y-16025165D01*
X30474148Y-12216289D02*
X30549148Y-12141289D01*
X30474148Y-12066289D01*
X30399148Y-12141289D01*
X30474148Y-12216289D01*
X30547164Y-17402330D02*
X30622164Y-17327330D01*
X30547164Y-17252330D01*
X30472164Y-17327330D01*
X30547164Y-17402330D01*
X30659157Y-15026584D02*
X30734157Y-14951584D01*
X30659157Y-14876584D01*
X30584157Y-14951584D01*
X30659157Y-15026584D01*
X30661478Y-11217709D02*
X30736478Y-11142709D01*
X30661478Y-11067709D01*
X30586478Y-11142709D01*
X30661478Y-11217709D01*
X30756234Y-16408074D02*
X30831234Y-16333074D01*
X30756234Y-16258074D01*
X30681234Y-16333074D01*
X30756234Y-16408074D01*
X30846487Y-14028003D02*
X30921487Y-13953003D01*
X30846487Y-13878003D01*
X30771487Y-13953003D01*
X30846487Y-14028003D01*
X30965304Y-15413817D02*
X31040304Y-15338817D01*
X30965304Y-15263817D01*
X30890304Y-15338817D01*
X30965304Y-15413817D01*
X31033818Y-13029423D02*
X31108818Y-12954423D01*
X31033818Y-12879423D01*
X30958818Y-12954423D01*
X31033818Y-13029423D01*
X31174373Y-14419561D02*
X31249373Y-14344561D01*
X31174373Y-14269561D01*
X31099373Y-14344561D01*
X31174373Y-14419561D01*
X31221148Y-12030842D02*
X31296148Y-11955842D01*
X31221148Y-11880842D01*
X31146148Y-11955842D01*
X31221148Y-12030842D01*
X31298032Y-17233223D02*
X31373032Y-17158223D01*
X31298032Y-17083223D01*
X31223032Y-17158223D01*
X31298032Y-17233223D01*
X31383443Y-13425304D02*
X31458443Y-13350304D01*
X31383443Y-13275304D01*
X31308443Y-13350304D01*
X31383443Y-13425304D01*
X31408478Y-11032261D02*
X31483478Y-10957261D01*
X31408478Y-10882261D01*
X31333478Y-10957261D01*
X31408478Y-11032261D01*
X31507102Y-16238966D02*
X31582102Y-16163966D01*
X31507102Y-16088966D01*
X31432102Y-16163966D01*
X31507102Y-16238966D01*
X31551733Y-17617777D02*
X31626733Y-17542777D01*
X31551733Y-17467777D01*
X31476733Y-17542777D01*
X31551733Y-17617777D01*
X31592513Y-12431048D02*
X31667513Y-12356048D01*
X31592513Y-12281048D01*
X31517513Y-12356048D01*
X31592513Y-12431048D01*
X31716172Y-15244710D02*
X31791172Y-15169710D01*
X31716172Y-15094710D01*
X31641172Y-15169710D01*
X31716172Y-15244710D01*
X31782443Y-16628318D02*
X31857443Y-16553318D01*
X31782443Y-16478318D01*
X31707443Y-16553318D01*
X31782443Y-16628318D01*
X31801582Y-11436791D02*
X31876582Y-11361791D01*
X31801582Y-11286791D01*
X31726582Y-11361791D01*
X31801582Y-11436791D01*
X31925241Y-14250453D02*
X32000241Y-14175453D01*
X31925241Y-14100453D01*
X31850241Y-14175453D01*
X31925241Y-14250453D01*
X32013152Y-15638859D02*
X32088152Y-15563859D01*
X32013152Y-15488859D01*
X31938152Y-15563859D01*
X32013152Y-15638859D01*
X32134311Y-13256197D02*
X32209311Y-13181197D01*
X32134311Y-13106197D01*
X32059311Y-13181197D01*
X32134311Y-13256197D01*
X32243862Y-14649400D02*
X32318862Y-14574400D01*
X32243862Y-14499400D01*
X32168862Y-14574400D01*
X32243862Y-14649400D01*
X32306111Y-17465090D02*
X32381111Y-17390090D01*
X32306111Y-17315090D01*
X32231111Y-17390090D01*
X32306111Y-17465090D01*
X32343381Y-12261940D02*
X32418381Y-12186940D01*
X32343381Y-12111940D01*
X32268381Y-12186940D01*
X32343381Y-12261940D01*
X32474571Y-13659941D02*
X32549571Y-13584941D01*
X32474571Y-13509941D01*
X32399571Y-13584941D01*
X32474571Y-13659941D01*
X32536821Y-16475631D02*
X32611821Y-16400631D01*
X32536821Y-16325631D01*
X32461821Y-16400631D01*
X32536821Y-16475631D01*
X32551840Y-17854896D02*
X32626840Y-17779896D01*
X32551840Y-17704896D01*
X32476840Y-17779896D01*
X32551840Y-17854896D01*
X32552450Y-11267684D02*
X32627450Y-11192684D01*
X32552450Y-11117684D01*
X32477450Y-11192684D01*
X32552450Y-11267684D01*
X32705281Y-12670482D02*
X32780281Y-12595482D01*
X32705281Y-12520482D01*
X32630281Y-12595482D01*
X32705281Y-12670482D01*
X32767530Y-15486172D02*
X32842530Y-15411172D01*
X32767530Y-15336172D01*
X32692530Y-15411172D01*
X32767530Y-15486172D01*
X32804079Y-16870705D02*
X32879079Y-16795705D01*
X32804079Y-16720705D01*
X32729079Y-16795705D01*
X32804079Y-16870705D01*
X32935990Y-11681023D02*
X33010990Y-11606023D01*
X32935990Y-11531023D01*
X32860990Y-11606023D01*
X32935990Y-11681023D01*
X32998240Y-14496713D02*
X33073240Y-14421713D01*
X32998240Y-14346713D01*
X32923240Y-14421713D01*
X32998240Y-14496713D01*
X33056319Y-15886515D02*
X33131319Y-15811515D01*
X33056319Y-15736515D01*
X32981319Y-15811515D01*
X33056319Y-15886515D01*
X33228949Y-13507254D02*
X33303949Y-13432254D01*
X33228949Y-13357254D01*
X33153949Y-13432254D01*
X33228949Y-13507254D01*
X33308558Y-14902324D02*
X33383558Y-14827324D01*
X33308558Y-14752324D01*
X33233558Y-14827324D01*
X33308558Y-14902324D01*
X33309370Y-17718702D02*
X33384370Y-17643702D01*
X33309370Y-17568702D01*
X33234370Y-17643702D01*
X33309370Y-17718702D01*
X33459659Y-12517795D02*
X33534659Y-12442795D01*
X33459659Y-12367795D01*
X33384659Y-12442795D01*
X33459659Y-12517795D01*
X33560798Y-13918133D02*
X33635798Y-13843133D01*
X33560798Y-13768133D01*
X33485798Y-13843133D01*
X33560798Y-13918133D01*
X33561609Y-16734511D02*
X33636609Y-16659511D01*
X33561609Y-16584511D01*
X33486609Y-16659511D01*
X33561609Y-16734511D01*
X33690368Y-11528336D02*
X33765368Y-11453336D01*
X33690368Y-11378336D01*
X33615368Y-11453336D01*
X33690368Y-11528336D01*
X33813038Y-12933943D02*
X33888038Y-12858943D01*
X33813038Y-12783943D01*
X33738038Y-12858943D01*
X33813038Y-12933943D01*
X33813849Y-15750320D02*
X33888849Y-15675320D01*
X33813849Y-15600320D01*
X33738849Y-15675320D01*
X33813849Y-15750320D01*
X34065277Y-11949752D02*
X34140277Y-11874752D01*
X34065277Y-11799752D01*
X33990277Y-11874752D01*
X34065277Y-11949752D01*
X34066088Y-14766130D02*
X34141088Y-14691130D01*
X34066088Y-14616130D01*
X33991088Y-14691130D01*
X34066088Y-14766130D01*
X34318328Y-13781939D02*
X34393328Y-13706939D01*
X34318328Y-13631939D01*
X34243328Y-13706939D01*
X34318328Y-13781939D01*
X34570567Y-12797748D02*
X34645567Y-12722748D01*
X34570567Y-12647748D01*
X34495567Y-12722748D01*
X34570567Y-12797748D01*
X34822807Y-11813558D02*
X34897807Y-11738558D01*
X34822807Y-11663558D01*
X34747807Y-11738558D01*
X34822807Y-11813558D01*
D11*
X7191277Y-21963655D02*
X7191277Y-21763655D01*
X7191277Y-21763655D02*
X7238896Y-21763655D01*
X7238896Y-21763655D02*
X7267468Y-21773179D01*
X7267468Y-21773179D02*
X7286515Y-21792226D01*
X7286515Y-21792226D02*
X7296039Y-21811274D01*
X7296039Y-21811274D02*
X7305563Y-21849369D01*
X7305563Y-21849369D02*
X7305563Y-21877941D01*
X7305563Y-21877941D02*
X7296039Y-21916036D01*
X7296039Y-21916036D02*
X7286515Y-21935084D01*
X7286515Y-21935084D02*
X7267468Y-21954131D01*
X7267468Y-21954131D02*
X7238896Y-21963655D01*
X7238896Y-21963655D02*
X7191277Y-21963655D01*
X7391277Y-21963655D02*
X7391277Y-21830322D01*
X7391277Y-21868417D02*
X7400801Y-21849369D01*
X7400801Y-21849369D02*
X7410325Y-21839845D01*
X7410325Y-21839845D02*
X7429372Y-21830322D01*
X7429372Y-21830322D02*
X7448420Y-21830322D01*
X7515087Y-21963655D02*
X7515087Y-21830322D01*
X7515087Y-21763655D02*
X7505563Y-21773179D01*
X7505563Y-21773179D02*
X7515087Y-21782703D01*
X7515087Y-21782703D02*
X7524610Y-21773179D01*
X7524610Y-21773179D02*
X7515087Y-21763655D01*
X7515087Y-21763655D02*
X7515087Y-21782703D01*
X7638896Y-21963655D02*
X7619849Y-21954131D01*
X7619849Y-21954131D02*
X7610325Y-21935084D01*
X7610325Y-21935084D02*
X7610325Y-21763655D01*
X7743658Y-21963655D02*
X7724610Y-21954131D01*
X7724610Y-21954131D02*
X7715087Y-21935084D01*
X7715087Y-21935084D02*
X7715087Y-21763655D01*
X7972230Y-21963655D02*
X7972230Y-21763655D01*
X7972230Y-21763655D02*
X8038896Y-21906512D01*
X8038896Y-21906512D02*
X8105563Y-21763655D01*
X8105563Y-21763655D02*
X8105563Y-21963655D01*
X8286515Y-21963655D02*
X8286515Y-21858893D01*
X8286515Y-21858893D02*
X8276991Y-21839845D01*
X8276991Y-21839845D02*
X8257944Y-21830322D01*
X8257944Y-21830322D02*
X8219849Y-21830322D01*
X8219849Y-21830322D02*
X8200801Y-21839845D01*
X8286515Y-21954131D02*
X8267468Y-21963655D01*
X8267468Y-21963655D02*
X8219849Y-21963655D01*
X8219849Y-21963655D02*
X8200801Y-21954131D01*
X8200801Y-21954131D02*
X8191277Y-21935084D01*
X8191277Y-21935084D02*
X8191277Y-21916036D01*
X8191277Y-21916036D02*
X8200801Y-21896988D01*
X8200801Y-21896988D02*
X8219849Y-21887465D01*
X8219849Y-21887465D02*
X8267468Y-21887465D01*
X8267468Y-21887465D02*
X8286515Y-21877941D01*
X8381753Y-21830322D02*
X8381753Y-22030322D01*
X8381753Y-21839845D02*
X8400801Y-21830322D01*
X8400801Y-21830322D02*
X8438896Y-21830322D01*
X8438896Y-21830322D02*
X8457944Y-21839845D01*
X8457944Y-21839845D02*
X8467468Y-21849369D01*
X8467468Y-21849369D02*
X8476992Y-21868417D01*
X8476992Y-21868417D02*
X8476992Y-21925560D01*
X8476992Y-21925560D02*
X8467468Y-21944607D01*
X8467468Y-21944607D02*
X8457944Y-21954131D01*
X8457944Y-21954131D02*
X8438896Y-21963655D01*
X8438896Y-21963655D02*
X8400801Y-21963655D01*
X8400801Y-21963655D02*
X8381753Y-21954131D01*
X8562706Y-21944607D02*
X8572230Y-21954131D01*
X8572230Y-21954131D02*
X8562706Y-21963655D01*
X8562706Y-21963655D02*
X8553182Y-21954131D01*
X8553182Y-21954131D02*
X8562706Y-21944607D01*
X8562706Y-21944607D02*
X8562706Y-21963655D01*
X8562706Y-21839845D02*
X8572230Y-21849369D01*
X8572230Y-21849369D02*
X8562706Y-21858893D01*
X8562706Y-21858893D02*
X8553182Y-21849369D01*
X8553182Y-21849369D02*
X8562706Y-21839845D01*
X8562706Y-21839845D02*
X8562706Y-21858893D01*
D12*
X6900500Y-22277171D02*
X6930500Y-22307171D01*
X6930500Y-22277171D02*
X6900500Y-22307171D01*
D11*
X7229372Y-22183655D02*
X7248420Y-22183655D01*
X7248420Y-22183655D02*
X7267468Y-22193179D01*
X7267468Y-22193179D02*
X7276991Y-22202703D01*
X7276991Y-22202703D02*
X7286515Y-22221750D01*
X7286515Y-22221750D02*
X7296039Y-22259845D01*
X7296039Y-22259845D02*
X7296039Y-22307465D01*
X7296039Y-22307465D02*
X7286515Y-22345560D01*
X7286515Y-22345560D02*
X7276991Y-22364607D01*
X7276991Y-22364607D02*
X7267468Y-22374131D01*
X7267468Y-22374131D02*
X7248420Y-22383655D01*
X7248420Y-22383655D02*
X7229372Y-22383655D01*
X7229372Y-22383655D02*
X7210325Y-22374131D01*
X7210325Y-22374131D02*
X7200801Y-22364607D01*
X7200801Y-22364607D02*
X7191277Y-22345560D01*
X7191277Y-22345560D02*
X7181753Y-22307465D01*
X7181753Y-22307465D02*
X7181753Y-22259845D01*
X7181753Y-22259845D02*
X7191277Y-22221750D01*
X7191277Y-22221750D02*
X7200801Y-22202703D01*
X7200801Y-22202703D02*
X7210325Y-22193179D01*
X7210325Y-22193179D02*
X7229372Y-22183655D01*
X7381753Y-22364607D02*
X7391277Y-22374131D01*
X7391277Y-22374131D02*
X7381753Y-22383655D01*
X7381753Y-22383655D02*
X7372230Y-22374131D01*
X7372230Y-22374131D02*
X7381753Y-22364607D01*
X7381753Y-22364607D02*
X7381753Y-22383655D01*
X7457944Y-22183655D02*
X7581753Y-22183655D01*
X7581753Y-22183655D02*
X7515087Y-22259845D01*
X7515087Y-22259845D02*
X7543658Y-22259845D01*
X7543658Y-22259845D02*
X7562706Y-22269369D01*
X7562706Y-22269369D02*
X7572230Y-22278893D01*
X7572230Y-22278893D02*
X7581753Y-22297941D01*
X7581753Y-22297941D02*
X7581753Y-22345560D01*
X7581753Y-22345560D02*
X7572230Y-22364607D01*
X7572230Y-22364607D02*
X7562706Y-22374131D01*
X7562706Y-22374131D02*
X7543658Y-22383655D01*
X7543658Y-22383655D02*
X7486515Y-22383655D01*
X7486515Y-22383655D02*
X7467468Y-22374131D01*
X7467468Y-22374131D02*
X7457944Y-22364607D01*
X7705563Y-22183655D02*
X7724611Y-22183655D01*
X7724611Y-22183655D02*
X7743658Y-22193179D01*
X7743658Y-22193179D02*
X7753182Y-22202703D01*
X7753182Y-22202703D02*
X7762706Y-22221750D01*
X7762706Y-22221750D02*
X7772230Y-22259845D01*
X7772230Y-22259845D02*
X7772230Y-22307465D01*
X7772230Y-22307465D02*
X7762706Y-22345560D01*
X7762706Y-22345560D02*
X7753182Y-22364607D01*
X7753182Y-22364607D02*
X7743658Y-22374131D01*
X7743658Y-22374131D02*
X7724611Y-22383655D01*
X7724611Y-22383655D02*
X7705563Y-22383655D01*
X7705563Y-22383655D02*
X7686515Y-22374131D01*
X7686515Y-22374131D02*
X7676991Y-22364607D01*
X7676991Y-22364607D02*
X7667468Y-22345560D01*
X7667468Y-22345560D02*
X7657944Y-22307465D01*
X7657944Y-22307465D02*
X7657944Y-22259845D01*
X7657944Y-22259845D02*
X7667468Y-22221750D01*
X7667468Y-22221750D02*
X7676991Y-22202703D01*
X7676991Y-22202703D02*
X7686515Y-22193179D01*
X7686515Y-22193179D02*
X7705563Y-22183655D01*
X7896039Y-22183655D02*
X7915087Y-22183655D01*
X7915087Y-22183655D02*
X7934134Y-22193179D01*
X7934134Y-22193179D02*
X7943658Y-22202703D01*
X7943658Y-22202703D02*
X7953182Y-22221750D01*
X7953182Y-22221750D02*
X7962706Y-22259845D01*
X7962706Y-22259845D02*
X7962706Y-22307465D01*
X7962706Y-22307465D02*
X7953182Y-22345560D01*
X7953182Y-22345560D02*
X7943658Y-22364607D01*
X7943658Y-22364607D02*
X7934134Y-22374131D01*
X7934134Y-22374131D02*
X7915087Y-22383655D01*
X7915087Y-22383655D02*
X7896039Y-22383655D01*
X7896039Y-22383655D02*
X7876991Y-22374131D01*
X7876991Y-22374131D02*
X7867468Y-22364607D01*
X7867468Y-22364607D02*
X7857944Y-22345560D01*
X7857944Y-22345560D02*
X7848420Y-22307465D01*
X7848420Y-22307465D02*
X7848420Y-22259845D01*
X7848420Y-22259845D02*
X7857944Y-22221750D01*
X7857944Y-22221750D02*
X7867468Y-22202703D01*
X7867468Y-22202703D02*
X7876991Y-22193179D01*
X7876991Y-22193179D02*
X7896039Y-22183655D01*
X8048420Y-22383655D02*
X8048420Y-22250322D01*
X8048420Y-22269369D02*
X8057944Y-22259845D01*
X8057944Y-22259845D02*
X8076991Y-22250322D01*
X8076991Y-22250322D02*
X8105563Y-22250322D01*
X8105563Y-22250322D02*
X8124611Y-22259845D01*
X8124611Y-22259845D02*
X8134134Y-22278893D01*
X8134134Y-22278893D02*
X8134134Y-22383655D01*
X8134134Y-22278893D02*
X8143658Y-22259845D01*
X8143658Y-22259845D02*
X8162706Y-22250322D01*
X8162706Y-22250322D02*
X8191277Y-22250322D01*
X8191277Y-22250322D02*
X8210325Y-22259845D01*
X8210325Y-22259845D02*
X8219849Y-22278893D01*
X8219849Y-22278893D02*
X8219849Y-22383655D01*
X8315087Y-22383655D02*
X8315087Y-22250322D01*
X8315087Y-22269369D02*
X8324611Y-22259845D01*
X8324611Y-22259845D02*
X8343658Y-22250322D01*
X8343658Y-22250322D02*
X8372230Y-22250322D01*
X8372230Y-22250322D02*
X8391277Y-22259845D01*
X8391277Y-22259845D02*
X8400801Y-22278893D01*
X8400801Y-22278893D02*
X8400801Y-22383655D01*
X8400801Y-22278893D02*
X8410325Y-22259845D01*
X8410325Y-22259845D02*
X8429373Y-22250322D01*
X8429373Y-22250322D02*
X8457944Y-22250322D01*
X8457944Y-22250322D02*
X8476992Y-22259845D01*
X8476992Y-22259845D02*
X8486515Y-22278893D01*
X8486515Y-22278893D02*
X8486515Y-22383655D01*
X8876992Y-22174131D02*
X8705563Y-22431274D01*
X9134135Y-22183655D02*
X9153182Y-22183655D01*
X9153182Y-22183655D02*
X9172230Y-22193179D01*
X9172230Y-22193179D02*
X9181754Y-22202703D01*
X9181754Y-22202703D02*
X9191277Y-22221750D01*
X9191277Y-22221750D02*
X9200801Y-22259845D01*
X9200801Y-22259845D02*
X9200801Y-22307465D01*
X9200801Y-22307465D02*
X9191277Y-22345560D01*
X9191277Y-22345560D02*
X9181754Y-22364607D01*
X9181754Y-22364607D02*
X9172230Y-22374131D01*
X9172230Y-22374131D02*
X9153182Y-22383655D01*
X9153182Y-22383655D02*
X9134135Y-22383655D01*
X9134135Y-22383655D02*
X9115087Y-22374131D01*
X9115087Y-22374131D02*
X9105563Y-22364607D01*
X9105563Y-22364607D02*
X9096039Y-22345560D01*
X9096039Y-22345560D02*
X9086516Y-22307465D01*
X9086516Y-22307465D02*
X9086516Y-22259845D01*
X9086516Y-22259845D02*
X9096039Y-22221750D01*
X9096039Y-22221750D02*
X9105563Y-22202703D01*
X9105563Y-22202703D02*
X9115087Y-22193179D01*
X9115087Y-22193179D02*
X9134135Y-22183655D01*
X9286516Y-22364607D02*
X9296039Y-22374131D01*
X9296039Y-22374131D02*
X9286516Y-22383655D01*
X9286516Y-22383655D02*
X9276992Y-22374131D01*
X9276992Y-22374131D02*
X9286516Y-22364607D01*
X9286516Y-22364607D02*
X9286516Y-22383655D01*
X9419849Y-22183655D02*
X9438897Y-22183655D01*
X9438897Y-22183655D02*
X9457944Y-22193179D01*
X9457944Y-22193179D02*
X9467468Y-22202703D01*
X9467468Y-22202703D02*
X9476992Y-22221750D01*
X9476992Y-22221750D02*
X9486516Y-22259845D01*
X9486516Y-22259845D02*
X9486516Y-22307465D01*
X9486516Y-22307465D02*
X9476992Y-22345560D01*
X9476992Y-22345560D02*
X9467468Y-22364607D01*
X9467468Y-22364607D02*
X9457944Y-22374131D01*
X9457944Y-22374131D02*
X9438897Y-22383655D01*
X9438897Y-22383655D02*
X9419849Y-22383655D01*
X9419849Y-22383655D02*
X9400801Y-22374131D01*
X9400801Y-22374131D02*
X9391277Y-22364607D01*
X9391277Y-22364607D02*
X9381754Y-22345560D01*
X9381754Y-22345560D02*
X9372230Y-22307465D01*
X9372230Y-22307465D02*
X9372230Y-22259845D01*
X9372230Y-22259845D02*
X9381754Y-22221750D01*
X9381754Y-22221750D02*
X9391277Y-22202703D01*
X9391277Y-22202703D02*
X9400801Y-22193179D01*
X9400801Y-22193179D02*
X9419849Y-22183655D01*
X9676992Y-22383655D02*
X9562706Y-22383655D01*
X9619849Y-22383655D02*
X9619849Y-22183655D01*
X9619849Y-22183655D02*
X9600801Y-22212226D01*
X9600801Y-22212226D02*
X9581754Y-22231274D01*
X9581754Y-22231274D02*
X9562706Y-22240798D01*
X9867468Y-22383655D02*
X9753182Y-22383655D01*
X9810325Y-22383655D02*
X9810325Y-22183655D01*
X9810325Y-22183655D02*
X9791277Y-22212226D01*
X9791277Y-22212226D02*
X9772230Y-22231274D01*
X9772230Y-22231274D02*
X9753182Y-22240798D01*
X9981754Y-22269369D02*
X9962706Y-22259845D01*
X9962706Y-22259845D02*
X9953182Y-22250322D01*
X9953182Y-22250322D02*
X9943658Y-22231274D01*
X9943658Y-22231274D02*
X9943658Y-22221750D01*
X9943658Y-22221750D02*
X9953182Y-22202703D01*
X9953182Y-22202703D02*
X9962706Y-22193179D01*
X9962706Y-22193179D02*
X9981754Y-22183655D01*
X9981754Y-22183655D02*
X10019849Y-22183655D01*
X10019849Y-22183655D02*
X10038897Y-22193179D01*
X10038897Y-22193179D02*
X10048420Y-22202703D01*
X10048420Y-22202703D02*
X10057944Y-22221750D01*
X10057944Y-22221750D02*
X10057944Y-22231274D01*
X10057944Y-22231274D02*
X10048420Y-22250322D01*
X10048420Y-22250322D02*
X10038897Y-22259845D01*
X10038897Y-22259845D02*
X10019849Y-22269369D01*
X10019849Y-22269369D02*
X9981754Y-22269369D01*
X9981754Y-22269369D02*
X9962706Y-22278893D01*
X9962706Y-22278893D02*
X9953182Y-22288417D01*
X9953182Y-22288417D02*
X9943658Y-22307465D01*
X9943658Y-22307465D02*
X9943658Y-22345560D01*
X9943658Y-22345560D02*
X9953182Y-22364607D01*
X9953182Y-22364607D02*
X9962706Y-22374131D01*
X9962706Y-22374131D02*
X9981754Y-22383655D01*
X9981754Y-22383655D02*
X10019849Y-22383655D01*
X10019849Y-22383655D02*
X10038897Y-22374131D01*
X10038897Y-22374131D02*
X10048420Y-22364607D01*
X10048420Y-22364607D02*
X10057944Y-22345560D01*
X10057944Y-22345560D02*
X10057944Y-22307465D01*
X10057944Y-22307465D02*
X10048420Y-22288417D01*
X10048420Y-22288417D02*
X10038897Y-22278893D01*
X10038897Y-22278893D02*
X10019849Y-22269369D01*
X10134135Y-22183655D02*
X10134135Y-22221750D01*
X10210325Y-22183655D02*
X10210325Y-22221750D01*
X10505563Y-22459845D02*
X10496039Y-22450322D01*
X10496039Y-22450322D02*
X10476992Y-22421750D01*
X10476992Y-22421750D02*
X10467468Y-22402703D01*
X10467468Y-22402703D02*
X10457944Y-22374131D01*
X10457944Y-22374131D02*
X10448420Y-22326512D01*
X10448420Y-22326512D02*
X10448420Y-22288417D01*
X10448420Y-22288417D02*
X10457944Y-22240798D01*
X10457944Y-22240798D02*
X10467468Y-22212226D01*
X10467468Y-22212226D02*
X10476992Y-22193179D01*
X10476992Y-22193179D02*
X10496039Y-22164607D01*
X10496039Y-22164607D02*
X10505563Y-22155084D01*
X10676992Y-22183655D02*
X10581754Y-22183655D01*
X10581754Y-22183655D02*
X10572230Y-22278893D01*
X10572230Y-22278893D02*
X10581754Y-22269369D01*
X10581754Y-22269369D02*
X10600801Y-22259845D01*
X10600801Y-22259845D02*
X10648420Y-22259845D01*
X10648420Y-22259845D02*
X10667468Y-22269369D01*
X10667468Y-22269369D02*
X10676992Y-22278893D01*
X10676992Y-22278893D02*
X10686516Y-22297941D01*
X10686516Y-22297941D02*
X10686516Y-22345560D01*
X10686516Y-22345560D02*
X10676992Y-22364607D01*
X10676992Y-22364607D02*
X10667468Y-22374131D01*
X10667468Y-22374131D02*
X10648420Y-22383655D01*
X10648420Y-22383655D02*
X10600801Y-22383655D01*
X10600801Y-22383655D02*
X10581754Y-22374131D01*
X10581754Y-22374131D02*
X10572230Y-22364607D01*
X10857944Y-22183655D02*
X10819849Y-22183655D01*
X10819849Y-22183655D02*
X10800801Y-22193179D01*
X10800801Y-22193179D02*
X10791278Y-22202703D01*
X10791278Y-22202703D02*
X10772230Y-22231274D01*
X10772230Y-22231274D02*
X10762706Y-22269369D01*
X10762706Y-22269369D02*
X10762706Y-22345560D01*
X10762706Y-22345560D02*
X10772230Y-22364607D01*
X10772230Y-22364607D02*
X10781754Y-22374131D01*
X10781754Y-22374131D02*
X10800801Y-22383655D01*
X10800801Y-22383655D02*
X10838897Y-22383655D01*
X10838897Y-22383655D02*
X10857944Y-22374131D01*
X10857944Y-22374131D02*
X10867468Y-22364607D01*
X10867468Y-22364607D02*
X10876992Y-22345560D01*
X10876992Y-22345560D02*
X10876992Y-22297941D01*
X10876992Y-22297941D02*
X10867468Y-22278893D01*
X10867468Y-22278893D02*
X10857944Y-22269369D01*
X10857944Y-22269369D02*
X10838897Y-22259845D01*
X10838897Y-22259845D02*
X10800801Y-22259845D01*
X10800801Y-22259845D02*
X10781754Y-22269369D01*
X10781754Y-22269369D02*
X10772230Y-22278893D01*
X10772230Y-22278893D02*
X10762706Y-22297941D01*
X11115087Y-22383655D02*
X11115087Y-22183655D01*
X11200801Y-22383655D02*
X11200801Y-22278893D01*
X11200801Y-22278893D02*
X11191278Y-22259845D01*
X11191278Y-22259845D02*
X11172230Y-22250322D01*
X11172230Y-22250322D02*
X11143659Y-22250322D01*
X11143659Y-22250322D02*
X11124611Y-22259845D01*
X11124611Y-22259845D02*
X11115087Y-22269369D01*
X11324611Y-22383655D02*
X11305563Y-22374131D01*
X11305563Y-22374131D02*
X11296039Y-22364607D01*
X11296039Y-22364607D02*
X11286516Y-22345560D01*
X11286516Y-22345560D02*
X11286516Y-22288417D01*
X11286516Y-22288417D02*
X11296039Y-22269369D01*
X11296039Y-22269369D02*
X11305563Y-22259845D01*
X11305563Y-22259845D02*
X11324611Y-22250322D01*
X11324611Y-22250322D02*
X11353182Y-22250322D01*
X11353182Y-22250322D02*
X11372230Y-22259845D01*
X11372230Y-22259845D02*
X11381754Y-22269369D01*
X11381754Y-22269369D02*
X11391278Y-22288417D01*
X11391278Y-22288417D02*
X11391278Y-22345560D01*
X11391278Y-22345560D02*
X11381754Y-22364607D01*
X11381754Y-22364607D02*
X11372230Y-22374131D01*
X11372230Y-22374131D02*
X11353182Y-22383655D01*
X11353182Y-22383655D02*
X11324611Y-22383655D01*
X11505563Y-22383655D02*
X11486516Y-22374131D01*
X11486516Y-22374131D02*
X11476992Y-22355084D01*
X11476992Y-22355084D02*
X11476992Y-22183655D01*
X11657944Y-22374131D02*
X11638897Y-22383655D01*
X11638897Y-22383655D02*
X11600801Y-22383655D01*
X11600801Y-22383655D02*
X11581754Y-22374131D01*
X11581754Y-22374131D02*
X11572230Y-22355084D01*
X11572230Y-22355084D02*
X11572230Y-22278893D01*
X11572230Y-22278893D02*
X11581754Y-22259845D01*
X11581754Y-22259845D02*
X11600801Y-22250322D01*
X11600801Y-22250322D02*
X11638897Y-22250322D01*
X11638897Y-22250322D02*
X11657944Y-22259845D01*
X11657944Y-22259845D02*
X11667468Y-22278893D01*
X11667468Y-22278893D02*
X11667468Y-22297941D01*
X11667468Y-22297941D02*
X11572230Y-22316988D01*
X11743659Y-22374131D02*
X11762706Y-22383655D01*
X11762706Y-22383655D02*
X11800801Y-22383655D01*
X11800801Y-22383655D02*
X11819849Y-22374131D01*
X11819849Y-22374131D02*
X11829373Y-22355084D01*
X11829373Y-22355084D02*
X11829373Y-22345560D01*
X11829373Y-22345560D02*
X11819849Y-22326512D01*
X11819849Y-22326512D02*
X11800801Y-22316988D01*
X11800801Y-22316988D02*
X11772230Y-22316988D01*
X11772230Y-22316988D02*
X11753182Y-22307465D01*
X11753182Y-22307465D02*
X11743659Y-22288417D01*
X11743659Y-22288417D02*
X11743659Y-22278893D01*
X11743659Y-22278893D02*
X11753182Y-22259845D01*
X11753182Y-22259845D02*
X11772230Y-22250322D01*
X11772230Y-22250322D02*
X11800801Y-22250322D01*
X11800801Y-22250322D02*
X11819849Y-22259845D01*
X11896040Y-22459845D02*
X11905563Y-22450322D01*
X11905563Y-22450322D02*
X11924611Y-22421750D01*
X11924611Y-22421750D02*
X11934135Y-22402703D01*
X11934135Y-22402703D02*
X11943659Y-22374131D01*
X11943659Y-22374131D02*
X11953182Y-22326512D01*
X11953182Y-22326512D02*
X11953182Y-22288417D01*
X11953182Y-22288417D02*
X11943659Y-22240798D01*
X11943659Y-22240798D02*
X11934135Y-22212226D01*
X11934135Y-22212226D02*
X11924611Y-22193179D01*
X11924611Y-22193179D02*
X11905563Y-22164607D01*
X11905563Y-22164607D02*
X11896040Y-22155084D01*
D12*
X6930500Y-22556171D02*
G75*
G02*
X6880500Y-22556171I-25000J0D01*
G01*
X6880500Y-22556171D02*
G75*
G02*
X6930500Y-22556171I25000J0D01*
G01*
D11*
X7229372Y-22447655D02*
X7248420Y-22447655D01*
X7248420Y-22447655D02*
X7267468Y-22457179D01*
X7267468Y-22457179D02*
X7276991Y-22466703D01*
X7276991Y-22466703D02*
X7286515Y-22485750D01*
X7286515Y-22485750D02*
X7296039Y-22523845D01*
X7296039Y-22523845D02*
X7296039Y-22571464D01*
X7296039Y-22571464D02*
X7286515Y-22609560D01*
X7286515Y-22609560D02*
X7276991Y-22628607D01*
X7276991Y-22628607D02*
X7267468Y-22638131D01*
X7267468Y-22638131D02*
X7248420Y-22647655D01*
X7248420Y-22647655D02*
X7229372Y-22647655D01*
X7229372Y-22647655D02*
X7210325Y-22638131D01*
X7210325Y-22638131D02*
X7200801Y-22628607D01*
X7200801Y-22628607D02*
X7191277Y-22609560D01*
X7191277Y-22609560D02*
X7181753Y-22571464D01*
X7181753Y-22571464D02*
X7181753Y-22523845D01*
X7181753Y-22523845D02*
X7191277Y-22485750D01*
X7191277Y-22485750D02*
X7200801Y-22466703D01*
X7200801Y-22466703D02*
X7210325Y-22457179D01*
X7210325Y-22457179D02*
X7229372Y-22447655D01*
X7381753Y-22628607D02*
X7391277Y-22638131D01*
X7391277Y-22638131D02*
X7381753Y-22647655D01*
X7381753Y-22647655D02*
X7372230Y-22638131D01*
X7372230Y-22638131D02*
X7381753Y-22628607D01*
X7381753Y-22628607D02*
X7381753Y-22647655D01*
X7572230Y-22447655D02*
X7476991Y-22447655D01*
X7476991Y-22447655D02*
X7467468Y-22542893D01*
X7467468Y-22542893D02*
X7476991Y-22533369D01*
X7476991Y-22533369D02*
X7496039Y-22523845D01*
X7496039Y-22523845D02*
X7543658Y-22523845D01*
X7543658Y-22523845D02*
X7562706Y-22533369D01*
X7562706Y-22533369D02*
X7572230Y-22542893D01*
X7572230Y-22542893D02*
X7581753Y-22561941D01*
X7581753Y-22561941D02*
X7581753Y-22609560D01*
X7581753Y-22609560D02*
X7572230Y-22628607D01*
X7572230Y-22628607D02*
X7562706Y-22638131D01*
X7562706Y-22638131D02*
X7543658Y-22647655D01*
X7543658Y-22647655D02*
X7496039Y-22647655D01*
X7496039Y-22647655D02*
X7476991Y-22638131D01*
X7476991Y-22638131D02*
X7467468Y-22628607D01*
X7705563Y-22447655D02*
X7724611Y-22447655D01*
X7724611Y-22447655D02*
X7743658Y-22457179D01*
X7743658Y-22457179D02*
X7753182Y-22466703D01*
X7753182Y-22466703D02*
X7762706Y-22485750D01*
X7762706Y-22485750D02*
X7772230Y-22523845D01*
X7772230Y-22523845D02*
X7772230Y-22571464D01*
X7772230Y-22571464D02*
X7762706Y-22609560D01*
X7762706Y-22609560D02*
X7753182Y-22628607D01*
X7753182Y-22628607D02*
X7743658Y-22638131D01*
X7743658Y-22638131D02*
X7724611Y-22647655D01*
X7724611Y-22647655D02*
X7705563Y-22647655D01*
X7705563Y-22647655D02*
X7686515Y-22638131D01*
X7686515Y-22638131D02*
X7676991Y-22628607D01*
X7676991Y-22628607D02*
X7667468Y-22609560D01*
X7667468Y-22609560D02*
X7657944Y-22571464D01*
X7657944Y-22571464D02*
X7657944Y-22523845D01*
X7657944Y-22523845D02*
X7667468Y-22485750D01*
X7667468Y-22485750D02*
X7676991Y-22466703D01*
X7676991Y-22466703D02*
X7686515Y-22457179D01*
X7686515Y-22457179D02*
X7705563Y-22447655D01*
X7896039Y-22447655D02*
X7915087Y-22447655D01*
X7915087Y-22447655D02*
X7934134Y-22457179D01*
X7934134Y-22457179D02*
X7943658Y-22466703D01*
X7943658Y-22466703D02*
X7953182Y-22485750D01*
X7953182Y-22485750D02*
X7962706Y-22523845D01*
X7962706Y-22523845D02*
X7962706Y-22571464D01*
X7962706Y-22571464D02*
X7953182Y-22609560D01*
X7953182Y-22609560D02*
X7943658Y-22628607D01*
X7943658Y-22628607D02*
X7934134Y-22638131D01*
X7934134Y-22638131D02*
X7915087Y-22647655D01*
X7915087Y-22647655D02*
X7896039Y-22647655D01*
X7896039Y-22647655D02*
X7876991Y-22638131D01*
X7876991Y-22638131D02*
X7867468Y-22628607D01*
X7867468Y-22628607D02*
X7857944Y-22609560D01*
X7857944Y-22609560D02*
X7848420Y-22571464D01*
X7848420Y-22571464D02*
X7848420Y-22523845D01*
X7848420Y-22523845D02*
X7857944Y-22485750D01*
X7857944Y-22485750D02*
X7867468Y-22466703D01*
X7867468Y-22466703D02*
X7876991Y-22457179D01*
X7876991Y-22457179D02*
X7896039Y-22447655D01*
X8048420Y-22647655D02*
X8048420Y-22514322D01*
X8048420Y-22533369D02*
X8057944Y-22523845D01*
X8057944Y-22523845D02*
X8076991Y-22514322D01*
X8076991Y-22514322D02*
X8105563Y-22514322D01*
X8105563Y-22514322D02*
X8124611Y-22523845D01*
X8124611Y-22523845D02*
X8134134Y-22542893D01*
X8134134Y-22542893D02*
X8134134Y-22647655D01*
X8134134Y-22542893D02*
X8143658Y-22523845D01*
X8143658Y-22523845D02*
X8162706Y-22514322D01*
X8162706Y-22514322D02*
X8191277Y-22514322D01*
X8191277Y-22514322D02*
X8210325Y-22523845D01*
X8210325Y-22523845D02*
X8219849Y-22542893D01*
X8219849Y-22542893D02*
X8219849Y-22647655D01*
X8315087Y-22647655D02*
X8315087Y-22514322D01*
X8315087Y-22533369D02*
X8324611Y-22523845D01*
X8324611Y-22523845D02*
X8343658Y-22514322D01*
X8343658Y-22514322D02*
X8372230Y-22514322D01*
X8372230Y-22514322D02*
X8391277Y-22523845D01*
X8391277Y-22523845D02*
X8400801Y-22542893D01*
X8400801Y-22542893D02*
X8400801Y-22647655D01*
X8400801Y-22542893D02*
X8410325Y-22523845D01*
X8410325Y-22523845D02*
X8429373Y-22514322D01*
X8429373Y-22514322D02*
X8457944Y-22514322D01*
X8457944Y-22514322D02*
X8476992Y-22523845D01*
X8476992Y-22523845D02*
X8486515Y-22542893D01*
X8486515Y-22542893D02*
X8486515Y-22647655D01*
X8876992Y-22438131D02*
X8705563Y-22695274D01*
X9134135Y-22447655D02*
X9153182Y-22447655D01*
X9153182Y-22447655D02*
X9172230Y-22457179D01*
X9172230Y-22457179D02*
X9181754Y-22466703D01*
X9181754Y-22466703D02*
X9191277Y-22485750D01*
X9191277Y-22485750D02*
X9200801Y-22523845D01*
X9200801Y-22523845D02*
X9200801Y-22571464D01*
X9200801Y-22571464D02*
X9191277Y-22609560D01*
X9191277Y-22609560D02*
X9181754Y-22628607D01*
X9181754Y-22628607D02*
X9172230Y-22638131D01*
X9172230Y-22638131D02*
X9153182Y-22647655D01*
X9153182Y-22647655D02*
X9134135Y-22647655D01*
X9134135Y-22647655D02*
X9115087Y-22638131D01*
X9115087Y-22638131D02*
X9105563Y-22628607D01*
X9105563Y-22628607D02*
X9096039Y-22609560D01*
X9096039Y-22609560D02*
X9086516Y-22571464D01*
X9086516Y-22571464D02*
X9086516Y-22523845D01*
X9086516Y-22523845D02*
X9096039Y-22485750D01*
X9096039Y-22485750D02*
X9105563Y-22466703D01*
X9105563Y-22466703D02*
X9115087Y-22457179D01*
X9115087Y-22457179D02*
X9134135Y-22447655D01*
X9286516Y-22628607D02*
X9296039Y-22638131D01*
X9296039Y-22638131D02*
X9286516Y-22647655D01*
X9286516Y-22647655D02*
X9276992Y-22638131D01*
X9276992Y-22638131D02*
X9286516Y-22628607D01*
X9286516Y-22628607D02*
X9286516Y-22647655D01*
X9419849Y-22447655D02*
X9438897Y-22447655D01*
X9438897Y-22447655D02*
X9457944Y-22457179D01*
X9457944Y-22457179D02*
X9467468Y-22466703D01*
X9467468Y-22466703D02*
X9476992Y-22485750D01*
X9476992Y-22485750D02*
X9486516Y-22523845D01*
X9486516Y-22523845D02*
X9486516Y-22571464D01*
X9486516Y-22571464D02*
X9476992Y-22609560D01*
X9476992Y-22609560D02*
X9467468Y-22628607D01*
X9467468Y-22628607D02*
X9457944Y-22638131D01*
X9457944Y-22638131D02*
X9438897Y-22647655D01*
X9438897Y-22647655D02*
X9419849Y-22647655D01*
X9419849Y-22647655D02*
X9400801Y-22638131D01*
X9400801Y-22638131D02*
X9391277Y-22628607D01*
X9391277Y-22628607D02*
X9381754Y-22609560D01*
X9381754Y-22609560D02*
X9372230Y-22571464D01*
X9372230Y-22571464D02*
X9372230Y-22523845D01*
X9372230Y-22523845D02*
X9381754Y-22485750D01*
X9381754Y-22485750D02*
X9391277Y-22466703D01*
X9391277Y-22466703D02*
X9400801Y-22457179D01*
X9400801Y-22457179D02*
X9419849Y-22447655D01*
X9676992Y-22647655D02*
X9562706Y-22647655D01*
X9619849Y-22647655D02*
X9619849Y-22447655D01*
X9619849Y-22447655D02*
X9600801Y-22476226D01*
X9600801Y-22476226D02*
X9581754Y-22495274D01*
X9581754Y-22495274D02*
X9562706Y-22504798D01*
X9772230Y-22647655D02*
X9810325Y-22647655D01*
X9810325Y-22647655D02*
X9829373Y-22638131D01*
X9829373Y-22638131D02*
X9838897Y-22628607D01*
X9838897Y-22628607D02*
X9857944Y-22600036D01*
X9857944Y-22600036D02*
X9867468Y-22561941D01*
X9867468Y-22561941D02*
X9867468Y-22485750D01*
X9867468Y-22485750D02*
X9857944Y-22466703D01*
X9857944Y-22466703D02*
X9848420Y-22457179D01*
X9848420Y-22457179D02*
X9829373Y-22447655D01*
X9829373Y-22447655D02*
X9791277Y-22447655D01*
X9791277Y-22447655D02*
X9772230Y-22457179D01*
X9772230Y-22457179D02*
X9762706Y-22466703D01*
X9762706Y-22466703D02*
X9753182Y-22485750D01*
X9753182Y-22485750D02*
X9753182Y-22533369D01*
X9753182Y-22533369D02*
X9762706Y-22552417D01*
X9762706Y-22552417D02*
X9772230Y-22561941D01*
X9772230Y-22561941D02*
X9791277Y-22571464D01*
X9791277Y-22571464D02*
X9829373Y-22571464D01*
X9829373Y-22571464D02*
X9848420Y-22561941D01*
X9848420Y-22561941D02*
X9857944Y-22552417D01*
X9857944Y-22552417D02*
X9867468Y-22533369D01*
X9934135Y-22447655D02*
X10067468Y-22447655D01*
X10067468Y-22447655D02*
X9981754Y-22647655D01*
X10134135Y-22447655D02*
X10134135Y-22485750D01*
X10210325Y-22447655D02*
X10210325Y-22485750D01*
X10505563Y-22723845D02*
X10496039Y-22714322D01*
X10496039Y-22714322D02*
X10476992Y-22685750D01*
X10476992Y-22685750D02*
X10467468Y-22666703D01*
X10467468Y-22666703D02*
X10457944Y-22638131D01*
X10457944Y-22638131D02*
X10448420Y-22590512D01*
X10448420Y-22590512D02*
X10448420Y-22552417D01*
X10448420Y-22552417D02*
X10457944Y-22504798D01*
X10457944Y-22504798D02*
X10467468Y-22476226D01*
X10467468Y-22476226D02*
X10476992Y-22457179D01*
X10476992Y-22457179D02*
X10496039Y-22428607D01*
X10496039Y-22428607D02*
X10505563Y-22419083D01*
X10572230Y-22466703D02*
X10581754Y-22457179D01*
X10581754Y-22457179D02*
X10600801Y-22447655D01*
X10600801Y-22447655D02*
X10648420Y-22447655D01*
X10648420Y-22447655D02*
X10667468Y-22457179D01*
X10667468Y-22457179D02*
X10676992Y-22466703D01*
X10676992Y-22466703D02*
X10686516Y-22485750D01*
X10686516Y-22485750D02*
X10686516Y-22504798D01*
X10686516Y-22504798D02*
X10676992Y-22533369D01*
X10676992Y-22533369D02*
X10562706Y-22647655D01*
X10562706Y-22647655D02*
X10686516Y-22647655D01*
X10857944Y-22514322D02*
X10857944Y-22647655D01*
X10810325Y-22438131D02*
X10762706Y-22580988D01*
X10762706Y-22580988D02*
X10886516Y-22580988D01*
X11115087Y-22647655D02*
X11115087Y-22447655D01*
X11200801Y-22647655D02*
X11200801Y-22542893D01*
X11200801Y-22542893D02*
X11191278Y-22523845D01*
X11191278Y-22523845D02*
X11172230Y-22514322D01*
X11172230Y-22514322D02*
X11143659Y-22514322D01*
X11143659Y-22514322D02*
X11124611Y-22523845D01*
X11124611Y-22523845D02*
X11115087Y-22533369D01*
X11324611Y-22647655D02*
X11305563Y-22638131D01*
X11305563Y-22638131D02*
X11296039Y-22628607D01*
X11296039Y-22628607D02*
X11286516Y-22609560D01*
X11286516Y-22609560D02*
X11286516Y-22552417D01*
X11286516Y-22552417D02*
X11296039Y-22533369D01*
X11296039Y-22533369D02*
X11305563Y-22523845D01*
X11305563Y-22523845D02*
X11324611Y-22514322D01*
X11324611Y-22514322D02*
X11353182Y-22514322D01*
X11353182Y-22514322D02*
X11372230Y-22523845D01*
X11372230Y-22523845D02*
X11381754Y-22533369D01*
X11381754Y-22533369D02*
X11391278Y-22552417D01*
X11391278Y-22552417D02*
X11391278Y-22609560D01*
X11391278Y-22609560D02*
X11381754Y-22628607D01*
X11381754Y-22628607D02*
X11372230Y-22638131D01*
X11372230Y-22638131D02*
X11353182Y-22647655D01*
X11353182Y-22647655D02*
X11324611Y-22647655D01*
X11505563Y-22647655D02*
X11486516Y-22638131D01*
X11486516Y-22638131D02*
X11476992Y-22619083D01*
X11476992Y-22619083D02*
X11476992Y-22447655D01*
X11657944Y-22638131D02*
X11638897Y-22647655D01*
X11638897Y-22647655D02*
X11600801Y-22647655D01*
X11600801Y-22647655D02*
X11581754Y-22638131D01*
X11581754Y-22638131D02*
X11572230Y-22619083D01*
X11572230Y-22619083D02*
X11572230Y-22542893D01*
X11572230Y-22542893D02*
X11581754Y-22523845D01*
X11581754Y-22523845D02*
X11600801Y-22514322D01*
X11600801Y-22514322D02*
X11638897Y-22514322D01*
X11638897Y-22514322D02*
X11657944Y-22523845D01*
X11657944Y-22523845D02*
X11667468Y-22542893D01*
X11667468Y-22542893D02*
X11667468Y-22561941D01*
X11667468Y-22561941D02*
X11572230Y-22580988D01*
X11743659Y-22638131D02*
X11762706Y-22647655D01*
X11762706Y-22647655D02*
X11800801Y-22647655D01*
X11800801Y-22647655D02*
X11819849Y-22638131D01*
X11819849Y-22638131D02*
X11829373Y-22619083D01*
X11829373Y-22619083D02*
X11829373Y-22609560D01*
X11829373Y-22609560D02*
X11819849Y-22590512D01*
X11819849Y-22590512D02*
X11800801Y-22580988D01*
X11800801Y-22580988D02*
X11772230Y-22580988D01*
X11772230Y-22580988D02*
X11753182Y-22571464D01*
X11753182Y-22571464D02*
X11743659Y-22552417D01*
X11743659Y-22552417D02*
X11743659Y-22542893D01*
X11743659Y-22542893D02*
X11753182Y-22523845D01*
X11753182Y-22523845D02*
X11772230Y-22514322D01*
X11772230Y-22514322D02*
X11800801Y-22514322D01*
X11800801Y-22514322D02*
X11819849Y-22523845D01*
X11896040Y-22723845D02*
X11905563Y-22714322D01*
X11905563Y-22714322D02*
X11924611Y-22685750D01*
X11924611Y-22685750D02*
X11934135Y-22666703D01*
X11934135Y-22666703D02*
X11943659Y-22638131D01*
X11943659Y-22638131D02*
X11953182Y-22590512D01*
X11953182Y-22590512D02*
X11953182Y-22552417D01*
X11953182Y-22552417D02*
X11943659Y-22504798D01*
X11943659Y-22504798D02*
X11934135Y-22476226D01*
X11934135Y-22476226D02*
X11924611Y-22457179D01*
X11924611Y-22457179D02*
X11905563Y-22428607D01*
X11905563Y-22428607D02*
X11896040Y-22419083D01*
D12*
X6890500Y-22780171D02*
X6890500Y-22860171D01*
X6850500Y-22820171D02*
X6930500Y-22820171D01*
D11*
X7229372Y-22711655D02*
X7248420Y-22711655D01*
X7248420Y-22711655D02*
X7267468Y-22721179D01*
X7267468Y-22721179D02*
X7276991Y-22730703D01*
X7276991Y-22730703D02*
X7286515Y-22749750D01*
X7286515Y-22749750D02*
X7296039Y-22787845D01*
X7296039Y-22787845D02*
X7296039Y-22835464D01*
X7296039Y-22835464D02*
X7286515Y-22873560D01*
X7286515Y-22873560D02*
X7276991Y-22892607D01*
X7276991Y-22892607D02*
X7267468Y-22902131D01*
X7267468Y-22902131D02*
X7248420Y-22911655D01*
X7248420Y-22911655D02*
X7229372Y-22911655D01*
X7229372Y-22911655D02*
X7210325Y-22902131D01*
X7210325Y-22902131D02*
X7200801Y-22892607D01*
X7200801Y-22892607D02*
X7191277Y-22873560D01*
X7191277Y-22873560D02*
X7181753Y-22835464D01*
X7181753Y-22835464D02*
X7181753Y-22787845D01*
X7181753Y-22787845D02*
X7191277Y-22749750D01*
X7191277Y-22749750D02*
X7200801Y-22730703D01*
X7200801Y-22730703D02*
X7210325Y-22721179D01*
X7210325Y-22721179D02*
X7229372Y-22711655D01*
X7381753Y-22892607D02*
X7391277Y-22902131D01*
X7391277Y-22902131D02*
X7381753Y-22911655D01*
X7381753Y-22911655D02*
X7372230Y-22902131D01*
X7372230Y-22902131D02*
X7381753Y-22892607D01*
X7381753Y-22892607D02*
X7381753Y-22911655D01*
X7505563Y-22797369D02*
X7486515Y-22787845D01*
X7486515Y-22787845D02*
X7476991Y-22778322D01*
X7476991Y-22778322D02*
X7467468Y-22759274D01*
X7467468Y-22759274D02*
X7467468Y-22749750D01*
X7467468Y-22749750D02*
X7476991Y-22730703D01*
X7476991Y-22730703D02*
X7486515Y-22721179D01*
X7486515Y-22721179D02*
X7505563Y-22711655D01*
X7505563Y-22711655D02*
X7543658Y-22711655D01*
X7543658Y-22711655D02*
X7562706Y-22721179D01*
X7562706Y-22721179D02*
X7572230Y-22730703D01*
X7572230Y-22730703D02*
X7581753Y-22749750D01*
X7581753Y-22749750D02*
X7581753Y-22759274D01*
X7581753Y-22759274D02*
X7572230Y-22778322D01*
X7572230Y-22778322D02*
X7562706Y-22787845D01*
X7562706Y-22787845D02*
X7543658Y-22797369D01*
X7543658Y-22797369D02*
X7505563Y-22797369D01*
X7505563Y-22797369D02*
X7486515Y-22806893D01*
X7486515Y-22806893D02*
X7476991Y-22816417D01*
X7476991Y-22816417D02*
X7467468Y-22835464D01*
X7467468Y-22835464D02*
X7467468Y-22873560D01*
X7467468Y-22873560D02*
X7476991Y-22892607D01*
X7476991Y-22892607D02*
X7486515Y-22902131D01*
X7486515Y-22902131D02*
X7505563Y-22911655D01*
X7505563Y-22911655D02*
X7543658Y-22911655D01*
X7543658Y-22911655D02*
X7562706Y-22902131D01*
X7562706Y-22902131D02*
X7572230Y-22892607D01*
X7572230Y-22892607D02*
X7581753Y-22873560D01*
X7581753Y-22873560D02*
X7581753Y-22835464D01*
X7581753Y-22835464D02*
X7572230Y-22816417D01*
X7572230Y-22816417D02*
X7562706Y-22806893D01*
X7562706Y-22806893D02*
X7543658Y-22797369D01*
X7705563Y-22711655D02*
X7724611Y-22711655D01*
X7724611Y-22711655D02*
X7743658Y-22721179D01*
X7743658Y-22721179D02*
X7753182Y-22730703D01*
X7753182Y-22730703D02*
X7762706Y-22749750D01*
X7762706Y-22749750D02*
X7772230Y-22787845D01*
X7772230Y-22787845D02*
X7772230Y-22835464D01*
X7772230Y-22835464D02*
X7762706Y-22873560D01*
X7762706Y-22873560D02*
X7753182Y-22892607D01*
X7753182Y-22892607D02*
X7743658Y-22902131D01*
X7743658Y-22902131D02*
X7724611Y-22911655D01*
X7724611Y-22911655D02*
X7705563Y-22911655D01*
X7705563Y-22911655D02*
X7686515Y-22902131D01*
X7686515Y-22902131D02*
X7676991Y-22892607D01*
X7676991Y-22892607D02*
X7667468Y-22873560D01*
X7667468Y-22873560D02*
X7657944Y-22835464D01*
X7657944Y-22835464D02*
X7657944Y-22787845D01*
X7657944Y-22787845D02*
X7667468Y-22749750D01*
X7667468Y-22749750D02*
X7676991Y-22730703D01*
X7676991Y-22730703D02*
X7686515Y-22721179D01*
X7686515Y-22721179D02*
X7705563Y-22711655D01*
X7896039Y-22711655D02*
X7915087Y-22711655D01*
X7915087Y-22711655D02*
X7934134Y-22721179D01*
X7934134Y-22721179D02*
X7943658Y-22730703D01*
X7943658Y-22730703D02*
X7953182Y-22749750D01*
X7953182Y-22749750D02*
X7962706Y-22787845D01*
X7962706Y-22787845D02*
X7962706Y-22835464D01*
X7962706Y-22835464D02*
X7953182Y-22873560D01*
X7953182Y-22873560D02*
X7943658Y-22892607D01*
X7943658Y-22892607D02*
X7934134Y-22902131D01*
X7934134Y-22902131D02*
X7915087Y-22911655D01*
X7915087Y-22911655D02*
X7896039Y-22911655D01*
X7896039Y-22911655D02*
X7876991Y-22902131D01*
X7876991Y-22902131D02*
X7867468Y-22892607D01*
X7867468Y-22892607D02*
X7857944Y-22873560D01*
X7857944Y-22873560D02*
X7848420Y-22835464D01*
X7848420Y-22835464D02*
X7848420Y-22787845D01*
X7848420Y-22787845D02*
X7857944Y-22749750D01*
X7857944Y-22749750D02*
X7867468Y-22730703D01*
X7867468Y-22730703D02*
X7876991Y-22721179D01*
X7876991Y-22721179D02*
X7896039Y-22711655D01*
X8048420Y-22911655D02*
X8048420Y-22778322D01*
X8048420Y-22797369D02*
X8057944Y-22787845D01*
X8057944Y-22787845D02*
X8076991Y-22778322D01*
X8076991Y-22778322D02*
X8105563Y-22778322D01*
X8105563Y-22778322D02*
X8124611Y-22787845D01*
X8124611Y-22787845D02*
X8134134Y-22806893D01*
X8134134Y-22806893D02*
X8134134Y-22911655D01*
X8134134Y-22806893D02*
X8143658Y-22787845D01*
X8143658Y-22787845D02*
X8162706Y-22778322D01*
X8162706Y-22778322D02*
X8191277Y-22778322D01*
X8191277Y-22778322D02*
X8210325Y-22787845D01*
X8210325Y-22787845D02*
X8219849Y-22806893D01*
X8219849Y-22806893D02*
X8219849Y-22911655D01*
X8315087Y-22911655D02*
X8315087Y-22778322D01*
X8315087Y-22797369D02*
X8324611Y-22787845D01*
X8324611Y-22787845D02*
X8343658Y-22778322D01*
X8343658Y-22778322D02*
X8372230Y-22778322D01*
X8372230Y-22778322D02*
X8391277Y-22787845D01*
X8391277Y-22787845D02*
X8400801Y-22806893D01*
X8400801Y-22806893D02*
X8400801Y-22911655D01*
X8400801Y-22806893D02*
X8410325Y-22787845D01*
X8410325Y-22787845D02*
X8429373Y-22778322D01*
X8429373Y-22778322D02*
X8457944Y-22778322D01*
X8457944Y-22778322D02*
X8476992Y-22787845D01*
X8476992Y-22787845D02*
X8486515Y-22806893D01*
X8486515Y-22806893D02*
X8486515Y-22911655D01*
X8876992Y-22702131D02*
X8705563Y-22959274D01*
X9134135Y-22711655D02*
X9153182Y-22711655D01*
X9153182Y-22711655D02*
X9172230Y-22721179D01*
X9172230Y-22721179D02*
X9181754Y-22730703D01*
X9181754Y-22730703D02*
X9191277Y-22749750D01*
X9191277Y-22749750D02*
X9200801Y-22787845D01*
X9200801Y-22787845D02*
X9200801Y-22835464D01*
X9200801Y-22835464D02*
X9191277Y-22873560D01*
X9191277Y-22873560D02*
X9181754Y-22892607D01*
X9181754Y-22892607D02*
X9172230Y-22902131D01*
X9172230Y-22902131D02*
X9153182Y-22911655D01*
X9153182Y-22911655D02*
X9134135Y-22911655D01*
X9134135Y-22911655D02*
X9115087Y-22902131D01*
X9115087Y-22902131D02*
X9105563Y-22892607D01*
X9105563Y-22892607D02*
X9096039Y-22873560D01*
X9096039Y-22873560D02*
X9086516Y-22835464D01*
X9086516Y-22835464D02*
X9086516Y-22787845D01*
X9086516Y-22787845D02*
X9096039Y-22749750D01*
X9096039Y-22749750D02*
X9105563Y-22730703D01*
X9105563Y-22730703D02*
X9115087Y-22721179D01*
X9115087Y-22721179D02*
X9134135Y-22711655D01*
X9286516Y-22892607D02*
X9296039Y-22902131D01*
X9296039Y-22902131D02*
X9286516Y-22911655D01*
X9286516Y-22911655D02*
X9276992Y-22902131D01*
X9276992Y-22902131D02*
X9286516Y-22892607D01*
X9286516Y-22892607D02*
X9286516Y-22911655D01*
X9419849Y-22711655D02*
X9438897Y-22711655D01*
X9438897Y-22711655D02*
X9457944Y-22721179D01*
X9457944Y-22721179D02*
X9467468Y-22730703D01*
X9467468Y-22730703D02*
X9476992Y-22749750D01*
X9476992Y-22749750D02*
X9486516Y-22787845D01*
X9486516Y-22787845D02*
X9486516Y-22835464D01*
X9486516Y-22835464D02*
X9476992Y-22873560D01*
X9476992Y-22873560D02*
X9467468Y-22892607D01*
X9467468Y-22892607D02*
X9457944Y-22902131D01*
X9457944Y-22902131D02*
X9438897Y-22911655D01*
X9438897Y-22911655D02*
X9419849Y-22911655D01*
X9419849Y-22911655D02*
X9400801Y-22902131D01*
X9400801Y-22902131D02*
X9391277Y-22892607D01*
X9391277Y-22892607D02*
X9381754Y-22873560D01*
X9381754Y-22873560D02*
X9372230Y-22835464D01*
X9372230Y-22835464D02*
X9372230Y-22787845D01*
X9372230Y-22787845D02*
X9381754Y-22749750D01*
X9381754Y-22749750D02*
X9391277Y-22730703D01*
X9391277Y-22730703D02*
X9400801Y-22721179D01*
X9400801Y-22721179D02*
X9419849Y-22711655D01*
X9553182Y-22711655D02*
X9676992Y-22711655D01*
X9676992Y-22711655D02*
X9610325Y-22787845D01*
X9610325Y-22787845D02*
X9638897Y-22787845D01*
X9638897Y-22787845D02*
X9657944Y-22797369D01*
X9657944Y-22797369D02*
X9667468Y-22806893D01*
X9667468Y-22806893D02*
X9676992Y-22825941D01*
X9676992Y-22825941D02*
X9676992Y-22873560D01*
X9676992Y-22873560D02*
X9667468Y-22892607D01*
X9667468Y-22892607D02*
X9657944Y-22902131D01*
X9657944Y-22902131D02*
X9638897Y-22911655D01*
X9638897Y-22911655D02*
X9581754Y-22911655D01*
X9581754Y-22911655D02*
X9562706Y-22902131D01*
X9562706Y-22902131D02*
X9553182Y-22892607D01*
X9867468Y-22911655D02*
X9753182Y-22911655D01*
X9810325Y-22911655D02*
X9810325Y-22711655D01*
X9810325Y-22711655D02*
X9791277Y-22740226D01*
X9791277Y-22740226D02*
X9772230Y-22759274D01*
X9772230Y-22759274D02*
X9753182Y-22768798D01*
X10048420Y-22711655D02*
X9953182Y-22711655D01*
X9953182Y-22711655D02*
X9943658Y-22806893D01*
X9943658Y-22806893D02*
X9953182Y-22797369D01*
X9953182Y-22797369D02*
X9972230Y-22787845D01*
X9972230Y-22787845D02*
X10019849Y-22787845D01*
X10019849Y-22787845D02*
X10038897Y-22797369D01*
X10038897Y-22797369D02*
X10048420Y-22806893D01*
X10048420Y-22806893D02*
X10057944Y-22825941D01*
X10057944Y-22825941D02*
X10057944Y-22873560D01*
X10057944Y-22873560D02*
X10048420Y-22892607D01*
X10048420Y-22892607D02*
X10038897Y-22902131D01*
X10038897Y-22902131D02*
X10019849Y-22911655D01*
X10019849Y-22911655D02*
X9972230Y-22911655D01*
X9972230Y-22911655D02*
X9953182Y-22902131D01*
X9953182Y-22902131D02*
X9943658Y-22892607D01*
X10134135Y-22711655D02*
X10134135Y-22749750D01*
X10210325Y-22711655D02*
X10210325Y-22749750D01*
X10505563Y-22987845D02*
X10496039Y-22978322D01*
X10496039Y-22978322D02*
X10476992Y-22949750D01*
X10476992Y-22949750D02*
X10467468Y-22930703D01*
X10467468Y-22930703D02*
X10457944Y-22902131D01*
X10457944Y-22902131D02*
X10448420Y-22854512D01*
X10448420Y-22854512D02*
X10448420Y-22816417D01*
X10448420Y-22816417D02*
X10457944Y-22768798D01*
X10457944Y-22768798D02*
X10467468Y-22740226D01*
X10467468Y-22740226D02*
X10476992Y-22721179D01*
X10476992Y-22721179D02*
X10496039Y-22692607D01*
X10496039Y-22692607D02*
X10505563Y-22683083D01*
X10610325Y-22797369D02*
X10591278Y-22787845D01*
X10591278Y-22787845D02*
X10581754Y-22778322D01*
X10581754Y-22778322D02*
X10572230Y-22759274D01*
X10572230Y-22759274D02*
X10572230Y-22749750D01*
X10572230Y-22749750D02*
X10581754Y-22730703D01*
X10581754Y-22730703D02*
X10591278Y-22721179D01*
X10591278Y-22721179D02*
X10610325Y-22711655D01*
X10610325Y-22711655D02*
X10648420Y-22711655D01*
X10648420Y-22711655D02*
X10667468Y-22721179D01*
X10667468Y-22721179D02*
X10676992Y-22730703D01*
X10676992Y-22730703D02*
X10686516Y-22749750D01*
X10686516Y-22749750D02*
X10686516Y-22759274D01*
X10686516Y-22759274D02*
X10676992Y-22778322D01*
X10676992Y-22778322D02*
X10667468Y-22787845D01*
X10667468Y-22787845D02*
X10648420Y-22797369D01*
X10648420Y-22797369D02*
X10610325Y-22797369D01*
X10610325Y-22797369D02*
X10591278Y-22806893D01*
X10591278Y-22806893D02*
X10581754Y-22816417D01*
X10581754Y-22816417D02*
X10572230Y-22835464D01*
X10572230Y-22835464D02*
X10572230Y-22873560D01*
X10572230Y-22873560D02*
X10581754Y-22892607D01*
X10581754Y-22892607D02*
X10591278Y-22902131D01*
X10591278Y-22902131D02*
X10610325Y-22911655D01*
X10610325Y-22911655D02*
X10648420Y-22911655D01*
X10648420Y-22911655D02*
X10667468Y-22902131D01*
X10667468Y-22902131D02*
X10676992Y-22892607D01*
X10676992Y-22892607D02*
X10686516Y-22873560D01*
X10686516Y-22873560D02*
X10686516Y-22835464D01*
X10686516Y-22835464D02*
X10676992Y-22816417D01*
X10676992Y-22816417D02*
X10667468Y-22806893D01*
X10667468Y-22806893D02*
X10648420Y-22797369D01*
X10810325Y-22711655D02*
X10829373Y-22711655D01*
X10829373Y-22711655D02*
X10848420Y-22721179D01*
X10848420Y-22721179D02*
X10857944Y-22730703D01*
X10857944Y-22730703D02*
X10867468Y-22749750D01*
X10867468Y-22749750D02*
X10876992Y-22787845D01*
X10876992Y-22787845D02*
X10876992Y-22835464D01*
X10876992Y-22835464D02*
X10867468Y-22873560D01*
X10867468Y-22873560D02*
X10857944Y-22892607D01*
X10857944Y-22892607D02*
X10848420Y-22902131D01*
X10848420Y-22902131D02*
X10829373Y-22911655D01*
X10829373Y-22911655D02*
X10810325Y-22911655D01*
X10810325Y-22911655D02*
X10791278Y-22902131D01*
X10791278Y-22902131D02*
X10781754Y-22892607D01*
X10781754Y-22892607D02*
X10772230Y-22873560D01*
X10772230Y-22873560D02*
X10762706Y-22835464D01*
X10762706Y-22835464D02*
X10762706Y-22787845D01*
X10762706Y-22787845D02*
X10772230Y-22749750D01*
X10772230Y-22749750D02*
X10781754Y-22730703D01*
X10781754Y-22730703D02*
X10791278Y-22721179D01*
X10791278Y-22721179D02*
X10810325Y-22711655D01*
X11115087Y-22911655D02*
X11115087Y-22711655D01*
X11200801Y-22911655D02*
X11200801Y-22806893D01*
X11200801Y-22806893D02*
X11191278Y-22787845D01*
X11191278Y-22787845D02*
X11172230Y-22778322D01*
X11172230Y-22778322D02*
X11143659Y-22778322D01*
X11143659Y-22778322D02*
X11124611Y-22787845D01*
X11124611Y-22787845D02*
X11115087Y-22797369D01*
X11324611Y-22911655D02*
X11305563Y-22902131D01*
X11305563Y-22902131D02*
X11296039Y-22892607D01*
X11296039Y-22892607D02*
X11286516Y-22873560D01*
X11286516Y-22873560D02*
X11286516Y-22816417D01*
X11286516Y-22816417D02*
X11296039Y-22797369D01*
X11296039Y-22797369D02*
X11305563Y-22787845D01*
X11305563Y-22787845D02*
X11324611Y-22778322D01*
X11324611Y-22778322D02*
X11353182Y-22778322D01*
X11353182Y-22778322D02*
X11372230Y-22787845D01*
X11372230Y-22787845D02*
X11381754Y-22797369D01*
X11381754Y-22797369D02*
X11391278Y-22816417D01*
X11391278Y-22816417D02*
X11391278Y-22873560D01*
X11391278Y-22873560D02*
X11381754Y-22892607D01*
X11381754Y-22892607D02*
X11372230Y-22902131D01*
X11372230Y-22902131D02*
X11353182Y-22911655D01*
X11353182Y-22911655D02*
X11324611Y-22911655D01*
X11505563Y-22911655D02*
X11486516Y-22902131D01*
X11486516Y-22902131D02*
X11476992Y-22883083D01*
X11476992Y-22883083D02*
X11476992Y-22711655D01*
X11657944Y-22902131D02*
X11638897Y-22911655D01*
X11638897Y-22911655D02*
X11600801Y-22911655D01*
X11600801Y-22911655D02*
X11581754Y-22902131D01*
X11581754Y-22902131D02*
X11572230Y-22883083D01*
X11572230Y-22883083D02*
X11572230Y-22806893D01*
X11572230Y-22806893D02*
X11581754Y-22787845D01*
X11581754Y-22787845D02*
X11600801Y-22778322D01*
X11600801Y-22778322D02*
X11638897Y-22778322D01*
X11638897Y-22778322D02*
X11657944Y-22787845D01*
X11657944Y-22787845D02*
X11667468Y-22806893D01*
X11667468Y-22806893D02*
X11667468Y-22825941D01*
X11667468Y-22825941D02*
X11572230Y-22844988D01*
X11743659Y-22902131D02*
X11762706Y-22911655D01*
X11762706Y-22911655D02*
X11800801Y-22911655D01*
X11800801Y-22911655D02*
X11819849Y-22902131D01*
X11819849Y-22902131D02*
X11829373Y-22883083D01*
X11829373Y-22883083D02*
X11829373Y-22873560D01*
X11829373Y-22873560D02*
X11819849Y-22854512D01*
X11819849Y-22854512D02*
X11800801Y-22844988D01*
X11800801Y-22844988D02*
X11772230Y-22844988D01*
X11772230Y-22844988D02*
X11753182Y-22835464D01*
X11753182Y-22835464D02*
X11743659Y-22816417D01*
X11743659Y-22816417D02*
X11743659Y-22806893D01*
X11743659Y-22806893D02*
X11753182Y-22787845D01*
X11753182Y-22787845D02*
X11772230Y-22778322D01*
X11772230Y-22778322D02*
X11800801Y-22778322D01*
X11800801Y-22778322D02*
X11819849Y-22787845D01*
X11896040Y-22987845D02*
X11905563Y-22978322D01*
X11905563Y-22978322D02*
X11924611Y-22949750D01*
X11924611Y-22949750D02*
X11934135Y-22930703D01*
X11934135Y-22930703D02*
X11943659Y-22902131D01*
X11943659Y-22902131D02*
X11953182Y-22854512D01*
X11953182Y-22854512D02*
X11953182Y-22816417D01*
X11953182Y-22816417D02*
X11943659Y-22768798D01*
X11943659Y-22768798D02*
X11934135Y-22740226D01*
X11934135Y-22740226D02*
X11924611Y-22721179D01*
X11924611Y-22721179D02*
X11905563Y-22692607D01*
X11905563Y-22692607D02*
X11896040Y-22683083D01*
D12*
X6915856Y-23119527D02*
X6915856Y-23048815D01*
X6845145Y-23048815D01*
X6845145Y-23119527D01*
X6915856Y-23119527D01*
D11*
X7296039Y-23175655D02*
X7181753Y-23175655D01*
X7238896Y-23175655D02*
X7238896Y-22975655D01*
X7238896Y-22975655D02*
X7219849Y-23004226D01*
X7219849Y-23004226D02*
X7200801Y-23023274D01*
X7200801Y-23023274D02*
X7181753Y-23032798D01*
X7381753Y-23156607D02*
X7391277Y-23166131D01*
X7391277Y-23166131D02*
X7381753Y-23175655D01*
X7381753Y-23175655D02*
X7372230Y-23166131D01*
X7372230Y-23166131D02*
X7381753Y-23156607D01*
X7381753Y-23156607D02*
X7381753Y-23175655D01*
X7515087Y-22975655D02*
X7534134Y-22975655D01*
X7534134Y-22975655D02*
X7553182Y-22985179D01*
X7553182Y-22985179D02*
X7562706Y-22994703D01*
X7562706Y-22994703D02*
X7572230Y-23013750D01*
X7572230Y-23013750D02*
X7581753Y-23051845D01*
X7581753Y-23051845D02*
X7581753Y-23099464D01*
X7581753Y-23099464D02*
X7572230Y-23137560D01*
X7572230Y-23137560D02*
X7562706Y-23156607D01*
X7562706Y-23156607D02*
X7553182Y-23166131D01*
X7553182Y-23166131D02*
X7534134Y-23175655D01*
X7534134Y-23175655D02*
X7515087Y-23175655D01*
X7515087Y-23175655D02*
X7496039Y-23166131D01*
X7496039Y-23166131D02*
X7486515Y-23156607D01*
X7486515Y-23156607D02*
X7476991Y-23137560D01*
X7476991Y-23137560D02*
X7467468Y-23099464D01*
X7467468Y-23099464D02*
X7467468Y-23051845D01*
X7467468Y-23051845D02*
X7476991Y-23013750D01*
X7476991Y-23013750D02*
X7486515Y-22994703D01*
X7486515Y-22994703D02*
X7496039Y-22985179D01*
X7496039Y-22985179D02*
X7515087Y-22975655D01*
X7705563Y-22975655D02*
X7724611Y-22975655D01*
X7724611Y-22975655D02*
X7743658Y-22985179D01*
X7743658Y-22985179D02*
X7753182Y-22994703D01*
X7753182Y-22994703D02*
X7762706Y-23013750D01*
X7762706Y-23013750D02*
X7772230Y-23051845D01*
X7772230Y-23051845D02*
X7772230Y-23099464D01*
X7772230Y-23099464D02*
X7762706Y-23137560D01*
X7762706Y-23137560D02*
X7753182Y-23156607D01*
X7753182Y-23156607D02*
X7743658Y-23166131D01*
X7743658Y-23166131D02*
X7724611Y-23175655D01*
X7724611Y-23175655D02*
X7705563Y-23175655D01*
X7705563Y-23175655D02*
X7686515Y-23166131D01*
X7686515Y-23166131D02*
X7676991Y-23156607D01*
X7676991Y-23156607D02*
X7667468Y-23137560D01*
X7667468Y-23137560D02*
X7657944Y-23099464D01*
X7657944Y-23099464D02*
X7657944Y-23051845D01*
X7657944Y-23051845D02*
X7667468Y-23013750D01*
X7667468Y-23013750D02*
X7676991Y-22994703D01*
X7676991Y-22994703D02*
X7686515Y-22985179D01*
X7686515Y-22985179D02*
X7705563Y-22975655D01*
X7896039Y-22975655D02*
X7915087Y-22975655D01*
X7915087Y-22975655D02*
X7934134Y-22985179D01*
X7934134Y-22985179D02*
X7943658Y-22994703D01*
X7943658Y-22994703D02*
X7953182Y-23013750D01*
X7953182Y-23013750D02*
X7962706Y-23051845D01*
X7962706Y-23051845D02*
X7962706Y-23099464D01*
X7962706Y-23099464D02*
X7953182Y-23137560D01*
X7953182Y-23137560D02*
X7943658Y-23156607D01*
X7943658Y-23156607D02*
X7934134Y-23166131D01*
X7934134Y-23166131D02*
X7915087Y-23175655D01*
X7915087Y-23175655D02*
X7896039Y-23175655D01*
X7896039Y-23175655D02*
X7876991Y-23166131D01*
X7876991Y-23166131D02*
X7867468Y-23156607D01*
X7867468Y-23156607D02*
X7857944Y-23137560D01*
X7857944Y-23137560D02*
X7848420Y-23099464D01*
X7848420Y-23099464D02*
X7848420Y-23051845D01*
X7848420Y-23051845D02*
X7857944Y-23013750D01*
X7857944Y-23013750D02*
X7867468Y-22994703D01*
X7867468Y-22994703D02*
X7876991Y-22985179D01*
X7876991Y-22985179D02*
X7896039Y-22975655D01*
X8048420Y-23175655D02*
X8048420Y-23042322D01*
X8048420Y-23061369D02*
X8057944Y-23051845D01*
X8057944Y-23051845D02*
X8076991Y-23042322D01*
X8076991Y-23042322D02*
X8105563Y-23042322D01*
X8105563Y-23042322D02*
X8124611Y-23051845D01*
X8124611Y-23051845D02*
X8134134Y-23070893D01*
X8134134Y-23070893D02*
X8134134Y-23175655D01*
X8134134Y-23070893D02*
X8143658Y-23051845D01*
X8143658Y-23051845D02*
X8162706Y-23042322D01*
X8162706Y-23042322D02*
X8191277Y-23042322D01*
X8191277Y-23042322D02*
X8210325Y-23051845D01*
X8210325Y-23051845D02*
X8219849Y-23070893D01*
X8219849Y-23070893D02*
X8219849Y-23175655D01*
X8315087Y-23175655D02*
X8315087Y-23042322D01*
X8315087Y-23061369D02*
X8324611Y-23051845D01*
X8324611Y-23051845D02*
X8343658Y-23042322D01*
X8343658Y-23042322D02*
X8372230Y-23042322D01*
X8372230Y-23042322D02*
X8391277Y-23051845D01*
X8391277Y-23051845D02*
X8400801Y-23070893D01*
X8400801Y-23070893D02*
X8400801Y-23175655D01*
X8400801Y-23070893D02*
X8410325Y-23051845D01*
X8410325Y-23051845D02*
X8429373Y-23042322D01*
X8429373Y-23042322D02*
X8457944Y-23042322D01*
X8457944Y-23042322D02*
X8476992Y-23051845D01*
X8476992Y-23051845D02*
X8486515Y-23070893D01*
X8486515Y-23070893D02*
X8486515Y-23175655D01*
X8876992Y-22966131D02*
X8705563Y-23223274D01*
X9134135Y-22975655D02*
X9153182Y-22975655D01*
X9153182Y-22975655D02*
X9172230Y-22985179D01*
X9172230Y-22985179D02*
X9181754Y-22994703D01*
X9181754Y-22994703D02*
X9191277Y-23013750D01*
X9191277Y-23013750D02*
X9200801Y-23051845D01*
X9200801Y-23051845D02*
X9200801Y-23099464D01*
X9200801Y-23099464D02*
X9191277Y-23137560D01*
X9191277Y-23137560D02*
X9181754Y-23156607D01*
X9181754Y-23156607D02*
X9172230Y-23166131D01*
X9172230Y-23166131D02*
X9153182Y-23175655D01*
X9153182Y-23175655D02*
X9134135Y-23175655D01*
X9134135Y-23175655D02*
X9115087Y-23166131D01*
X9115087Y-23166131D02*
X9105563Y-23156607D01*
X9105563Y-23156607D02*
X9096039Y-23137560D01*
X9096039Y-23137560D02*
X9086516Y-23099464D01*
X9086516Y-23099464D02*
X9086516Y-23051845D01*
X9086516Y-23051845D02*
X9096039Y-23013750D01*
X9096039Y-23013750D02*
X9105563Y-22994703D01*
X9105563Y-22994703D02*
X9115087Y-22985179D01*
X9115087Y-22985179D02*
X9134135Y-22975655D01*
X9286516Y-23156607D02*
X9296039Y-23166131D01*
X9296039Y-23166131D02*
X9286516Y-23175655D01*
X9286516Y-23175655D02*
X9276992Y-23166131D01*
X9276992Y-23166131D02*
X9286516Y-23156607D01*
X9286516Y-23156607D02*
X9286516Y-23175655D01*
X9419849Y-22975655D02*
X9438897Y-22975655D01*
X9438897Y-22975655D02*
X9457944Y-22985179D01*
X9457944Y-22985179D02*
X9467468Y-22994703D01*
X9467468Y-22994703D02*
X9476992Y-23013750D01*
X9476992Y-23013750D02*
X9486516Y-23051845D01*
X9486516Y-23051845D02*
X9486516Y-23099464D01*
X9486516Y-23099464D02*
X9476992Y-23137560D01*
X9476992Y-23137560D02*
X9467468Y-23156607D01*
X9467468Y-23156607D02*
X9457944Y-23166131D01*
X9457944Y-23166131D02*
X9438897Y-23175655D01*
X9438897Y-23175655D02*
X9419849Y-23175655D01*
X9419849Y-23175655D02*
X9400801Y-23166131D01*
X9400801Y-23166131D02*
X9391277Y-23156607D01*
X9391277Y-23156607D02*
X9381754Y-23137560D01*
X9381754Y-23137560D02*
X9372230Y-23099464D01*
X9372230Y-23099464D02*
X9372230Y-23051845D01*
X9372230Y-23051845D02*
X9381754Y-23013750D01*
X9381754Y-23013750D02*
X9391277Y-22994703D01*
X9391277Y-22994703D02*
X9400801Y-22985179D01*
X9400801Y-22985179D02*
X9419849Y-22975655D01*
X9553182Y-22975655D02*
X9676992Y-22975655D01*
X9676992Y-22975655D02*
X9610325Y-23051845D01*
X9610325Y-23051845D02*
X9638897Y-23051845D01*
X9638897Y-23051845D02*
X9657944Y-23061369D01*
X9657944Y-23061369D02*
X9667468Y-23070893D01*
X9667468Y-23070893D02*
X9676992Y-23089941D01*
X9676992Y-23089941D02*
X9676992Y-23137560D01*
X9676992Y-23137560D02*
X9667468Y-23156607D01*
X9667468Y-23156607D02*
X9657944Y-23166131D01*
X9657944Y-23166131D02*
X9638897Y-23175655D01*
X9638897Y-23175655D02*
X9581754Y-23175655D01*
X9581754Y-23175655D02*
X9562706Y-23166131D01*
X9562706Y-23166131D02*
X9553182Y-23156607D01*
X9772230Y-23175655D02*
X9810325Y-23175655D01*
X9810325Y-23175655D02*
X9829373Y-23166131D01*
X9829373Y-23166131D02*
X9838897Y-23156607D01*
X9838897Y-23156607D02*
X9857944Y-23128036D01*
X9857944Y-23128036D02*
X9867468Y-23089941D01*
X9867468Y-23089941D02*
X9867468Y-23013750D01*
X9867468Y-23013750D02*
X9857944Y-22994703D01*
X9857944Y-22994703D02*
X9848420Y-22985179D01*
X9848420Y-22985179D02*
X9829373Y-22975655D01*
X9829373Y-22975655D02*
X9791277Y-22975655D01*
X9791277Y-22975655D02*
X9772230Y-22985179D01*
X9772230Y-22985179D02*
X9762706Y-22994703D01*
X9762706Y-22994703D02*
X9753182Y-23013750D01*
X9753182Y-23013750D02*
X9753182Y-23061369D01*
X9753182Y-23061369D02*
X9762706Y-23080417D01*
X9762706Y-23080417D02*
X9772230Y-23089941D01*
X9772230Y-23089941D02*
X9791277Y-23099464D01*
X9791277Y-23099464D02*
X9829373Y-23099464D01*
X9829373Y-23099464D02*
X9848420Y-23089941D01*
X9848420Y-23089941D02*
X9857944Y-23080417D01*
X9857944Y-23080417D02*
X9867468Y-23061369D01*
X10038897Y-23042322D02*
X10038897Y-23175655D01*
X9991277Y-22966131D02*
X9943658Y-23108988D01*
X9943658Y-23108988D02*
X10067468Y-23108988D01*
X10134135Y-22975655D02*
X10134135Y-23013750D01*
X10210325Y-22975655D02*
X10210325Y-23013750D01*
X10505563Y-23251845D02*
X10496039Y-23242322D01*
X10496039Y-23242322D02*
X10476992Y-23213750D01*
X10476992Y-23213750D02*
X10467468Y-23194703D01*
X10467468Y-23194703D02*
X10457944Y-23166131D01*
X10457944Y-23166131D02*
X10448420Y-23118512D01*
X10448420Y-23118512D02*
X10448420Y-23080417D01*
X10448420Y-23080417D02*
X10457944Y-23032798D01*
X10457944Y-23032798D02*
X10467468Y-23004226D01*
X10467468Y-23004226D02*
X10476992Y-22985179D01*
X10476992Y-22985179D02*
X10496039Y-22956607D01*
X10496039Y-22956607D02*
X10505563Y-22947083D01*
X10562706Y-22975655D02*
X10686516Y-22975655D01*
X10686516Y-22975655D02*
X10619849Y-23051845D01*
X10619849Y-23051845D02*
X10648420Y-23051845D01*
X10648420Y-23051845D02*
X10667468Y-23061369D01*
X10667468Y-23061369D02*
X10676992Y-23070893D01*
X10676992Y-23070893D02*
X10686516Y-23089941D01*
X10686516Y-23089941D02*
X10686516Y-23137560D01*
X10686516Y-23137560D02*
X10676992Y-23156607D01*
X10676992Y-23156607D02*
X10667468Y-23166131D01*
X10667468Y-23166131D02*
X10648420Y-23175655D01*
X10648420Y-23175655D02*
X10591278Y-23175655D01*
X10591278Y-23175655D02*
X10572230Y-23166131D01*
X10572230Y-23166131D02*
X10562706Y-23156607D01*
X10857944Y-23042322D02*
X10857944Y-23175655D01*
X10810325Y-22966131D02*
X10762706Y-23108988D01*
X10762706Y-23108988D02*
X10886516Y-23108988D01*
X11115087Y-23175655D02*
X11115087Y-22975655D01*
X11200801Y-23175655D02*
X11200801Y-23070893D01*
X11200801Y-23070893D02*
X11191278Y-23051845D01*
X11191278Y-23051845D02*
X11172230Y-23042322D01*
X11172230Y-23042322D02*
X11143659Y-23042322D01*
X11143659Y-23042322D02*
X11124611Y-23051845D01*
X11124611Y-23051845D02*
X11115087Y-23061369D01*
X11324611Y-23175655D02*
X11305563Y-23166131D01*
X11305563Y-23166131D02*
X11296039Y-23156607D01*
X11296039Y-23156607D02*
X11286516Y-23137560D01*
X11286516Y-23137560D02*
X11286516Y-23080417D01*
X11286516Y-23080417D02*
X11296039Y-23061369D01*
X11296039Y-23061369D02*
X11305563Y-23051845D01*
X11305563Y-23051845D02*
X11324611Y-23042322D01*
X11324611Y-23042322D02*
X11353182Y-23042322D01*
X11353182Y-23042322D02*
X11372230Y-23051845D01*
X11372230Y-23051845D02*
X11381754Y-23061369D01*
X11381754Y-23061369D02*
X11391278Y-23080417D01*
X11391278Y-23080417D02*
X11391278Y-23137560D01*
X11391278Y-23137560D02*
X11381754Y-23156607D01*
X11381754Y-23156607D02*
X11372230Y-23166131D01*
X11372230Y-23166131D02*
X11353182Y-23175655D01*
X11353182Y-23175655D02*
X11324611Y-23175655D01*
X11505563Y-23175655D02*
X11486516Y-23166131D01*
X11486516Y-23166131D02*
X11476992Y-23147083D01*
X11476992Y-23147083D02*
X11476992Y-22975655D01*
X11657944Y-23166131D02*
X11638897Y-23175655D01*
X11638897Y-23175655D02*
X11600801Y-23175655D01*
X11600801Y-23175655D02*
X11581754Y-23166131D01*
X11581754Y-23166131D02*
X11572230Y-23147083D01*
X11572230Y-23147083D02*
X11572230Y-23070893D01*
X11572230Y-23070893D02*
X11581754Y-23051845D01*
X11581754Y-23051845D02*
X11600801Y-23042322D01*
X11600801Y-23042322D02*
X11638897Y-23042322D01*
X11638897Y-23042322D02*
X11657944Y-23051845D01*
X11657944Y-23051845D02*
X11667468Y-23070893D01*
X11667468Y-23070893D02*
X11667468Y-23089941D01*
X11667468Y-23089941D02*
X11572230Y-23108988D01*
X11743659Y-23166131D02*
X11762706Y-23175655D01*
X11762706Y-23175655D02*
X11800801Y-23175655D01*
X11800801Y-23175655D02*
X11819849Y-23166131D01*
X11819849Y-23166131D02*
X11829373Y-23147083D01*
X11829373Y-23147083D02*
X11829373Y-23137560D01*
X11829373Y-23137560D02*
X11819849Y-23118512D01*
X11819849Y-23118512D02*
X11800801Y-23108988D01*
X11800801Y-23108988D02*
X11772230Y-23108988D01*
X11772230Y-23108988D02*
X11753182Y-23099464D01*
X11753182Y-23099464D02*
X11743659Y-23080417D01*
X11743659Y-23080417D02*
X11743659Y-23070893D01*
X11743659Y-23070893D02*
X11753182Y-23051845D01*
X11753182Y-23051845D02*
X11772230Y-23042322D01*
X11772230Y-23042322D02*
X11800801Y-23042322D01*
X11800801Y-23042322D02*
X11819849Y-23051845D01*
X11896040Y-23251845D02*
X11905563Y-23242322D01*
X11905563Y-23242322D02*
X11924611Y-23213750D01*
X11924611Y-23213750D02*
X11934135Y-23194703D01*
X11934135Y-23194703D02*
X11943659Y-23166131D01*
X11943659Y-23166131D02*
X11953182Y-23118512D01*
X11953182Y-23118512D02*
X11953182Y-23080417D01*
X11953182Y-23080417D02*
X11943659Y-23032798D01*
X11943659Y-23032798D02*
X11934135Y-23004226D01*
X11934135Y-23004226D02*
X11924611Y-22985179D01*
X11924611Y-22985179D02*
X11905563Y-22956607D01*
X11905563Y-22956607D02*
X11896040Y-22947083D01*
D13*
X6855500Y-23423171D02*
X6930500Y-23348171D01*
X6855500Y-23273171D01*
X6780500Y-23348171D01*
X6855500Y-23423171D01*
D11*
X7296039Y-23439655D02*
X7181753Y-23439655D01*
X7238896Y-23439655D02*
X7238896Y-23239655D01*
X7238896Y-23239655D02*
X7219849Y-23268226D01*
X7219849Y-23268226D02*
X7200801Y-23287274D01*
X7200801Y-23287274D02*
X7181753Y-23296798D01*
X7381753Y-23420607D02*
X7391277Y-23430131D01*
X7391277Y-23430131D02*
X7381753Y-23439655D01*
X7381753Y-23439655D02*
X7372230Y-23430131D01*
X7372230Y-23430131D02*
X7381753Y-23420607D01*
X7381753Y-23420607D02*
X7381753Y-23439655D01*
X7572230Y-23239655D02*
X7476991Y-23239655D01*
X7476991Y-23239655D02*
X7467468Y-23334893D01*
X7467468Y-23334893D02*
X7476991Y-23325369D01*
X7476991Y-23325369D02*
X7496039Y-23315845D01*
X7496039Y-23315845D02*
X7543658Y-23315845D01*
X7543658Y-23315845D02*
X7562706Y-23325369D01*
X7562706Y-23325369D02*
X7572230Y-23334893D01*
X7572230Y-23334893D02*
X7581753Y-23353941D01*
X7581753Y-23353941D02*
X7581753Y-23401560D01*
X7581753Y-23401560D02*
X7572230Y-23420607D01*
X7572230Y-23420607D02*
X7562706Y-23430131D01*
X7562706Y-23430131D02*
X7543658Y-23439655D01*
X7543658Y-23439655D02*
X7496039Y-23439655D01*
X7496039Y-23439655D02*
X7476991Y-23430131D01*
X7476991Y-23430131D02*
X7467468Y-23420607D01*
X7705563Y-23239655D02*
X7724611Y-23239655D01*
X7724611Y-23239655D02*
X7743658Y-23249179D01*
X7743658Y-23249179D02*
X7753182Y-23258703D01*
X7753182Y-23258703D02*
X7762706Y-23277750D01*
X7762706Y-23277750D02*
X7772230Y-23315845D01*
X7772230Y-23315845D02*
X7772230Y-23363464D01*
X7772230Y-23363464D02*
X7762706Y-23401560D01*
X7762706Y-23401560D02*
X7753182Y-23420607D01*
X7753182Y-23420607D02*
X7743658Y-23430131D01*
X7743658Y-23430131D02*
X7724611Y-23439655D01*
X7724611Y-23439655D02*
X7705563Y-23439655D01*
X7705563Y-23439655D02*
X7686515Y-23430131D01*
X7686515Y-23430131D02*
X7676991Y-23420607D01*
X7676991Y-23420607D02*
X7667468Y-23401560D01*
X7667468Y-23401560D02*
X7657944Y-23363464D01*
X7657944Y-23363464D02*
X7657944Y-23315845D01*
X7657944Y-23315845D02*
X7667468Y-23277750D01*
X7667468Y-23277750D02*
X7676991Y-23258703D01*
X7676991Y-23258703D02*
X7686515Y-23249179D01*
X7686515Y-23249179D02*
X7705563Y-23239655D01*
X7896039Y-23239655D02*
X7915087Y-23239655D01*
X7915087Y-23239655D02*
X7934134Y-23249179D01*
X7934134Y-23249179D02*
X7943658Y-23258703D01*
X7943658Y-23258703D02*
X7953182Y-23277750D01*
X7953182Y-23277750D02*
X7962706Y-23315845D01*
X7962706Y-23315845D02*
X7962706Y-23363464D01*
X7962706Y-23363464D02*
X7953182Y-23401560D01*
X7953182Y-23401560D02*
X7943658Y-23420607D01*
X7943658Y-23420607D02*
X7934134Y-23430131D01*
X7934134Y-23430131D02*
X7915087Y-23439655D01*
X7915087Y-23439655D02*
X7896039Y-23439655D01*
X7896039Y-23439655D02*
X7876991Y-23430131D01*
X7876991Y-23430131D02*
X7867468Y-23420607D01*
X7867468Y-23420607D02*
X7857944Y-23401560D01*
X7857944Y-23401560D02*
X7848420Y-23363464D01*
X7848420Y-23363464D02*
X7848420Y-23315845D01*
X7848420Y-23315845D02*
X7857944Y-23277750D01*
X7857944Y-23277750D02*
X7867468Y-23258703D01*
X7867468Y-23258703D02*
X7876991Y-23249179D01*
X7876991Y-23249179D02*
X7896039Y-23239655D01*
X8048420Y-23439655D02*
X8048420Y-23306322D01*
X8048420Y-23325369D02*
X8057944Y-23315845D01*
X8057944Y-23315845D02*
X8076991Y-23306322D01*
X8076991Y-23306322D02*
X8105563Y-23306322D01*
X8105563Y-23306322D02*
X8124611Y-23315845D01*
X8124611Y-23315845D02*
X8134134Y-23334893D01*
X8134134Y-23334893D02*
X8134134Y-23439655D01*
X8134134Y-23334893D02*
X8143658Y-23315845D01*
X8143658Y-23315845D02*
X8162706Y-23306322D01*
X8162706Y-23306322D02*
X8191277Y-23306322D01*
X8191277Y-23306322D02*
X8210325Y-23315845D01*
X8210325Y-23315845D02*
X8219849Y-23334893D01*
X8219849Y-23334893D02*
X8219849Y-23439655D01*
X8315087Y-23439655D02*
X8315087Y-23306322D01*
X8315087Y-23325369D02*
X8324611Y-23315845D01*
X8324611Y-23315845D02*
X8343658Y-23306322D01*
X8343658Y-23306322D02*
X8372230Y-23306322D01*
X8372230Y-23306322D02*
X8391277Y-23315845D01*
X8391277Y-23315845D02*
X8400801Y-23334893D01*
X8400801Y-23334893D02*
X8400801Y-23439655D01*
X8400801Y-23334893D02*
X8410325Y-23315845D01*
X8410325Y-23315845D02*
X8429373Y-23306322D01*
X8429373Y-23306322D02*
X8457944Y-23306322D01*
X8457944Y-23306322D02*
X8476992Y-23315845D01*
X8476992Y-23315845D02*
X8486515Y-23334893D01*
X8486515Y-23334893D02*
X8486515Y-23439655D01*
X8876992Y-23230131D02*
X8705563Y-23487274D01*
X9134135Y-23239655D02*
X9153182Y-23239655D01*
X9153182Y-23239655D02*
X9172230Y-23249179D01*
X9172230Y-23249179D02*
X9181754Y-23258703D01*
X9181754Y-23258703D02*
X9191277Y-23277750D01*
X9191277Y-23277750D02*
X9200801Y-23315845D01*
X9200801Y-23315845D02*
X9200801Y-23363464D01*
X9200801Y-23363464D02*
X9191277Y-23401560D01*
X9191277Y-23401560D02*
X9181754Y-23420607D01*
X9181754Y-23420607D02*
X9172230Y-23430131D01*
X9172230Y-23430131D02*
X9153182Y-23439655D01*
X9153182Y-23439655D02*
X9134135Y-23439655D01*
X9134135Y-23439655D02*
X9115087Y-23430131D01*
X9115087Y-23430131D02*
X9105563Y-23420607D01*
X9105563Y-23420607D02*
X9096039Y-23401560D01*
X9096039Y-23401560D02*
X9086516Y-23363464D01*
X9086516Y-23363464D02*
X9086516Y-23315845D01*
X9086516Y-23315845D02*
X9096039Y-23277750D01*
X9096039Y-23277750D02*
X9105563Y-23258703D01*
X9105563Y-23258703D02*
X9115087Y-23249179D01*
X9115087Y-23249179D02*
X9134135Y-23239655D01*
X9286516Y-23420607D02*
X9296039Y-23430131D01*
X9296039Y-23430131D02*
X9286516Y-23439655D01*
X9286516Y-23439655D02*
X9276992Y-23430131D01*
X9276992Y-23430131D02*
X9286516Y-23420607D01*
X9286516Y-23420607D02*
X9286516Y-23439655D01*
X9419849Y-23239655D02*
X9438897Y-23239655D01*
X9438897Y-23239655D02*
X9457944Y-23249179D01*
X9457944Y-23249179D02*
X9467468Y-23258703D01*
X9467468Y-23258703D02*
X9476992Y-23277750D01*
X9476992Y-23277750D02*
X9486516Y-23315845D01*
X9486516Y-23315845D02*
X9486516Y-23363464D01*
X9486516Y-23363464D02*
X9476992Y-23401560D01*
X9476992Y-23401560D02*
X9467468Y-23420607D01*
X9467468Y-23420607D02*
X9457944Y-23430131D01*
X9457944Y-23430131D02*
X9438897Y-23439655D01*
X9438897Y-23439655D02*
X9419849Y-23439655D01*
X9419849Y-23439655D02*
X9400801Y-23430131D01*
X9400801Y-23430131D02*
X9391277Y-23420607D01*
X9391277Y-23420607D02*
X9381754Y-23401560D01*
X9381754Y-23401560D02*
X9372230Y-23363464D01*
X9372230Y-23363464D02*
X9372230Y-23315845D01*
X9372230Y-23315845D02*
X9381754Y-23277750D01*
X9381754Y-23277750D02*
X9391277Y-23258703D01*
X9391277Y-23258703D02*
X9400801Y-23249179D01*
X9400801Y-23249179D02*
X9419849Y-23239655D01*
X9667468Y-23239655D02*
X9572230Y-23239655D01*
X9572230Y-23239655D02*
X9562706Y-23334893D01*
X9562706Y-23334893D02*
X9572230Y-23325369D01*
X9572230Y-23325369D02*
X9591277Y-23315845D01*
X9591277Y-23315845D02*
X9638897Y-23315845D01*
X9638897Y-23315845D02*
X9657944Y-23325369D01*
X9657944Y-23325369D02*
X9667468Y-23334893D01*
X9667468Y-23334893D02*
X9676992Y-23353941D01*
X9676992Y-23353941D02*
X9676992Y-23401560D01*
X9676992Y-23401560D02*
X9667468Y-23420607D01*
X9667468Y-23420607D02*
X9657944Y-23430131D01*
X9657944Y-23430131D02*
X9638897Y-23439655D01*
X9638897Y-23439655D02*
X9591277Y-23439655D01*
X9591277Y-23439655D02*
X9572230Y-23430131D01*
X9572230Y-23430131D02*
X9562706Y-23420607D01*
X9772230Y-23439655D02*
X9810325Y-23439655D01*
X9810325Y-23439655D02*
X9829373Y-23430131D01*
X9829373Y-23430131D02*
X9838897Y-23420607D01*
X9838897Y-23420607D02*
X9857944Y-23392036D01*
X9857944Y-23392036D02*
X9867468Y-23353941D01*
X9867468Y-23353941D02*
X9867468Y-23277750D01*
X9867468Y-23277750D02*
X9857944Y-23258703D01*
X9857944Y-23258703D02*
X9848420Y-23249179D01*
X9848420Y-23249179D02*
X9829373Y-23239655D01*
X9829373Y-23239655D02*
X9791277Y-23239655D01*
X9791277Y-23239655D02*
X9772230Y-23249179D01*
X9772230Y-23249179D02*
X9762706Y-23258703D01*
X9762706Y-23258703D02*
X9753182Y-23277750D01*
X9753182Y-23277750D02*
X9753182Y-23325369D01*
X9753182Y-23325369D02*
X9762706Y-23344417D01*
X9762706Y-23344417D02*
X9772230Y-23353941D01*
X9772230Y-23353941D02*
X9791277Y-23363464D01*
X9791277Y-23363464D02*
X9829373Y-23363464D01*
X9829373Y-23363464D02*
X9848420Y-23353941D01*
X9848420Y-23353941D02*
X9857944Y-23344417D01*
X9857944Y-23344417D02*
X9867468Y-23325369D01*
X10057944Y-23439655D02*
X9943658Y-23439655D01*
X10000801Y-23439655D02*
X10000801Y-23239655D01*
X10000801Y-23239655D02*
X9981754Y-23268226D01*
X9981754Y-23268226D02*
X9962706Y-23287274D01*
X9962706Y-23287274D02*
X9943658Y-23296798D01*
X10134135Y-23239655D02*
X10134135Y-23277750D01*
X10210325Y-23239655D02*
X10210325Y-23277750D01*
X10505563Y-23515845D02*
X10496039Y-23506322D01*
X10496039Y-23506322D02*
X10476992Y-23477750D01*
X10476992Y-23477750D02*
X10467468Y-23458703D01*
X10467468Y-23458703D02*
X10457944Y-23430131D01*
X10457944Y-23430131D02*
X10448420Y-23382512D01*
X10448420Y-23382512D02*
X10448420Y-23344417D01*
X10448420Y-23344417D02*
X10457944Y-23296798D01*
X10457944Y-23296798D02*
X10467468Y-23268226D01*
X10467468Y-23268226D02*
X10476992Y-23249179D01*
X10476992Y-23249179D02*
X10496039Y-23220607D01*
X10496039Y-23220607D02*
X10505563Y-23211083D01*
X10562706Y-23239655D02*
X10686516Y-23239655D01*
X10686516Y-23239655D02*
X10619849Y-23315845D01*
X10619849Y-23315845D02*
X10648420Y-23315845D01*
X10648420Y-23315845D02*
X10667468Y-23325369D01*
X10667468Y-23325369D02*
X10676992Y-23334893D01*
X10676992Y-23334893D02*
X10686516Y-23353941D01*
X10686516Y-23353941D02*
X10686516Y-23401560D01*
X10686516Y-23401560D02*
X10676992Y-23420607D01*
X10676992Y-23420607D02*
X10667468Y-23430131D01*
X10667468Y-23430131D02*
X10648420Y-23439655D01*
X10648420Y-23439655D02*
X10591278Y-23439655D01*
X10591278Y-23439655D02*
X10572230Y-23430131D01*
X10572230Y-23430131D02*
X10562706Y-23420607D01*
X10753182Y-23239655D02*
X10876992Y-23239655D01*
X10876992Y-23239655D02*
X10810325Y-23315845D01*
X10810325Y-23315845D02*
X10838897Y-23315845D01*
X10838897Y-23315845D02*
X10857944Y-23325369D01*
X10857944Y-23325369D02*
X10867468Y-23334893D01*
X10867468Y-23334893D02*
X10876992Y-23353941D01*
X10876992Y-23353941D02*
X10876992Y-23401560D01*
X10876992Y-23401560D02*
X10867468Y-23420607D01*
X10867468Y-23420607D02*
X10857944Y-23430131D01*
X10857944Y-23430131D02*
X10838897Y-23439655D01*
X10838897Y-23439655D02*
X10781754Y-23439655D01*
X10781754Y-23439655D02*
X10762706Y-23430131D01*
X10762706Y-23430131D02*
X10753182Y-23420607D01*
X11048420Y-23239655D02*
X11010325Y-23239655D01*
X11010325Y-23239655D02*
X10991278Y-23249179D01*
X10991278Y-23249179D02*
X10981754Y-23258703D01*
X10981754Y-23258703D02*
X10962706Y-23287274D01*
X10962706Y-23287274D02*
X10953182Y-23325369D01*
X10953182Y-23325369D02*
X10953182Y-23401560D01*
X10953182Y-23401560D02*
X10962706Y-23420607D01*
X10962706Y-23420607D02*
X10972230Y-23430131D01*
X10972230Y-23430131D02*
X10991278Y-23439655D01*
X10991278Y-23439655D02*
X11029373Y-23439655D01*
X11029373Y-23439655D02*
X11048420Y-23430131D01*
X11048420Y-23430131D02*
X11057944Y-23420607D01*
X11057944Y-23420607D02*
X11067468Y-23401560D01*
X11067468Y-23401560D02*
X11067468Y-23353941D01*
X11067468Y-23353941D02*
X11057944Y-23334893D01*
X11057944Y-23334893D02*
X11048420Y-23325369D01*
X11048420Y-23325369D02*
X11029373Y-23315845D01*
X11029373Y-23315845D02*
X10991278Y-23315845D01*
X10991278Y-23315845D02*
X10972230Y-23325369D01*
X10972230Y-23325369D02*
X10962706Y-23334893D01*
X10962706Y-23334893D02*
X10953182Y-23353941D01*
X11305563Y-23439655D02*
X11305563Y-23239655D01*
X11391278Y-23439655D02*
X11391278Y-23334893D01*
X11391278Y-23334893D02*
X11381754Y-23315845D01*
X11381754Y-23315845D02*
X11362706Y-23306322D01*
X11362706Y-23306322D02*
X11334135Y-23306322D01*
X11334135Y-23306322D02*
X11315087Y-23315845D01*
X11315087Y-23315845D02*
X11305563Y-23325369D01*
X11515087Y-23439655D02*
X11496039Y-23430131D01*
X11496039Y-23430131D02*
X11486516Y-23420607D01*
X11486516Y-23420607D02*
X11476992Y-23401560D01*
X11476992Y-23401560D02*
X11476992Y-23344417D01*
X11476992Y-23344417D02*
X11486516Y-23325369D01*
X11486516Y-23325369D02*
X11496039Y-23315845D01*
X11496039Y-23315845D02*
X11515087Y-23306322D01*
X11515087Y-23306322D02*
X11543659Y-23306322D01*
X11543659Y-23306322D02*
X11562706Y-23315845D01*
X11562706Y-23315845D02*
X11572230Y-23325369D01*
X11572230Y-23325369D02*
X11581754Y-23344417D01*
X11581754Y-23344417D02*
X11581754Y-23401560D01*
X11581754Y-23401560D02*
X11572230Y-23420607D01*
X11572230Y-23420607D02*
X11562706Y-23430131D01*
X11562706Y-23430131D02*
X11543659Y-23439655D01*
X11543659Y-23439655D02*
X11515087Y-23439655D01*
X11696039Y-23439655D02*
X11676992Y-23430131D01*
X11676992Y-23430131D02*
X11667468Y-23411083D01*
X11667468Y-23411083D02*
X11667468Y-23239655D01*
X11848420Y-23430131D02*
X11829373Y-23439655D01*
X11829373Y-23439655D02*
X11791278Y-23439655D01*
X11791278Y-23439655D02*
X11772230Y-23430131D01*
X11772230Y-23430131D02*
X11762706Y-23411083D01*
X11762706Y-23411083D02*
X11762706Y-23334893D01*
X11762706Y-23334893D02*
X11772230Y-23315845D01*
X11772230Y-23315845D02*
X11791278Y-23306322D01*
X11791278Y-23306322D02*
X11829373Y-23306322D01*
X11829373Y-23306322D02*
X11848420Y-23315845D01*
X11848420Y-23315845D02*
X11857944Y-23334893D01*
X11857944Y-23334893D02*
X11857944Y-23353941D01*
X11857944Y-23353941D02*
X11762706Y-23372988D01*
X11934135Y-23430131D02*
X11953182Y-23439655D01*
X11953182Y-23439655D02*
X11991278Y-23439655D01*
X11991278Y-23439655D02*
X12010325Y-23430131D01*
X12010325Y-23430131D02*
X12019849Y-23411083D01*
X12019849Y-23411083D02*
X12019849Y-23401560D01*
X12019849Y-23401560D02*
X12010325Y-23382512D01*
X12010325Y-23382512D02*
X11991278Y-23372988D01*
X11991278Y-23372988D02*
X11962706Y-23372988D01*
X11962706Y-23372988D02*
X11943659Y-23363464D01*
X11943659Y-23363464D02*
X11934135Y-23344417D01*
X11934135Y-23344417D02*
X11934135Y-23334893D01*
X11934135Y-23334893D02*
X11943659Y-23315845D01*
X11943659Y-23315845D02*
X11962706Y-23306322D01*
X11962706Y-23306322D02*
X11991278Y-23306322D01*
X11991278Y-23306322D02*
X12010325Y-23315845D01*
X12086516Y-23515845D02*
X12096040Y-23506322D01*
X12096040Y-23506322D02*
X12115087Y-23477750D01*
X12115087Y-23477750D02*
X12124611Y-23458703D01*
X12124611Y-23458703D02*
X12134135Y-23430131D01*
X12134135Y-23430131D02*
X12143659Y-23382512D01*
X12143659Y-23382512D02*
X12143659Y-23344417D01*
X12143659Y-23344417D02*
X12134135Y-23296798D01*
X12134135Y-23296798D02*
X12124611Y-23268226D01*
X12124611Y-23268226D02*
X12115087Y-23249179D01*
X12115087Y-23249179D02*
X12096040Y-23220607D01*
X12096040Y-23220607D02*
X12086516Y-23211083D01*
M02*
