  0
SECTION
  2
HEADER
  9
$ANGBASE
  50
0.0
  9
$ANGDIR
  70
1
  9
$MEASUREMENT
  70
1
  0
ENDSEC
  0
SECTION
  2
TABLES
  0
TABLE
  2
LTYPE
  70
4
  0
LTYPE
  5
40F
  2
CONTINUOUS
  70
0
  3
Solid line
  72
65
  73
0
  40
0.0
  0
LTYPE
  5
410
  2
DASHDOT
 70
0
  3
Dash Dot ____ _ ____ _
 72
65
 73
4
 40
2.0
 49
1.25
 49
-0.25
 49
0.25
 49
-0.25
  0
LTYPE
  5
411
  2
DASHED
 70
0
  3
Dashed __ __ __ __ __
 72
65
 73
2
 40
0.75
 49
0.5
 49
-0.25
  0
LTYPE
  5
43B
  2
DOTTED
 70
0
  3
Dotted .  .  .  .
 72
65
 73
2
 40
0.2
 49
0.0
 49
-0.2
  0
ENDTAB
  0
TABLE
  2
STYLE
  70
4
  0
STYLE
  2
KICAD
  70
0
  40
0
  41
1
  42
1
  50
0
  71
0
  3
isocp.shx
  0
STYLE
  2
KICADB
  70
0
  40
0
  41
1
  42
1
  50
0
  71
0
  3
isocp.shx
  0
STYLE
  2
KICADI
  70
0
  40
0
  41
1
  42
1
  50
15
  71
0
  3
isocp.shx
  0
STYLE
  2
KICADBI
  70
0
  40
0
  41
1
  42
1
  50
15
  71
0
  3
isocp.shx
  0
ENDTAB
  0
TABLE
  2
LAYER
  70
1
  0
LAYER
  2
BLACK
  70
0
  62
7
  6
CONTINUOUS
  0
ENDTAB
  0
ENDSEC
  0
SECTION
  2
ENTITIES
0
LINE
8
BLACK
6
CONTINUOUS
10
69.3300040000000024
20
-103.0000009999999975
11
99.714737999999997
21
-216.4964640000000031
0
ARC
8
BLACK
10
211.8999999999999773
20
-635.2003999999999451
40
433.4726277770036518
50
75.00065460
51
104.99921869
0
ARC
8
BLACK
10
211.8999999999999773
20
-635.1998999999999569
40
550.9654583139039232
50
75.00046958
51
104.99673170
0
LINE
8
BLACK
6
CONTINUOUS
10
324.0861879999999928
20
-216.4967120000000023
11
354.4959920000000011
21
-103.0069659999999914
0
CIRCLE
8
BLACK
10
291.0645409999999629
20
-105.6154619999999937
40
0.75
0
CIRCLE
8
BLACK
10
283.6825399999999604
20
-107.7940079999999909
40
0.75
0
CIRCLE
8
BLACK
10
289.6285959999999591
20
-115.6734769999999912
40
0.75
0
CIRCLE
8
BLACK
10
282.2465950000000134
20
-117.8520229999999884
40
0.75
0
CIRCLE
8
BLACK
10
288.1926500000000146
20
-125.7314939999999979
40
0.75
0
CIRCLE
8
BLACK
10
280.8106500000000096
20
-127.9100380000000001
40
0.75
0
CIRCLE
8
BLACK
10
286.7567050000000108
20
-135.7895059999999887
40
0.75
0
CIRCLE
8
BLACK
10
279.3747040000000084
20
-137.9680529999999976
40
0.75
0
CIRCLE
8
BLACK
10
285.320760000000007
20
-145.8475210000000004
40
0.75
0
CIRCLE
8
BLACK
10
277.9387590000000046
20
-148.0260669999999834
40
0.75
0
CIRCLE
8
BLACK
10
283.8848150000000032
20
-155.9055359999999837
40
0.75
0
CIRCLE
8
BLACK
10
276.5028140000000008
20
-158.0840819999999951
40
0.75
0
CIRCLE
8
BLACK
10
282.448869000000002
20
-165.9635509999999954
40
0.75
0
CIRCLE
8
BLACK
10
275.0668679999999995
20
-168.1420969999999784
40
0.75
0
CIRCLE
8
BLACK
10
151.2700009999999793
20
-195.7504109999999855
40
0.5
0
CIRCLE
8
BLACK
10
148.7300009999999872
20
-195.7504109999999855
40
0.5
0
CIRCLE
8
BLACK
10
146.1900009999999952
20
-195.7504109999999855
40
0.5
0
CIRCLE
8
BLACK
10
143.6500010000000032
20
-195.7504109999999855
40
0.5
0
CIRCLE
8
BLACK
10
141.1100009999999827
20
-195.7504109999999855
40
0.5
0
CIRCLE
8
BLACK
10
186.2473029999999881
20
-100.3472129999999964
40
0.75
0
CIRCLE
8
BLACK
10
179.4321589999999844
20
-103.9240559999999931
40
0.75
0
CIRCLE
8
BLACK
10
186.8011699999999848
20
-110.4921049999999951
40
0.75
0
CIRCLE
8
BLACK
10
179.9860259999999812
20
-114.0689479999999918
40
0.75
0
CIRCLE
8
BLACK
10
187.3550379999999791
20
-120.6369969999999938
40
0.75
0
CIRCLE
8
BLACK
10
180.539892999999978
20
-124.2138399999999905
40
0.75
0
CIRCLE
8
BLACK
10
187.9089050000000043
20
-130.7818890000000067
40
0.75
0
CIRCLE
8
BLACK
10
181.0937610000000006
20
-134.3587320000000034
40
0.75
0
CIRCLE
8
BLACK
10
188.4627720000000011
20
-140.9267799999999795
40
0.75
0
CIRCLE
8
BLACK
10
181.6476279999999974
20
-144.5036240000000021
40
0.75
0
CIRCLE
8
BLACK
10
189.0166399999999953
20
-151.0716720000000066
40
0.75
0
CIRCLE
8
BLACK
10
182.2014949999999942
20
-154.6485150000000033
40
0.75
0
CIRCLE
8
BLACK
10
189.5705069999999921
20
-161.2165640000000053
40
0.75
0
CIRCLE
8
BLACK
10
182.7553629999999885
20
-164.793407000000002
40
0.75
0
CIRCLE
8
BLACK
10
221.2793189999999868
20
-99.8147769999999923
40
0.75
0
CIRCLE
8
BLACK
10
214.244829999999979
20
-102.9382299999999901
40
0.75
0
CIRCLE
8
BLACK
10
221.1684929999999838
20
-109.9741729999999933
40
0.75
0
CIRCLE
8
BLACK
10
214.1340029999999786
20
-113.0976259999999911
40
0.75
0
CIRCLE
8
BLACK
10
221.0576669999999808
20
-120.1335679999999968
40
0.75
0
CIRCLE
8
BLACK
10
214.023177000000004
20
-123.2570209999999946
40
0.75
0
CIRCLE
8
BLACK
10
220.9468399999999804
20
-130.2929639999999836
40
0.75
0
CIRCLE
8
BLACK
10
213.912351000000001
20
-133.4164169999999956
40
0.75
0
CIRCLE
8
BLACK
10
220.8360139999999774
20
-140.4523590000000013
40
0.75
0
CIRCLE
8
BLACK
10
213.801524999999998
20
-143.5758119999999849
40
0.75
0
CIRCLE
8
BLACK
10
220.7251880000000028
20
-150.6117549999999881
40
0.75
0
CIRCLE
8
BLACK
10
213.6906989999999951
20
-153.7352080000000001
40
0.75
0
CIRCLE
8
BLACK
10
220.6143619999999999
20
-160.7711500000000058
40
0.75
0
CIRCLE
8
BLACK
10
213.5798719999999946
20
-163.8946029999999894
40
0.75
0
CIRCLE
8
BLACK
10
321.125507999999968
20
-209.5039809999999818
40
1.5999989999999999
0
CIRCLE
8
BLACK
10
232.9455239999999776
20
-100.1455689999999947
40
0.75
0
CIRCLE
8
BLACK
10
225.844571000000002
20
-103.1148219999999895
40
0.75
0
CIRCLE
8
BLACK
10
232.6130979999999795
20
-110.3001289999999983
40
0.75
0
CIRCLE
8
BLACK
10
225.5121450000000038
20
-113.2693819999999931
40
0.75
0
CIRCLE
8
BLACK
10
232.2806719999999814
20
-120.4546889999999877
40
0.75
0
CIRCLE
8
BLACK
10
225.1797189999999773
20
-123.4239429999999942
40
0.75
0
CIRCLE
8
BLACK
10
231.9482459999999833
20
-130.609250000000003
40
0.75
0
CIRCLE
8
BLACK
10
224.8472929999999792
20
-133.5785029999999836
40
0.75
0
CIRCLE
8
BLACK
10
231.6158199999999852
20
-140.7638100000000065
40
0.75
0
CIRCLE
8
BLACK
10
224.5148669999999811
20
-143.7330629999999871
40
0.75
0
CIRCLE
8
BLACK
10
231.2833949999999845
20
-150.9183699999999817
40
0.75
0
CIRCLE
8
BLACK
10
224.182440999999983
20
-153.8876229999999907
40
0.75
0
CIRCLE
8
BLACK
10
230.9509689999999864
20
-161.0729299999999853
40
0.75
0
CIRCLE
8
BLACK
10
223.8500159999999823
20
-164.0421829999999943
40
0.75
0
CIRCLE
8
BLACK
10
301.5399999999999636
20
-199.4599999999999795
40
0.5
0
CIRCLE
8
BLACK
10
299.
20
-199.4599999999999795
40
0.5
0
CIRCLE
8
BLACK
10
296.460000999999977
20
-199.4599999999999795
40
0.5
0
CIRCLE
8
BLACK
10
194.2227299999999843
20
-90.2824209999999994
40
1.5999989999999999
0
CIRCLE
8
BLACK
10
302.5979150000000004
20
-107.46450999999999
40
0.75
0
CIRCLE
8
BLACK
10
295.1701459999999884
20
-109.4814999999999969
40
0.75
0
CIRCLE
8
BLACK
10
300.9428969999999595
20
-117.4888059999999967
40
0.75
0
CIRCLE
8
BLACK
10
293.5151280000000042
20
-119.5057970000000012
40
0.75
0
CIRCLE
8
BLACK
10
299.2878789999999753
20
-127.513103000000001
40
0.75
0
CIRCLE
8
BLACK
10
291.8601099999999633
20
-129.5300929999999937
40
0.75
0
CIRCLE
8
BLACK
10
297.6328609999999912
20
-137.5373989999999935
40
0.75
0
CIRCLE
8
BLACK
10
290.2050919999999792
20
-139.5543889999999863
40
0.75
0
CIRCLE
8
BLACK
10
295.9778430000000071
20
-147.5616949999999861
40
0.75
0
CIRCLE
8
BLACK
10
288.5500739999999951
20
-149.5786850000000072
40
0.75
0
CIRCLE
8
BLACK
10
294.3228249999999662
20
-157.585991000000007
40
0.75
0
CIRCLE
8
BLACK
10
286.895056000000011
20
-159.6029819999999972
40
0.75
0
CIRCLE
8
BLACK
10
292.6678069999999821
20
-167.6102879999999971
40
0.75
0
CIRCLE
8
BLACK
10
285.24003799999997
20
-169.6272779999999898
40
0.75
0
CIRCLE
8
BLACK
10
82.437782999999996
20
-115.6178049999999899
40
0.75
0
CIRCLE
8
BLACK
10
76.451397
20
-120.455489
40
0.75
0
CIRCLE
8
BLACK
10
84.9601779999999991
20
-125.4597109999999986
40
0.75
0
CIRCLE
8
BLACK
10
78.9737920000000031
20
-130.2973949999999945
40
0.75
0
CIRCLE
8
BLACK
10
87.4825730000000021
20
-135.3016179999999906
40
0.75
0
CIRCLE
8
BLACK
10
81.4961869999999919
20
-140.1393019999999865
40
0.75
0
CIRCLE
8
BLACK
10
90.004967999999991
20
-145.1435239999999851
40
0.75
0
CIRCLE
8
BLACK
10
84.0185829999999925
20
-149.981207999999981
40
0.75
0
CIRCLE
8
BLACK
10
92.5273639999999915
20
-154.9854310000000055
40
0.75
0
CIRCLE
8
BLACK
10
86.5409779999999955
20
-159.8231150000000014
40
0.75
0
CIRCLE
8
BLACK
10
95.0497589999999946
20
-164.827337
40
0.75
0
CIRCLE
8
BLACK
10
89.0633729999999986
20
-169.6650209999999959
40
0.75
0
CIRCLE
8
BLACK
10
97.5721539999999976
20
-174.669243999999992
40
0.75
0
CIRCLE
8
BLACK
10
91.5857680000000016
20
-179.5069269999999904
40
0.75
0
CIRCLE
8
BLACK
10
128.2008710000000065
20
-106.3103519999999946
40
0.75
0
CIRCLE
8
BLACK
10
121.8156329999999912
20
-110.6078789999999969
40
0.75
0
CIRCLE
8
BLACK
10
129.8558889999999906
20
-116.3346480000000014
40
0.75
0
CIRCLE
8
BLACK
10
123.4706509999999895
20
-120.6321749999999895
40
0.75
0
CIRCLE
8
BLACK
10
131.5109070000000031
20
-126.3589449999999914
40
0.75
0
CIRCLE
8
BLACK
10
125.1256689999999878
20
-130.6564699999999846
40
0.75
0
CIRCLE
8
BLACK
10
133.1659249999999872
20
-136.3832409999999982
40
0.75
0
CIRCLE
8
BLACK
10
126.7806870000000004
20
-140.6807680000000005
40
0.75
0
CIRCLE
8
BLACK
10
134.8209429999999998
20
-146.4075369999999907
40
0.75
0
CIRCLE
8
BLACK
10
128.4357049999999845
20
-150.705063999999993
40
0.75
0
CIRCLE
8
BLACK
10
136.4759609999999839
20
-156.4318329999999833
40
0.75
0
CIRCLE
8
BLACK
10
130.090722999999997
20
-160.7293599999999856
40
0.75
0
CIRCLE
8
BLACK
10
138.1309789999999964
20
-166.4561300000000017
40
0.75
0
CIRCLE
8
BLACK
10
131.7457409999999811
20
-170.753657000000004
40
0.75
0
CIRCLE
8
BLACK
10
139.7554059999999936
20
-104.6069239999999922
40
0.75
0
CIRCLE
8
BLACK
10
133.277938000000006
20
-108.764134999999996
40
0.75
0
CIRCLE
8
BLACK
10
141.1913509999999974
20
-114.6649389999999897
40
0.75
0
CIRCLE
8
BLACK
10
134.7138829999999814
20
-118.8221499999999935
40
0.75
0
CIRCLE
8
BLACK
10
142.6272969999999987
20
-124.7229559999999964
40
0.75
0
CIRCLE
8
BLACK
10
136.1498279999999852
20
-128.8801650000000052
40
0.75
0
CIRCLE
8
BLACK
10
144.0632420000000025
20
-134.7809680000000014
40
0.75
0
CIRCLE
8
BLACK
10
137.5857749999999839
20
-138.938178999999991
40
0.75
0
CIRCLE
8
BLACK
10
145.4991870000000063
20
-144.8389829999999847
40
0.75
0
CIRCLE
8
BLACK
10
139.0217189999999903
20
-148.9961940000000027
40
0.75
0
CIRCLE
8
BLACK
10
146.9351319999999816
20
-154.8969979999999964
40
0.75
0
CIRCLE
8
BLACK
10
140.4576639999999941
20
-159.054208999999986
40
0.75
0
CIRCLE
8
BLACK
10
148.3710779999999829
20
-164.9550129999999797
40
0.75
0
CIRCLE
8
BLACK
10
141.8936089999999979
20
-169.1122239999999977
40
0.75
0
CIRCLE
8
BLACK
10
279.4916809999999714
20
-104.0128950000000003
40
0.75
0
CIRCLE
8
BLACK
10
272.1589619999999741
20
-106.3519599999999912
40
0.75
0
CIRCLE
8
BLACK
10
278.2754919999999856
20
-114.0998409999999978
40
0.75
0
CIRCLE
8
BLACK
10
270.9427719999999908
20
-116.4389070000000004
40
0.75
0
CIRCLE
8
BLACK
10
277.0593029999999999
20
-124.1867869999999954
40
0.75
0
CIRCLE
8
BLACK
10
269.7265830000000051
20
-126.5258529999999979
40
0.75
0
CIRCLE
8
BLACK
10
275.8431140000000141
20
-134.2737339999999904
40
0.75
0
CIRCLE
8
BLACK
10
268.5103939999999625
20
-136.6127989999999954
40
0.75
0
CIRCLE
8
BLACK
10
274.6269239999999741
20
-144.3606800000000021
40
0.75
0
CIRCLE
8
BLACK
10
267.2942049999999767
20
-146.6997450000000072
40
0.75
0
CIRCLE
8
BLACK
10
273.4107349999999883
20
-154.4476259999999854
40
0.75
0
CIRCLE
8
BLACK
10
266.078015999999991
20
-156.7866909999999905
40
0.75
0
CIRCLE
8
BLACK
10
272.1945460000000026
20
-164.5345719999999972
40
0.75
0
CIRCLE
8
BLACK
10
264.8618270000000052
20
-166.8736379999999997
40
0.75
0
CIRCLE
8
BLACK
10
314.0847840000000133
20
-109.5726140000000015
40
0.75
0
CIRCLE
8
BLACK
10
306.6147819999999911
20
-111.4270879999999977
40
0.75
0
CIRCLE
8
BLACK
10
312.211480999999992
20
-119.5584209999999956
40
0.75
0
CIRCLE
8
BLACK
10
304.7414789999999698
20
-121.4128949999999918
40
0.75
0
CIRCLE
8
BLACK
10
310.3381779999999708
20
-129.5442270000000065
40
0.75
0
CIRCLE
8
BLACK
10
302.8681760000000054
20
-131.3987019999999859
40
0.75
0
CIRCLE
8
BLACK
10
308.4648750000000064
20
-139.5300340000000006
40
0.75
0
CIRCLE
8
BLACK
10
300.9948729999999841
20
-141.38450899999998
40
0.75
0
CIRCLE
8
BLACK
10
306.5915719999999851
20
-149.5158409999999947
40
0.75
0
CIRCLE
8
BLACK
10
299.1215699999999629
20
-151.3703150000000051
40
0.75
0
CIRCLE
8
BLACK
10
304.7182689999999639
20
-159.5016479999999888
40
0.75
0
CIRCLE
8
BLACK
10
297.2482669999999985
20
-161.3561219999999992
40
0.75
0
CIRCLE
8
BLACK
10
302.8449659999999994
20
-169.4874539999999854
40
0.75
0
CIRCLE
8
BLACK
10
295.3749639999999772
20
-171.3419289999999933
40
0.75
0
CIRCLE
8
BLACK
10
229.9147359999999765
20
-90.3418640000000011
40
1.5999989999999999
0
CIRCLE
8
BLACK
10
241.8051109999999824
20
-90.8509930000000026
40
1.5999989999999999
0
CIRCLE
8
BLACK
10
197.9116630000000043
20
-99.9163149999999973
40
0.75
0
CIRCLE
8
BLACK
10
191.0201119999999833
20
-103.3436349999999919
40
0.75
0
CIRCLE
8
BLACK
10
198.2440890000000024
20
-110.0708750000000009
40
0.75
0
CIRCLE
8
BLACK
10
191.3525379999999814
20
-113.4981949999999955
40
0.75
0
CIRCLE
8
BLACK
10
198.5765150000000006
20
-120.2254349999999903
40
0.75
0
CIRCLE
8
BLACK
10
191.6849639999999795
20
-123.6527559999999966
40
0.75
0
CIRCLE
8
BLACK
10
198.9089409999999987
20
-130.3799960000000056
40
0.75
0
CIRCLE
8
BLACK
10
192.0173899999999776
20
-133.8073159999999859
40
0.75
0
CIRCLE
8
BLACK
10
199.2413669999999968
20
-140.5345559999999807
40
0.75
0
CIRCLE
8
BLACK
10
192.3498149999999782
20
-143.9618759999999895
40
0.75
0
CIRCLE
8
BLACK
10
199.5737919999999974
20
-150.6891159999999843
40
0.75
0
CIRCLE
8
BLACK
10
192.6822410000000048
20
-154.1164359999999931
40
0.75
0
CIRCLE
8
BLACK
10
199.9062179999999955
20
-160.8436759999999879
40
0.75
0
CIRCLE
8
BLACK
10
193.0146670000000029
20
-164.2709969999999942
40
0.75
0
CIRCLE
8
BLACK
10
209.587853999999993
20
-99.7376659999999902
40
0.75
0
CIRCLE
8
BLACK
10
202.6231760000000008
20
-103.0138319999999936
40
0.75
0
CIRCLE
8
BLACK
10
209.698679999999996
20
-109.8970619999999911
40
0.75
0
CIRCLE
8
BLACK
10
202.7340030000000013
20
-113.1732279999999946
40
0.75
0
CIRCLE
8
BLACK
10
209.8095059999999989
20
-120.0564569999999947
40
0.75
0
CIRCLE
8
BLACK
10
202.8448290000000043
20
-123.3326229999999981
40
0.75
0
CIRCLE
8
BLACK
10
209.9203329999999994
20
-130.2158529999999814
40
0.75
0
CIRCLE
8
BLACK
10
202.9556549999999788
20
-133.4920189999999991
40
0.75
0
CIRCLE
8
BLACK
10
210.0311590000000024
20
-140.3752479999999991
40
0.75
0
CIRCLE
8
BLACK
10
203.0664809999999818
20
-143.6514139999999884
40
0.75
0
CIRCLE
8
BLACK
10
210.1419849999999769
20
-150.5346439999999859
40
0.75
0
CIRCLE
8
BLACK
10
203.1773069999999848
20
-153.8108100000000036
40
0.75
0
CIRCLE
8
BLACK
10
210.2528109999999799
20
-160.6940390000000036
40
0.75
0
CIRCLE
8
BLACK
10
203.2881339999999852
20
-163.9702049999999929
40
0.75
0
CIRCLE
8
BLACK
10
162.9526419999999973
20
-101.9651689999999888
40
0.75
0
CIRCLE
8
BLACK
10
156.3000040000000013
20
-105.8358799999999889
40
0.75
0
CIRCLE
8
BLACK
10
163.9484960000000058
20
-112.0762459999999976
40
0.75
0
CIRCLE
8
BLACK
10
157.2958579999999813
20
-115.9469569999999976
40
0.75
0
CIRCLE
8
BLACK
10
164.9443499999999858
20
-122.1873229999999921
40
0.75
0
CIRCLE
8
BLACK
10
158.2917119999999898
20
-126.0580339999999921
40
0.75
0
CIRCLE
8
BLACK
10
165.9402039999999943
20
-132.2983969999999943
40
0.75
0
CIRCLE
8
BLACK
10
159.2875659999999982
20
-136.1691109999999867
40
0.75
0
CIRCLE
8
BLACK
10
166.9360590000000002
20
-142.4094759999999837
40
0.75
0
CIRCLE
8
BLACK
10
160.2834200000000067
20
-146.2801869999999838
40
0.75
0
CIRCLE
8
BLACK
10
167.9319129999999802
20
-152.5205530000000067
40
0.75
0
CIRCLE
8
BLACK
10
161.2792739999999867
20
-156.3912640000000067
40
0.75
0
CIRCLE
8
BLACK
10
168.9277669999999887
20
-162.6316300000000012
40
0.75
0
CIRCLE
8
BLACK
10
162.2751289999999926
20
-166.5023410000000013
40
0.75
0
CIRCLE
8
BLACK
10
120.269999999999996
20
-183.3899999999999864
40
0.5
0
CIRCLE
8
BLACK
10
117.7299999999999898
20
-183.3899999999999864
40
0.5
0
CIRCLE
8
BLACK
10
115.1900009999999952
20
-183.3899999999999864
40
0.5
0
CIRCLE
8
BLACK
10
116.6893069999999994
20
-108.262315000000001
40
0.75
0
CIRCLE
8
BLACK
10
110.3993389999999977
20
-112.6981129999999922
40
0.75
0
CIRCLE
8
BLACK
10
118.5626099999999923
20
-118.2481219999999951
40
0.75
0
CIRCLE
8
BLACK
10
112.2726419999999905
20
-122.6839189999999888
40
0.75
0
CIRCLE
8
BLACK
10
120.4359129999999993
20
-128.2339279999999917
40
0.75
0
CIRCLE
8
BLACK
10
114.1459449999999975
20
-132.6697259999999972
40
0.75
0
CIRCLE
8
BLACK
10
122.3092159999999922
20
-138.2197349999999858
40
0.75
0
CIRCLE
8
BLACK
10
116.0192479999999904
20
-142.6555329999999913
40
0.75
0
CIRCLE
8
BLACK
10
124.1825189999999992
20
-148.2055419999999799
40
0.75
0
CIRCLE
8
BLACK
10
117.8925509999999974
20
-152.6413389999999879
40
0.75
0
CIRCLE
8
BLACK
10
126.055821999999992
20
-158.1913490000000024
40
0.75
0
CIRCLE
8
BLACK
10
119.7658539999999903
20
-162.627145999999982
40
0.75
0
CIRCLE
8
BLACK
10
127.9291249999999991
20
-168.1771549999999991
40
0.75
0
CIRCLE
8
BLACK
10
121.6391569999999973
20
-172.6129530000000045
40
0.75
0
CIRCLE
8
BLACK
10
93.7975819999999914
20
-112.9113899999999973
40
0.75
0
CIRCLE
8
BLACK
10
87.7070870000000014
20
-117.6173299999999955
40
0.75
0
CIRCLE
8
BLACK
10
96.1046769999999952
20
-122.805979999999991
40
0.75
0
CIRCLE
8
BLACK
10
90.014181999999991
20
-127.5119199999999893
40
0.75
0
CIRCLE
8
BLACK
10
98.4117719999999991
20
-132.700569999999999
40
0.75
0
CIRCLE
8
BLACK
10
92.3212769999999949
20
-137.4065099999999973
40
0.75
0
CIRCLE
8
BLACK
10
100.7188659999999913
20
-142.5951599999999928
40
0.75
0
CIRCLE
8
BLACK
10
94.6283719999999988
20
-147.3011009999999885
40
0.75
0
CIRCLE
8
BLACK
10
103.0259609999999952
20
-152.4897489999999891
40
0.75
0
CIRCLE
8
BLACK
10
96.9354670000000027
20
-157.1956909999999823
40
0.75
0
CIRCLE
8
BLACK
10
105.3330559999999991
20
-162.3843410000000063
40
0.75
0
CIRCLE
8
BLACK
10
99.2425609999999949
20
-167.0902810000000045
40
0.75
0
CIRCLE
8
BLACK
10
107.6401509999999888
20
-172.278931
40
0.75
0
CIRCLE
8
BLACK
10
101.5496559999999988
20
-176.9848709999999983
40
0.75
0
CIRCLE
8
BLACK
10
105.2213359999999938
20
-110.4722629999999981
40
0.75
0
CIRCLE
8
BLACK
10
99.0296309999999949
20
-115.0442199999999957
40
0.75
0
CIRCLE
8
BLACK
10
107.3120320000000021
20
-120.4148259999999908
40
0.75
0
CIRCLE
8
BLACK
10
101.120326999999989
20
-124.9867840000000001
40
0.75
0
CIRCLE
8
BLACK
10
109.4027289999999937
20
-130.3573920000000044
40
0.75
0
CIRCLE
8
BLACK
10
103.2110239999999948
20
-134.929349000000002
40
0.75
0
CIRCLE
8
BLACK
10
111.493425000000002
20
-140.2999559999999803
40
0.75
0
CIRCLE
8
BLACK
10
105.3017199999999889
20
-144.8719130000000064
40
0.75
0
CIRCLE
8
BLACK
10
113.5841219999999936
20
-150.2425209999999822
40
0.75
0
CIRCLE
8
BLACK
10
107.3924169999999947
20
-154.8144779999999798
40
0.75
0
CIRCLE
8
BLACK
10
115.6748179999999877
20
-160.1850849999999866
40
0.75
0
CIRCLE
8
BLACK
10
109.4831129999999888
20
-164.7570419999999842
40
0.75
0
CIRCLE
8
BLACK
10
117.7655149999999935
20
-170.1276499999999885
40
0.75
0
CIRCLE
8
BLACK
10
111.5738099999999946
20
-174.6996069999999861
40
0.75
0
CIRCLE
8
BLACK
10
182.3535599999999874
20
-90.7964369999999974
40
1.5999989999999999
0
CIRCLE
8
BLACK
10
280.8499239999999872
20
-183.3410829999999976
40
0.4
0
CIRCLE
8
BLACK
10
278.3221550000000093
20
-183.0921189999999967
40
0.4
0
CIRCLE
8
BLACK
10
275.7943859999999745
20
-182.8431559999999934
40
0.4
0
CIRCLE
8
BLACK
10
273.2666159999999991
20
-182.5941919999999925
40
0.4
0
CIRCLE
8
BLACK
10
270.7388469999999643
20
-182.3452289999999891
40
0.4
0
CIRCLE
8
BLACK
10
268.2110779999999863
20
-182.0962649999999883
40
0.4
0
CIRCLE
8
BLACK
10
265.6833090000000084
20
-181.8473019999999849
40
0.4
0
CIRCLE
8
BLACK
10
263.1555399999999736
20
-181.598337999999984
40
0.4
0
CIRCLE
8
BLACK
10
260.6277699999999982
20
-181.3493749999999807
40
0.4
0
CIRCLE
8
BLACK
10
258.1000009999999634
20
-181.1004109999999798
40
0.4
0
CIRCLE
8
BLACK
10
255.5722319999999854
20
-180.8514480000000049
40
0.4
0
CIRCLE
8
BLACK
10
253.044462999999979
20
-180.602484000000004
40
0.4
0
CIRCLE
8
BLACK
10
250.516695999999996
20
-180.3535210000000006
40
0.4
0
CIRCLE
8
BLACK
10
247.9889239999999972
20
-180.1045569999999998
40
0.4
0
CIRCLE
8
BLACK
10
245.4611549999999909
20
-179.8555929999999989
40
0.4
0
CIRCLE
8
BLACK
10
242.9333859999999845
20
-179.6066299999999956
40
0.4
0
CIRCLE
8
BLACK
10
240.4056169999999781
20
-179.3576659999999947
40
0.4
0
CIRCLE
8
BLACK
10
237.8778480000000002
20
-179.1087029999999913
40
0.4
0
CIRCLE
8
BLACK
10
235.3500779999999963
20
-178.8597389999999905
40
0.4
0
CIRCLE
8
BLACK
10
232.82230899999999
20
-178.6107759999999871
40
0.4
0
CIRCLE
8
BLACK
10
231.3285279999999773
20
-193.7773909999999944
40
0.4
0
CIRCLE
8
BLACK
10
233.8562969999999837
20
-194.0263549999999952
40
0.4
0
CIRCLE
8
BLACK
10
236.38406599999999
20
-194.2753179999999986
40
0.4
0
CIRCLE
8
BLACK
10
238.9118349999999964
20
-194.5242819999999995
40
0.4
0
CIRCLE
8
BLACK
10
241.4396050000000002
20
-194.7732450000000028
40
0.4
0
CIRCLE
8
BLACK
10
243.9673739999999782
20
-195.0222090000000037
40
0.4
0
CIRCLE
8
BLACK
10
246.4951429999999846
20
-195.2711719999999787
40
0.4
0
CIRCLE
8
BLACK
10
249.0229119999999909
20
-195.5201359999999795
40
0.4
0
CIRCLE
8
BLACK
10
251.5506819999999948
20
-195.7690989999999829
40
0.4
0
CIRCLE
8
BLACK
10
254.0784510000000012
20
-196.0180629999999837
40
0.4
0
CIRCLE
8
BLACK
10
256.6062200000000075
20
-196.2670259999999871
40
0.4
0
CIRCLE
8
BLACK
10
259.1339889999999855
20
-196.515989999999988
40
0.4
0
CIRCLE
8
BLACK
10
261.6617579999999634
20
-196.7649529999999913
40
0.4
0
CIRCLE
8
BLACK
10
264.1895279999999957
20
-197.0139169999999922
40
0.4
0
CIRCLE
8
BLACK
10
266.7172969999999737
20
-197.262880999999993
40
0.4
0
CIRCLE
8
BLACK
10
269.2450660000000084
20
-197.5118439999999964
40
0.4
0
CIRCLE
8
BLACK
10
271.7728349999999864
20
-197.7608079999999973
40
0.4
0
CIRCLE
8
BLACK
10
274.3006039999999643
20
-198.0097710000000006
40
0.4
0
CIRCLE
8
BLACK
10
276.8283739999999966
20
-198.2587350000000015
40
0.4
0
CIRCLE
8
BLACK
10
279.3561429999999746
20
-198.5076980000000049
40
0.4
0
CIRCLE
8
BLACK
10
336.9036839999999984
20
-114.5333569999999952
40
0.75
0
CIRCLE
8
BLACK
10
329.3599009999999794
20
-116.0602289999999925
40
0.75
0
CIRCLE
8
BLACK
10
334.5965889999999945
20
-124.427946999999989
40
0.75
0
CIRCLE
8
BLACK
10
327.0528059999999755
20
-125.954819999999998
40
0.75
0
CIRCLE
8
BLACK
10
332.2894939999999906
20
-134.3225369999999828
40
0.75
0
CIRCLE
8
BLACK
10
324.7457109999999716
20
-135.849410000000006
40
0.75
0
CIRCLE
8
BLACK
10
329.9823999999999842
20
-144.217127000000005
40
0.75
0
CIRCLE
8
BLACK
10
322.4386169999999652
20
-145.7439999999999998
40
0.75
0
CIRCLE
8
BLACK
10
327.6753049999999803
20
-154.1117160000000013
40
0.75
0
CIRCLE
8
BLACK
10
320.1315219999999613
20
-155.6385899999999936
40
0.75
0
CIRCLE
8
BLACK
10
325.3682099999999764
20
-164.00630799999999
40
0.75
0
CIRCLE
8
BLACK
10
317.8244269999999574
20
-165.5331799999999873
40
0.75
0
CIRCLE
8
BLACK
10
323.0611149999999725
20
-173.9008979999999838
40
0.75
0
CIRCLE
8
BLACK
10
315.5173320000000103
20
-175.4277699999999811
40
0.75
0
CIRCLE
8
BLACK
10
128.8599999999999852
20
-203.2099999999999795
40
0.5
0
CIRCLE
8
BLACK
10
126.3199999999999932
20
-203.2099999999999795
40
0.5
0
CIRCLE
8
BLACK
10
267.8863609999999653
20
-102.669715999999994
40
0.75
0
CIRCLE
8
BLACK
10
260.606412999999975
20
-105.168186999999989
40
0.75
0
CIRCLE
8
BLACK
10
266.8905070000000137
20
-112.7807929999999885
40
0.75
0
CIRCLE
8
BLACK
10
259.6105589999999665
20
-115.2792639999999977
40
0.75
0
CIRCLE
8
BLACK
10
265.8946530000000052
20
-122.8918699999999973
40
0.75
0
CIRCLE
8
BLACK
10
258.6147050000000149
20
-125.3903409999999923
40
0.75
0
CIRCLE
8
BLACK
10
264.8987989999999968
20
-133.0029439999999852
40
0.75
0
CIRCLE
8
BLACK
10
257.6188510000000065
20
-135.501418000000001
40
0.75
0
CIRCLE
8
BLACK
10
263.9029439999999909
20
-143.1140230000000031
40
0.75
0
CIRCLE
8
BLACK
10
256.6229930000000081
20
-145.6124939999999981
40
0.75
0
CIRCLE
8
BLACK
10
262.9070899999999824
20
-153.2250999999999976
40
0.75
0
CIRCLE
8
BLACK
10
255.6271419999999921
20
-155.7235709999999926
40
0.75
0
CIRCLE
8
BLACK
10
261.911235999999974
20
-163.3361769999999922
40
0.75
0
CIRCLE
8
BLACK
10
254.6312879999999836
20
-165.8346479999999872
40
0.75
0
CIRCLE
8
BLACK
10
319.5919010000000071
20
-200.3373529999999789
40
0.5
0
CIRCLE
8
BLACK
10
317.1246499999999742
20
-199.7338029999999947
40
0.5
0
CIRCLE
8
BLACK
10
320.1954509999999914
20
-197.8701020000000028
40
0.5
0
CIRCLE
8
BLACK
10
317.7281999999999584
20
-197.2665519999999901
40
0.5
0
CIRCLE
8
BLACK
10
320.7990009999999756
20
-195.4028509999999983
40
0.5
0
CIRCLE
8
BLACK
10
318.3317499999999995
20
-194.7993009999999856
40
0.5
0
CIRCLE
8
BLACK
10
321.4025509999999599
20
-192.9355999999999938
40
0.5
0
CIRCLE
8
BLACK
10
318.9352999999999838
20
-192.3320499999999811
40
0.5
0
CIRCLE
8
BLACK
10
174.5940849999999784
20
-101.0269909999999953
40
0.75
0
CIRCLE
8
BLACK
10
167.8585909999999899
20
-104.751654000000002
40
0.75
0
CIRCLE
8
BLACK
10
175.3691299999999842
20
-111.1573859999999883
40
0.75
0
CIRCLE
8
BLACK
10
168.6336359999999956
20
-114.8820499999999925
40
0.75
0
CIRCLE
8
BLACK
10
176.14417499999999
20
-121.2877809999999954
40
0.75
0
CIRCLE
8
BLACK
10
169.4086810000000014
20
-125.0124449999999996
40
0.75
0
CIRCLE
8
BLACK
10
176.9192209999999932
20
-131.4181759999999883
40
0.75
0
CIRCLE
8
BLACK
10
170.1837259999999787
20
-135.1428400000000067
40
0.75
0
CIRCLE
8
BLACK
10
177.6942659999999989
20
-141.5485709999999813
40
0.75
0
CIRCLE
8
BLACK
10
170.958771999999982
20
-145.2732349999999997
40
0.75
0
CIRCLE
8
BLACK
10
178.4693110000000047
20
-151.6789670000000001
40
0.75
0
CIRCLE
8
BLACK
10
171.7338169999999877
20
-155.4036299999999926
40
0.75
0
CIRCLE
8
BLACK
10
179.244355999999982
20
-161.809361999999993
40
0.75
0
CIRCLE
8
BLACK
10
172.5088619999999935
20
-165.5340249999999855
40
0.75
0
CIRCLE
8
BLACK
10
166.289999999999992
20
-177.8799999999999955
40
0.5
0
CIRCLE
8
BLACK
10
163.75
20
-177.8799999999999955
40
0.5
0
CIRCLE
8
BLACK
10
161.2100010000000054
20
-177.8799999999999955
40
0.5
0
CIRCLE
8
BLACK
10
221.4000010000000032
20
-178.4004109999999912
40
0.4
0
CIRCLE
8
BLACK
10
218.8613609999999881
20
-178.4835169999999778
40
0.4
0
CIRCLE
8
BLACK
10
216.3227210000000014
20
-178.5666239999999902
40
0.4
0
CIRCLE
8
BLACK
10
213.7840809999999863
20
-178.6497300000000052
40
0.4
0
CIRCLE
8
BLACK
10
211.2454409999999996
20
-178.7328369999999893
40
0.4
0
CIRCLE
8
BLACK
10
208.7068009999999845
20
-178.8159430000000043
40
0.4
0
CIRCLE
8
BLACK
10
206.1681609999999978
20
-178.8990499999999884
40
0.4
0
CIRCLE
8
BLACK
10
203.6295209999999827
20
-178.9821560000000034
40
0.4
0
CIRCLE
8
BLACK
10
201.090880999999996
20
-179.0652629999999874
40
0.4
0
CIRCLE
8
BLACK
10
198.5522409999999809
20
-179.1483690000000024
40
0.4
0
CIRCLE
8
BLACK
10
196.0135999999999967
20
-179.2314759999999865
40
0.4
0
CIRCLE
8
BLACK
10
193.4749599999999816
20
-179.3145820000000015
40
0.4
0
CIRCLE
8
BLACK
10
190.9363199999999949
20
-179.3976889999999855
40
0.4
0
CIRCLE
8
BLACK
10
188.3976799999999798
20
-179.4807950000000005
40
0.4
0
CIRCLE
8
BLACK
10
185.8590399999999931
20
-179.5639019999999846
40
0.4
0
CIRCLE
8
BLACK
10
183.320399999999978
20
-179.6470079999999996
40
0.4
0
CIRCLE
8
BLACK
10
180.7817599999999914
20
-179.7301149999999836
40
0.4
0
CIRCLE
8
BLACK
10
178.2431200000000047
20
-179.8132209999999986
40
0.4
0
CIRCLE
8
BLACK
10
175.7044799999999896
20
-179.8963269999999852
40
0.4
0
CIRCLE
8
BLACK
10
173.1658400000000029
20
-179.9794339999999977
40
0.4
0
CIRCLE
8
BLACK
10
173.664479
20
-195.2112740000000031
40
0.4
0
CIRCLE
8
BLACK
10
176.2031189999999867
20
-195.1281679999999881
40
0.4
0
CIRCLE
8
BLACK
10
178.7417590000000018
20
-195.045061000000004
40
0.4
0
CIRCLE
8
BLACK
10
181.2803989999999885
20
-194.961954999999989
40
0.4
0
CIRCLE
8
BLACK
10
183.8190390000000036
20
-194.878848000000005
40
0.4
0
CIRCLE
8
BLACK
10
186.3576789999999903
20
-194.79574199999999
40
0.4
0
CIRCLE
8
BLACK
10
188.8963190000000054
20
-194.7126349999999775
40
0.4
0
CIRCLE
8
BLACK
10
191.4349589999999921
20
-194.6295289999999909
40
0.4
0
CIRCLE
8
BLACK
10
193.9735989999999788
20
-194.5464219999999784
40
0.4
0
CIRCLE
8
BLACK
10
196.5122389999999939
20
-194.4633159999999918
40
0.4
0
CIRCLE
8
BLACK
10
199.0508789999999806
20
-194.3802100000000053
40
0.4
0
CIRCLE
8
BLACK
10
201.5895189999999957
20
-194.2971029999999928
40
0.4
0
CIRCLE
8
BLACK
10
204.1281589999999824
20
-194.2139969999999778
40
0.4
0
CIRCLE
8
BLACK
10
206.666799999999995
20
-194.1308899999999937
40
0.4
0
CIRCLE
8
BLACK
10
209.2054399999999816
20
-194.0477839999999787
40
0.4
0
CIRCLE
8
BLACK
10
211.7440799999999967
20
-193.9646769999999947
40
0.4
0
CIRCLE
8
BLACK
10
214.2827199999999834
20
-193.8815709999999797
40
0.4
0
CIRCLE
8
BLACK
10
216.8213599999999985
20
-193.7984639999999956
40
0.4
0
CIRCLE
8
BLACK
10
219.3599999999999852
20
-193.7153579999999806
40
0.4
0
CIRCLE
8
BLACK
10
221.8986400000000003
20
-193.6322509999999966
40
0.4
0
CIRCLE
8
BLACK
10
151.342725999999999
20
-103.161689999999993
40
0.75
0
CIRCLE
8
BLACK
10
144.7761099999999885
20
-107.17660699999999
40
0.75
0
CIRCLE
8
BLACK
10
152.5589149999999847
20
-113.2486359999999905
40
0.75
0
CIRCLE
8
BLACK
10
145.9922990000000027
20
-117.2635530000000017
40
0.75
0
CIRCLE
8
BLACK
10
153.7751039999999989
20
-123.3355819999999881
40
0.75
0
CIRCLE
8
BLACK
10
147.2084879999999885
20
-127.3504989999999992
40
0.75
0
CIRCLE
8
BLACK
10
154.9912929999999847
20
-133.4225289999999973
40
0.75
0
CIRCLE
8
BLACK
10
148.4246770000000026
20
-137.4374449999999968
40
0.75
0
CIRCLE
8
BLACK
10
156.2074829999999963
20
-143.5094749999999806
40
0.75
0
CIRCLE
8
BLACK
10
149.6408669999999859
20
-147.5243909999999801
40
0.75
0
CIRCLE
8
BLACK
10
157.4236719999999821
20
-153.5964209999999923
40
0.75
0
CIRCLE
8
BLACK
10
150.857056
20
-157.6113379999999893
40
0.75
0
CIRCLE
8
BLACK
10
158.6398609999999962
20
-163.6833670000000041
40
0.75
0
CIRCLE
8
BLACK
10
152.0732449999999858
20
-167.698284000000001
40
0.75
0
CIRCLE
8
BLACK
10
244.6088009999999997
20
-100.7337229999999977
40
0.75
0
CIRCLE
8
BLACK
10
237.4447639999999922
20
-103.5473629999999901
40
0.75
0
CIRCLE
8
BLACK
10
244.0549340000000029
20
-110.8786149999999964
40
0.75
0
CIRCLE
8
BLACK
10
236.8908959999999979
20
-113.6922549999999887
40
0.75
0
CIRCLE
8
BLACK
10
243.5010659999999802
20
-121.0235069999999951
40
0.75
0
CIRCLE
8
BLACK
10
236.3370290000000011
20
-123.8371469999999874
40
0.75
0
CIRCLE
8
BLACK
10
242.9471989999999835
20
-131.1683989999999937
40
0.75
0
CIRCLE
8
BLACK
10
235.7831619999999759
20
-133.9820389999999861
40
0.75
0
CIRCLE
8
BLACK
10
242.3933319999999867
20
-141.313289999999995
40
0.75
0
CIRCLE
8
BLACK
10
235.2292939999999817
20
-144.1269299999999873
40
0.75
0
CIRCLE
8
BLACK
10
241.8394639999999924
20
-151.4581819999999936
40
0.75
0
CIRCLE
8
BLACK
10
234.6754269999999849
20
-154.271821999999986
40
0.75
0
CIRCLE
8
BLACK
10
241.2855969999999957
20
-161.6030739999999923
40
0.75
0
CIRCLE
8
BLACK
10
234.1215599999999881
20
-164.4167139999999847
40
0.75
0
CIRCLE
8
BLACK
10
102.9500010000000003
20
-209.5004109999999855
40
1.5999989999999999
0
CIRCLE
8
BLACK
10
256.2556109999999876
20
-101.573323000000002
40
0.75
0
CIRCLE
8
BLACK
10
249.0318989999999815
20
-104.2300109999999904
40
0.75
0
CIRCLE
8
BLACK
10
255.4805659999999818
20
-111.703717999999995
40
0.75
0
CIRCLE
8
BLACK
10
248.2568539999999757
20
-114.3604059999999976
40
0.75
0
CIRCLE
8
BLACK
10
254.7055209999999761
20
-121.8341129999999879
40
0.75
0
CIRCLE
8
BLACK
10
247.4818089999999984
20
-124.4908009999999905
40
0.75
0
CIRCLE
8
BLACK
10
253.9304750000000013
20
-131.964507999999995
40
0.75
0
CIRCLE
8
BLACK
10
246.7067639999999926
20
-134.6211959999999976
40
0.75
0
CIRCLE
8
BLACK
10
253.1554299999999955
20
-142.094902999999988
40
0.75
0
CIRCLE
8
BLACK
10
245.9317189999999869
20
-144.7515909999999906
40
0.75
0
CIRCLE
8
BLACK
10
252.3803849999999898
20
-152.2252990000000068
40
0.75
0
CIRCLE
8
BLACK
10
245.1566729999999836
20
-154.8819859999999835
40
0.75
0
CIRCLE
8
BLACK
10
251.605339999999984
20
-162.3556939999999997
40
0.75
0
CIRCLE
8
BLACK
10
244.3816279999999779
20
-165.0123810000000049
40
0.75
0
CIRCLE
8
BLACK
10
76.7607619999999997
20
-107.0069749999999971
40
1.5999989999999999
0
CIRCLE
8
BLACK
10
106.7506589999999989
20
-199.7123479999999915
40
0.5
0
CIRCLE
8
BLACK
10
104.2972070000000002
20
-200.3697479999999871
40
0.5
0
CIRCLE
8
BLACK
10
106.0932589999999891
20
-197.2588959999999929
40
0.5
0
CIRCLE
8
BLACK
10
103.6398069999999905
20
-197.9162969999999859
40
0.5
0
CIRCLE
8
BLACK
10
105.4358579999999961
20
-194.8054449999999918
40
0.5
0
CIRCLE
8
BLACK
10
102.9824069999999949
20
-195.4628449999999873
40
0.5
0
CIRCLE
8
BLACK
10
104.7784580000000005
20
-192.3519929999999931
40
0.5
0
CIRCLE
8
BLACK
10
102.3250060000000019
20
-193.0093939999999861
40
0.5
0
CIRCLE
8
BLACK
10
325.5245029999999815
20
-111.9268379999999894
40
0.75
0
CIRCLE
8
BLACK
10
318.0158240000000092
20
-113.617913999999999
40
0.75
0
CIRCLE
8
BLACK
10
323.4338070000000016
20
-121.8694009999999963
40
0.75
0
CIRCLE
8
BLACK
10
315.9251269999999749
20
-123.5604779999999892
40
0.75
0
CIRCLE
8
BLACK
10
321.3431099999999674
20
-131.8119669999999815
40
0.75
0
CIRCLE
8
BLACK
10
313.834430999999995
20
-133.503042999999991
40
0.75
0
CIRCLE
8
BLACK
10
319.2524139999999875
20
-141.7545309999999859
40
0.75
0
CIRCLE
8
BLACK
10
311.7437339999999608
20
-143.4456069999999954
40
0.75
0
CIRCLE
8
BLACK
10
317.1617170000000101
20
-151.6970959999999877
40
0.75
0
CIRCLE
8
BLACK
10
309.6530379999999809
20
-153.3881719999999973
40
0.75
0
CIRCLE
8
BLACK
10
315.0710209999999734
20
-161.6396599999999921
40
0.75
0
CIRCLE
8
BLACK
10
307.562342000000001
20
-163.3307360000000017
40
0.75
0
CIRCLE
8
BLACK
10
312.980323999999996
20
-171.582224999999994
40
0.75
0
CIRCLE
8
BLACK
10
305.4716449999999668
20
-173.2733010000000036
40
0.75
0
CIRCLE
8
BLACK
10
97.1809559999999948
20
-186.7831819999999823
40
1.5999989999999999
0
CIRCLE
8
BLACK
10
347.3500009999999634
20
-107.100410999999994
40
1.5999989999999999
0
CIRCLE
8
BLACK
10
326.93449099999998
20
-186.8639989999999784
40
1.5999989999999999
0
CIRCLE
8
BLACK
10
348.22806700000001
20
-117.3855789999999928
40
0.75
0
CIRCLE
8
BLACK
10
340.6527709999999729
20
-118.7475209999999919
40
0.75
0
CIRCLE
8
BLACK
10
345.7056719999999927
20
-127.2274849999999873
40
0.75
0
CIRCLE
8
BLACK
10
338.1303760000000125
20
-128.5894279999999981
40
0.75
0
CIRCLE
8
BLACK
10
343.1832769999999755
20
-137.0693919999999935
40
0.75
0
CIRCLE
8
BLACK
10
335.6079790000000003
20
-138.4313339999999926
40
0.75
0
CIRCLE
8
BLACK
10
340.6608819999999582
20
-146.911297999999988
40
0.75
0
CIRCLE
8
BLACK
10
333.0855849999999805
20
-148.2732409999999845
40
0.75
0
CIRCLE
8
BLACK
10
338.1384860000000003
20
-156.7532049999999799
40
0.75
0
CIRCLE
8
BLACK
10
330.5631899999999632
20
-158.115146999999979
40
0.75
0
CIRCLE
8
BLACK
10
335.6160909999999831
20
-166.5951110000000028
40
0.75
0
CIRCLE
8
BLACK
10
328.0407950000000028
20
-167.9570539999999994
40
0.75
0
CIRCLE
8
BLACK
10
333.0936959999999658
20
-176.4370179999999948
40
0.75
0
CIRCLE
8
BLACK
10
325.5183999999999855
20
-177.7989599999999939
40
0.75
0
CIRCLE
8
BLACK
10
163.6500000000000057
20
-194.6999999999999886
40
0.5
0
CIRCLE
8
BLACK
10
166.1899999999999977
20
-194.6999999999999886
40
0.5
  0
ENDSEC
  0
EOF
